<svg width="748" height="556" viewBox="0 0 748 556" fill="none" xmlns="http://www.w3.org/2000/svg">
<path opacity="0.1" d="M434.595 77.9086C386.642 76.6713 340.971 65.1721 297.36 52.5911C253.749 40.0101 210.553 26.0436 163.748 19.3753C133.644 15.0853 99.2134 14.4777 74.9628 26.4734C51.6161 38.0022 44.0735 57.9036 40.0206 76.4268C36.968 90.334 35.1749 104.967 43.5326 117.985C49.3415 127.025 59.6404 134.619 66.7681 143.281C91.567 173.407 74.0366 210.55 47.1706 239.965C34.5748 253.761 19.9414 266.92 10.213 281.612C0.484648 296.305 -4.01279 313.124 4.50048 328.113C12.9323 342.931 33.0336 354.112 54.8095 361.959C99.0356 377.896 151.13 382.453 201.965 385.038C314.461 390.758 427.549 388.276 540.34 385.779C582.084 384.861 624.006 383.935 665.068 379.111C687.874 376.451 711.413 372.22 727.973 362.018C748.986 349.066 754.194 327.135 740.109 310.894C716.489 283.65 651.198 276.878 634.668 247.641C625.584 231.548 634.912 213.625 648.123 198.695C676.456 166.679 723.942 138.591 726.439 101.989C728.158 76.8565 705.33 51.6798 670.032 39.7879C633.038 27.3254 581.728 28.8888 554.447 49.5237C526.329 70.7957 476.939 78.9756 434.595 77.9086Z" fill="#6C63FF"/>
<g opacity="0.8">
<path opacity="0.8" d="M695.565 132.426C695.565 132.426 687.207 129.033 660.622 141.228C634.038 153.424 630.718 151.876 623.835 150.008C616.952 148.141 613.114 147.704 605.734 137.524C605.734 137.524 600.548 109.317 595.495 104.923C590.442 100.529 569.058 107.42 569.058 107.42C569.058 107.42 543.407 113.318 538.488 79.0201C538.488 79.0201 541.955 53.1765 537.228 45.2411C537.228 45.2411 546.771 49.3533 562.509 42.7145C578.246 36.0758 590.842 49.8719 590.842 49.8719C590.842 49.8719 594.813 60.1486 594.398 66.2687C593.983 72.3887 596.495 74.7004 604.03 71.7367C604.03 71.7367 607.735 66.491 602.496 57.8221C597.258 49.1532 593.546 42.6923 595.006 35.9573C596.465 29.2222 600.652 19.8939 614.114 15.2113C627.577 10.5286 645.87 9.6543 654.65 6.03857C663.43 2.42284 665.549 0 665.549 0C665.549 0 660.148 5.41619 672.877 28.3553C685.606 51.2945 677.493 61.26 677.493 61.26C677.493 61.26 670.721 77.3974 640.832 76.0786C640.832 76.0786 612.032 77.1307 627.732 89.3412C627.732 89.3412 637.787 87.2962 652.828 82.5172C667.869 77.7383 678.708 97.4618 681.405 111.184C684.102 124.906 695.565 132.426 695.565 132.426Z" fill="#6C63FF"/>
<path opacity="0.8" d="M656.858 17.3674L657.014 17.3229C658.17 21.7018 645.3 39.2914 634.297 53.2802L634.171 53.1839C649.686 33.4529 657.777 20.7312 656.858 17.3674Z" fill="#444053"/>
<path opacity="0.8" d="M634.393 52.895L634.46 53.0728C625.672 64.246 614.617 77.5827 605.771 87.4593C604.926 88.4003 604.089 89.3857 603.289 90.423L603.029 90.2229C603.844 89.2079 604.682 88.215 605.526 87.2592C614.373 77.3678 625.613 64.0608 634.393 52.895Z" fill="#444053"/>
<path opacity="0.8" d="M603.245 89.9265L603.423 90.2229C587.322 110.324 586.255 141.532 586.218 141.806L582.825 137.924C582.862 137.613 587.033 110.161 603.245 89.9265Z" fill="#444053"/>
<path opacity="0.8" d="M676.9 121.527C676.9 121.527 657.917 111.658 643.121 115.2C628.325 118.741 595.02 102.678 595.02 102.678C595.02 102.678 580.876 96.9357 578.03 90.3859C578.03 90.3859 568.332 80.124 567.776 74.8264C567.22 69.5287 557.751 56.1624 551.616 55.6808" stroke="#444053" stroke-miterlimit="10"/>
<path opacity="0.8" d="M674.151 131.026C674.151 131.026 664.593 124.587 665.704 117.074" stroke="#444053" stroke-miterlimit="10"/>
<path opacity="0.8" d="M659.488 139.346C659.488 139.346 645.811 134.382 644.44 114.896" stroke="#444053" stroke-miterlimit="10"/>
<path opacity="0.8" d="M637.424 144.385C637.424 144.385 624.354 133.545 628.696 114.599" stroke="#444053" stroke-miterlimit="10"/>
<path opacity="0.8" d="M610.906 139.087C610.906 139.087 602.207 120.838 609.95 108.968" stroke="#444053" stroke-miterlimit="10"/>
<path opacity="0.8" d="M677.123 109.494C677.123 109.494 667.231 112.636 669.358 117.837" stroke="#444053" stroke-miterlimit="10"/>
<path opacity="0.8" d="M665.186 91.5492C665.186 91.5492 651.953 95.7428 651.642 114.466" stroke="#444053" stroke-miterlimit="10"/>
<path opacity="0.8" d="M646.737 87.2296C646.737 87.2296 634.696 102.093 635.549 115.6" stroke="#444053" stroke-miterlimit="10"/>
<path opacity="0.8" d="M625.649 93.0607C625.649 93.0607 613.683 104.493 615.21 110.843" stroke="#444053" stroke-miterlimit="10"/>
<path opacity="0.8" d="M618.433 89.0226C618.433 89.0226 607.216 91.0306 605.652 87.3481" stroke="#444053" stroke-miterlimit="10"/>
<path opacity="0.8" d="M603.859 75.4784C603.859 75.4784 609.527 82.984 610.987 81.3021" stroke="#444053" stroke-miterlimit="10"/>
<path opacity="0.8" d="M660.036 70.7291C660.036 70.7291 631.762 72.7815 625.368 64.2608" stroke="#444053" stroke-miterlimit="10"/>
<path opacity="0.8" d="M597.91 37.6614C597.91 37.6614 611.18 66.1353 620.812 69.7659" stroke="#444053" stroke-miterlimit="10"/>
<path opacity="0.8" d="M611.839 24.095C611.839 24.095 619.989 50.2869 630.081 58.4667" stroke="#444053" stroke-miterlimit="10"/>
<path opacity="0.8" d="M671.936 49.1162C671.936 49.1162 650.449 58.3408 637.527 49.0051" stroke="#444053" stroke-width="0.75" stroke-miterlimit="10"/>
<path opacity="0.8" d="M630.985 18.5084C630.985 18.5084 635.897 37.7726 642.514 42.4182" stroke="#444053" stroke-width="0.75" stroke-miterlimit="10"/>
<path opacity="0.8" d="M668.691 27.5255C668.691 27.5255 656.606 32.097 652.094 28.5925" stroke="#444053" stroke-width="0.75" stroke-miterlimit="10"/>
<path opacity="0.8" d="M593.509 81.7689C593.509 81.7689 593.509 98.5509 588.937 99.7438" stroke="#444053" stroke-miterlimit="10"/>
<path opacity="0.8" d="M556.151 103.515C556.151 103.515 574.304 105.071 582.669 95.7057" stroke="#444053" stroke-miterlimit="10"/>
<path opacity="0.8" d="M588.826 61.9416C588.826 61.9416 584.439 78.983 572.325 83.5471" stroke="#444053" stroke-miterlimit="10"/>
<path opacity="0.8" d="M545.267 85.5847C545.267 85.5847 558.114 90.0303 569.162 78.6792" stroke="#444053" stroke-miterlimit="10"/>
<path opacity="0.8" d="M574.548 47.3083C574.548 47.3083 573.332 61.7638 565.471 68.5285" stroke="#444053" stroke-miterlimit="10"/>
<path opacity="0.8" d="M545.755 63.5569C545.755 63.5569 556.417 63.6236 558.914 60.156" stroke="#444053" stroke-miterlimit="10"/>
</g>
<path opacity="0.1" d="M194.771 555.949C283.977 555.949 356.293 550.807 356.293 544.464C356.293 538.121 283.977 532.98 194.771 532.98C105.564 532.98 33.248 538.121 33.248 544.464C33.248 550.807 105.564 555.949 194.771 555.949Z" fill="#6C63FF"/>
<path d="M288.342 481.937C290.565 477.944 293.225 474.18 295.374 470.134C297.337 466.43 298.871 462.503 300.642 458.694C303.672 452.174 307.407 446.01 310.807 439.667C313.03 435.511 315.179 430.983 314.749 426.286C314.342 421.84 311.734 417.988 310.726 413.69C306.621 396.049 296.745 379.852 290.721 362.788C289.18 358.461 287.683 354.105 285.757 349.926C282.052 341.887 276.865 334.663 271.679 327.498C269.81 324.761 267.729 322.174 265.455 319.763C263.595 317.903 261.506 316.265 259.817 314.25C256.334 310.101 254.704 304.129 250.348 300.913C250.273 301.106 250.192 301.291 250.11 301.484C246.991 293.519 236.529 288.266 230.461 281.664C226.928 277.632 223.678 273.362 220.733 268.883L207.522 249.789C205.247 246.5 202.928 243.121 202.009 239.201C200.883 234.474 201.928 229.436 200.816 224.709C200.106 221.863 198.721 219.231 196.778 217.033C196.904 216.996 197.038 216.944 197.171 216.914C199.69 216.24 202.358 216.122 204.855 215.521C210.3 214.225 215.035 210.742 220.458 209.349C223.23 208.609 226.186 208.46 228.698 207.127C229.919 206.396 230.883 205.302 231.454 203.998C232.025 202.694 232.175 201.244 231.884 199.851C230.128 190.552 235.033 181.127 234.203 171.695C233.98 169.087 233.314 166.546 232.884 163.96C231.884 157.959 232.069 151.809 232.425 145.718C234.115 142.974 236.144 140.452 238.463 138.213C241.797 134.997 245.776 132.285 248.095 128.262C250.118 124.698 250.607 120.394 250.096 116.318C249.733 113.355 248.725 110.235 246.391 108.435C244.057 106.635 240.708 106.501 237.885 107.442C237.492 107.568 237.107 107.724 236.729 107.887C235.549 107.296 234.262 106.952 232.944 106.876C231.627 106.799 230.308 106.992 229.068 107.442C226.253 108.376 223.837 110.235 221.57 112.169C220.226 113.223 219.047 114.472 218.073 115.874C216.643 118.097 216.228 120.838 215.687 123.454C214.537 128.503 212.861 133.417 210.686 138.117C210.286 138.946 209.204 140.436 208.329 141.858L206.744 141.532C206.055 148.134 200.528 152.98 197.164 158.685C195.526 161.456 194.378 164.486 192.903 167.354C191.221 170.475 189.343 173.487 187.28 176.371C185.279 179.334 183.276 182.271 181.271 185.18C178.757 189.001 176.037 192.682 173.121 196.205C170.401 195.983 167.682 195.783 164.97 195.739C160.419 195.673 155.872 196.078 151.404 196.946C151.143 195.375 150.983 193.789 150.922 192.197C150.922 192.101 150.922 192.004 150.922 191.908C150.922 191.523 150.967 191.063 151.019 190.567C154.87 187.988 158.004 184.475 160.128 180.356C162.253 176.237 163.299 171.647 163.168 167.014C163.037 162.381 161.733 157.857 159.379 153.865C157.025 149.872 153.698 146.542 149.707 144.185C149.854 143.352 149.948 142.51 149.989 141.666C149.989 141.169 149.989 140.665 149.989 140.184C149.989 139.932 149.989 139.68 149.937 139.443C149.891 138.943 149.807 138.448 149.685 137.961C149.626 137.724 149.559 137.487 149.478 137.22C149.32 136.755 149.114 136.308 148.863 135.886C148.847 135.86 148.83 135.836 148.811 135.812C148.714 135.657 148.618 135.501 148.507 135.353C148.396 135.205 148.411 135.234 148.366 135.175C148.288 135.067 148.204 134.963 148.114 134.864L147.929 134.671C147.847 134.582 147.766 134.493 147.677 134.412L147.47 134.227L147.21 133.997L146.973 133.819L146.706 133.619L146.447 133.449L146.18 133.278C146.091 133.219 145.995 133.167 145.899 133.115L145.625 132.96L145.328 132.812L145.054 132.678L144.728 132.537L144.461 132.419L144.106 132.285L143.854 132.189L143.469 132.056L143.239 131.982L142.817 131.848L142.617 131.789L142.157 131.663L141.979 131.611L141.498 131.493L141.357 131.456L140.823 131.337H140.735L139.949 131.167C136.704 130.5 133.439 129.924 130.154 129.44C127.465 129.04 124.708 128.699 122.056 129.3C118.396 130.115 115.343 132.589 111.92 134.123C107.874 135.946 103.384 136.427 99.0721 137.427C94.7599 138.428 90.3218 140.139 87.6174 143.674C85.5576 146.371 84.7352 149.801 84.1202 153.143C78.993 181.031 84.5203 209.638 85.565 237.986C85.9725 249.019 85.4761 260.814 79.2227 269.846L97.4347 269.365C98.309 269.365 99.1907 269.313 100.08 269.261C100.969 269.209 101.858 269.142 102.732 269.039C105.042 268.822 107.286 268.15 109.334 267.06C110.282 266.52 111.148 265.846 111.905 265.06C114.38 262.511 115.699 258.947 116.906 255.539C117.314 254.391 117.721 253.227 118.084 252.057C118.233 251.568 118.373 251.079 118.499 250.575L118.559 250.338L118.766 250.434C119.507 251.827 120.344 253.19 121.233 254.509C124.412 259.192 128.443 263.193 132.444 267.172C140.394 275.062 148.522 283.094 158.487 288.162C161.851 289.859 165.489 291.289 168.053 294.089C169.312 295.445 170.401 297.187 172.187 297.653C173.298 297.942 174.521 297.653 175.58 298.128C177.136 298.78 177.707 300.654 178.426 302.195C179.144 303.736 180.767 305.307 182.308 304.603C182.019 306.034 182.138 307.517 182.652 308.884C183.165 310.25 184.053 311.445 185.213 312.331C185.959 312.746 186.602 313.323 187.094 314.02C187.332 314.657 187.462 315.328 187.48 316.006C187.796 317.898 188.795 319.609 190.288 320.815C188.843 323.208 189.999 326.638 190.036 329.624C190.036 332.129 189.214 334.544 188.65 336.982C187.013 344.132 187.91 351.615 189.243 358.824C189.984 362.803 190.925 366.923 193.518 370.012C194.363 371.013 195.371 371.88 196.26 372.85C197.957 374.763 199.367 376.911 200.446 379.23C202.695 383.82 204.226 388.727 204.988 393.781C205.346 396.318 206.07 398.788 207.137 401.117C208.759 404.658 207.277 409.015 208.73 412.631C209.389 414.253 210.604 415.639 210.997 417.336C211.553 419.803 210.256 422.27 209.908 424.782C209.063 430.665 213.309 436.126 213.694 442.053C213.757 442.401 213.683 442.759 213.486 443.053C213.197 443.379 212.701 443.372 212.308 443.557C211.567 443.913 211.367 444.913 211.13 445.743C210.893 446.573 210.226 447.514 209.404 447.262C197.23 453.774 184.627 459.791 172.454 466.304L166.897 469.267L137.178 485.145C136.817 485.325 136.514 485.602 136.303 485.945C136.092 486.288 135.982 486.684 135.985 487.087C135.985 487.442 136.03 487.828 136.059 488.161C133.977 488.68 131.977 489.302 130.554 489.561C129.969 489.672 129.384 489.784 128.806 489.91C128.946 489.684 129.037 489.432 129.072 489.169C129.075 488.803 128.942 488.45 128.7 488.177C128.458 487.903 128.124 487.729 127.761 487.687C127.035 487.615 126.302 487.711 125.62 487.968C123.921 488.433 122.186 488.752 120.433 488.924C118.351 489.124 116.232 489.117 114.217 489.665C112.201 490.213 110.216 491.436 109.401 493.37C108.993 494.489 108.812 495.677 108.867 496.867C108.822 501.447 109.365 506.014 110.482 510.455C110.5 510.632 110.558 510.802 110.652 510.952C110.746 511.102 110.873 511.229 111.023 511.322C111.283 511.426 111.594 511.322 111.853 511.441C112.081 511.579 112.252 511.795 112.335 512.048C113.58 514.879 113.868 518.035 114.202 521.117C114.696 525.686 115.321 530.243 116.076 534.788C116.521 537.44 117.069 540.211 118.796 542.256C120.692 544.479 123.693 545.464 126.59 545.857C132.703 546.68 138.875 545.442 144.906 544.175C146.032 543.938 147.24 543.649 147.996 542.775C148.548 542.077 148.813 541.194 148.737 540.308C148.596 537.262 145.825 535.121 143.306 533.409L139.868 531.031C139.574 530.875 139.342 530.626 139.208 530.322C139.073 530.018 139.045 529.678 139.127 529.357L139.349 524.859H138.682C139.423 521.688 140.616 518.643 142.95 516.464C144.558 514.983 146.655 513.945 148.336 512.597C150.494 514.256 153.108 515.215 155.827 515.346C160.273 509.359 166.534 505.284 172.795 501.268C177.88 498.056 183.136 495.122 188.539 492.481C192.916 490.317 197.361 488.289 201.876 486.398C208.248 483.715 214.739 481.322 221.236 478.988C225.571 477.432 229.942 475.899 233.936 473.602C244.309 467.608 251.637 455.642 250.236 443.661C248.473 428.546 252.244 412.794 251.992 397.575C251.918 393.129 251.755 388.684 250.407 384.424C250.721 384.646 251.015 384.894 251.289 385.164C253.986 387.684 254.638 391.685 257.216 394.559C259.224 396.819 262.277 398.264 263.492 401.02C264.418 403.132 264.284 405.985 266.218 407.2C266.767 407.548 267.419 407.696 267.967 408.037C268.623 408.504 269.175 409.102 269.589 409.793C271.642 412.72 273.768 415.854 273.991 419.425C274.087 420.84 273.954 422.478 274.991 423.433C275.287 423.708 275.665 423.908 275.821 424.278C276.147 425.019 275.287 425.804 275.139 426.627C274.924 427.768 276.05 428.635 276.747 429.591C277.328 430.388 277.641 431.349 277.641 432.336C277.641 433.322 277.328 434.284 276.747 435.081C270.671 442.972 269.575 453.604 264.262 462.043C262.425 464.955 260.38 467.711 258.602 470.66C253.133 479.714 250.37 490.117 247.688 500.364C248.833 502.359 250.386 504.091 252.244 505.447C251.24 508.897 249.51 512.093 247.169 514.82C246.571 515.486 246.012 516.186 245.494 516.916C245.06 516.366 244.491 515.938 243.842 515.672C242.868 519.925 242.371 524.274 242.36 528.638C242.36 531.513 242.753 534.795 245.087 536.455C246.018 537.042 247.043 537.465 248.117 537.707L253.2 539.189C254.094 539.532 255.065 539.626 256.008 539.463C256.608 539.292 257.142 538.922 257.757 538.803C258.425 538.734 259.1 538.823 259.728 539.063L264.121 540.345C265.607 540.74 267.059 541.253 268.463 541.878C269.715 542.478 270.871 543.256 272.101 543.923C274.147 544.957 276.27 545.829 278.451 546.531L286.023 549.139C288.133 549.976 290.338 550.548 292.588 550.844C294.144 550.977 295.722 550.843 297.256 551.11C298.426 551.31 299.56 551.733 300.738 551.851C302.693 551.909 304.615 551.338 306.221 550.221C306.848 549.867 307.39 549.379 307.807 548.791C308.918 547.057 307.962 544.768 306.88 543.019C304.873 539.774 302.361 536.736 299.049 534.869C297.708 534.128 296.256 533.58 294.87 532.898C290.928 530.972 287.957 527.756 284.23 525.556C283.755 525.217 283.177 525.054 282.595 525.093C282.013 525.132 281.462 525.371 281.037 525.771C277.94 523.763 274.591 521.799 272.887 518.532C272.127 516.955 271.627 515.266 271.405 513.53C273.146 513.945 274.902 514.271 276.673 514.56C279.555 503.387 282.704 492.014 288.342 481.937ZM217.161 165.938C217.013 166.776 216.85 167.606 216.672 168.435C215.191 175.393 213.071 183.187 208.226 188.366C206.632 189.884 204.78 191.106 202.758 191.975L202.217 192.241C205.707 182.921 211.264 174.281 217.161 165.938Z" fill="url(#paint0_linear)"/>
<path d="M224.333 124.669C224.882 122.083 225.297 119.371 226.727 117.141C227.704 115.739 228.885 114.49 230.231 113.436C232.499 111.517 234.921 109.672 237.744 108.739C240.567 107.805 243.887 107.931 246.258 109.724C248.629 111.517 249.629 114.607 249.999 117.556C250.503 121.609 249.999 125.876 247.991 129.411C245.694 133.419 241.708 136.079 238.359 139.295C235.933 141.616 233.823 144.247 232.084 147.119C231.292 148.616 230.333 150.018 229.224 151.298C228.661 151.934 227.957 152.43 227.169 152.746C226.38 153.061 225.528 153.187 224.682 153.113C223.252 152.883 222.088 151.89 220.977 150.942C219.606 149.742 215.917 147.6 215.791 145.696C215.702 144.155 218.584 140.658 219.288 139.213C221.478 134.556 223.169 129.681 224.333 124.669Z" fill="#FBBEBE"/>
<path opacity="0.1" d="M224.333 124.669C224.882 122.083 225.297 119.371 226.727 117.141C227.704 115.739 228.885 114.49 230.231 113.436C232.499 111.517 234.921 109.672 237.744 108.739C240.567 107.805 243.887 107.931 246.258 109.724C248.629 111.517 249.629 114.607 249.999 117.556C250.503 121.609 249.999 125.876 247.991 129.411C245.694 133.419 241.708 136.079 238.359 139.295C235.933 141.616 233.823 144.247 232.084 147.119C231.292 148.616 230.333 150.018 229.224 151.298C228.661 151.934 227.957 152.43 227.169 152.746C226.38 153.061 225.528 153.187 224.682 153.113C223.252 152.883 222.088 151.89 220.977 150.942C219.606 149.742 215.917 147.6 215.791 145.696C215.702 144.155 218.584 140.658 219.288 139.213C221.478 134.556 223.169 129.681 224.333 124.669Z" fill="black"/>
<path d="M146.536 198.725C152.472 197.146 158.599 196.398 164.74 196.502C174.987 196.65 185.538 199.132 195.296 195.99C197.815 195.117 200.265 194.054 202.624 192.812C204.587 191.834 206.588 190.826 208.092 189.226C212.945 184.084 215.035 176.341 216.553 169.428C218.072 162.515 218.465 155.417 218.858 148.356C221.384 149.534 224.044 150.698 226.845 150.46C229.646 150.223 232.439 148.089 232.424 145.274C232.009 151.816 231.683 158.44 232.787 164.901C233.217 167.465 233.884 169.991 234.113 172.585C234.943 181.95 230.031 191.308 231.787 200.547C232.077 201.933 231.925 203.375 231.354 204.671C230.783 205.966 229.82 207.051 228.601 207.771C226.082 209.127 223.118 209.298 220.347 209.994C214.916 211.38 210.174 214.832 204.721 216.122C202.179 216.722 199.534 216.862 197.03 217.507C193.429 218.455 190.162 220.515 186.494 221.167C183.745 221.656 180.915 221.323 178.136 221.56C175.721 221.76 173.35 222.397 170.927 222.456C165 222.605 159.391 219.248 155.449 214.795C151.507 210.342 149.01 204.118 146.536 198.725Z" fill="#6C63FF"/>
<path opacity="0.1" d="M146.536 198.725C152.472 197.146 158.599 196.398 164.74 196.502C174.987 196.65 185.538 199.132 195.296 195.99C197.815 195.117 200.265 194.054 202.624 192.812C204.587 191.834 206.588 190.826 208.092 189.226C212.945 184.084 215.035 176.341 216.553 169.428C218.072 162.515 218.465 155.417 218.858 148.356C221.384 149.534 224.044 150.698 226.845 150.46C229.646 150.223 232.439 148.089 232.424 145.274C232.009 151.816 231.683 158.44 232.787 164.901C233.217 167.465 233.884 169.991 234.113 172.585C234.943 181.95 230.031 191.308 231.787 200.547C232.077 201.933 231.925 203.375 231.354 204.671C230.783 205.966 229.82 207.051 228.601 207.771C226.082 209.127 223.118 209.298 220.347 209.994C214.916 211.38 210.174 214.832 204.721 216.122C202.179 216.722 199.534 216.862 197.03 217.507C193.429 218.455 190.162 220.515 186.494 221.167C183.745 221.656 180.915 221.323 178.136 221.56C175.721 221.76 173.35 222.397 170.927 222.456C165 222.605 159.391 219.248 155.449 214.795C151.507 210.342 149.01 204.118 146.536 198.725Z" fill="black"/>
<path d="M412.997 207.831C423.085 207.831 432.947 210.822 441.335 216.427C449.723 222.032 456.26 229.998 460.121 239.319C463.981 248.639 464.99 258.895 463.022 268.789C461.053 278.684 456.195 287.772 449.061 294.905C441.927 302.038 432.838 306.895 422.943 308.862C413.048 310.83 402.793 309.819 393.473 305.957C384.153 302.095 376.187 295.557 370.584 287.168C364.98 278.779 361.99 268.917 361.991 258.829C361.993 245.302 367.368 232.331 376.933 222.767C386.498 213.203 399.471 207.831 412.997 207.831ZM412.997 195.235C400.417 195.235 388.12 198.965 377.661 205.954C367.202 212.943 359.05 222.877 354.236 234.499C349.423 246.121 348.163 258.909 350.618 271.247C353.073 283.584 359.131 294.917 368.027 303.812C376.922 312.706 388.255 318.763 400.593 321.216C412.931 323.669 425.72 322.409 437.341 317.594C448.963 312.779 458.895 304.626 465.883 294.166C472.871 283.706 476.6 271.408 476.598 258.829C476.579 241.967 469.871 225.802 457.948 213.88C446.024 201.958 429.858 195.252 412.997 195.235Z" fill="#3F3D56"/>
<path d="M418.487 180.357H403.579V196.05H418.487V180.357Z" fill="#3F3D56"/>
<path d="M457.855 194.4L445.077 186.722L436.994 200.174L449.772 207.852L457.855 194.4Z" fill="#3F3D56"/>
<path d="M484.06 225.458L476.833 212.42L463.107 220.028L470.335 233.066L484.06 225.458Z" fill="#3F3D56"/>
<path d="M476.637 304.81L484.537 292.168L471.229 283.852L463.329 296.494L476.637 304.81Z" fill="#3F3D56"/>
<path d="M355.663 233.061L362.891 220.023L349.165 212.415L341.938 225.453L355.663 233.061Z" fill="#3F3D56"/>
<path d="M362.671 296.488L354.771 283.846L341.463 292.162L349.363 304.804L362.671 296.488Z" fill="#3F3D56"/>
<path d="M376.217 207.851L388.996 200.173L380.913 186.721L368.135 194.399L376.217 207.851Z" fill="#3F3D56"/>
<path d="M418.487 321.608H403.579V337.3H418.487V321.608Z" fill="#3F3D56"/>
<path d="M449.774 309.809L436.996 317.487L445.078 330.939L457.856 323.261L449.774 309.809Z" fill="#3F3D56"/>
<path d="M368.137 323.262L380.916 330.94L388.998 317.488L376.22 309.81L368.137 323.262Z" fill="#3F3D56"/>
<path d="M351.011 252.553H332.962V265.89H351.011V252.553Z" fill="#3F3D56"/>
<path d="M474.982 265.89H493.031V252.553H474.982V265.89Z" fill="#3F3D56"/>
<path d="M531.487 116.022C541.575 116.022 551.437 119.014 559.825 124.619C568.213 130.223 574.75 138.19 578.61 147.51C582.471 156.831 583.48 167.087 581.512 176.981C579.543 186.875 574.684 195.964 567.55 203.097C560.416 210.229 551.327 215.087 541.433 217.054C531.538 219.021 521.282 218.01 511.963 214.148C502.643 210.287 494.677 203.748 489.073 195.359C483.47 186.971 480.48 177.108 480.481 167.02C480.483 153.494 485.858 140.522 495.423 130.959C504.988 121.395 517.96 116.022 531.487 116.022ZM531.487 103.426C518.907 103.426 506.61 107.157 496.151 114.146C485.692 121.134 477.54 131.068 472.726 142.69C467.912 154.312 466.653 167.101 469.108 179.438C471.563 191.776 477.621 203.109 486.516 212.003C495.412 220.898 506.745 226.954 519.083 229.408C531.421 231.861 544.209 230.6 555.831 225.785C567.452 220.97 577.385 212.817 584.373 202.357C591.361 191.897 595.089 179.6 595.088 167.02C595.068 150.159 588.361 133.994 576.437 122.072C564.514 110.149 548.348 103.444 531.487 103.426Z" fill="#3F3D56"/>
<path d="M536.975 88.5558H522.068V104.249H536.975V88.5558Z" fill="#3F3D56"/>
<path d="M576.349 102.587L563.571 94.909L555.488 108.36L568.267 116.038L576.349 102.587Z" fill="#3F3D56"/>
<path d="M602.554 133.647L595.327 120.609L581.601 128.217L588.829 141.255L602.554 133.647Z" fill="#3F3D56"/>
<path d="M595.125 213.003L603.024 200.361L589.716 192.045L581.816 204.687L595.125 213.003Z" fill="#3F3D56"/>
<path d="M474.148 141.262L481.375 128.224L467.65 120.615L460.423 133.654L474.148 141.262Z" fill="#3F3D56"/>
<path d="M481.158 204.685L473.258 192.043L459.95 200.359L467.849 213.001L481.158 204.685Z" fill="#3F3D56"/>
<path d="M494.708 116.04L507.486 108.362L499.403 94.9103L486.625 102.588L494.708 116.04Z" fill="#3F3D56"/>
<path d="M536.975 229.799H522.068V245.492H536.975V229.799Z" fill="#3F3D56"/>
<path d="M568.264 218.003L555.485 225.681L563.568 239.133L576.346 231.455L568.264 218.003Z" fill="#3F3D56"/>
<path d="M486.622 231.451L499.4 239.129L507.482 225.677L494.704 217.999L486.622 231.451Z" fill="#3F3D56"/>
<path d="M469.492 160.745H451.443V174.081H469.492V160.745Z" fill="#3F3D56"/>
<path d="M593.479 174.081H611.528V160.745H593.479V174.081Z" fill="#3F3D56"/>
<path d="M294.478 112.095C295.078 112.095 295.679 112.095 296.279 112.095C309.648 112.551 322.302 118.24 331.516 127.938C340.73 137.635 345.766 150.563 345.538 163.938C345.311 177.313 339.839 190.063 330.3 199.441C320.762 208.819 307.922 214.075 294.545 214.077C293.945 214.077 293.345 214.077 292.737 214.077C279.368 213.621 266.713 207.931 257.499 198.233C248.285 188.535 243.249 175.605 243.478 162.23C243.706 148.855 249.18 136.105 258.719 126.727C268.259 117.349 281.101 112.094 294.478 112.095ZM294.478 99.4993C277.798 99.4972 261.784 106.049 249.887 117.741C237.991 129.434 231.164 145.333 230.878 162.011C230.593 178.69 236.871 194.813 248.36 206.906C259.849 219 275.629 226.096 292.3 226.665C293.041 226.665 293.782 226.702 294.523 226.702C311.203 226.702 327.216 220.149 339.111 208.456C351.005 196.762 357.831 180.864 358.115 164.186C358.4 147.509 352.122 131.386 340.633 119.294C329.144 107.201 313.364 100.106 296.694 99.5363C295.953 99.5363 295.212 99.4993 294.471 99.4993H294.478Z" fill="#3F3D56"/>
<path d="M302.711 84.8791L287.812 84.3614L287.268 100.045L302.166 100.562L302.711 84.8791Z" fill="#3F3D56"/>
<path d="M341.562 100.27L329.058 92.1529L320.513 105.316L333.017 113.433L341.562 100.27Z" fill="#3F3D56"/>
<path d="M366.678 132.218L359.908 118.937L345.927 126.064L352.697 139.345L366.678 132.218Z" fill="#3F3D56"/>
<path d="M356.514 211.243L364.848 198.883L351.837 190.11L343.503 202.47L356.514 211.243Z" fill="#3F3D56"/>
<path d="M238.091 135.353L245.767 122.573L232.314 114.493L224.638 127.273L238.091 135.353Z" fill="#3F3D56"/>
<path d="M241.853 200.214L234.399 187.245L220.747 195.091L228.2 208.06L241.853 200.214Z" fill="#3F3D56"/>
<path d="M259.527 110.86L272.564 103.63L264.954 89.906L251.917 97.1356L259.527 110.86Z" fill="#3F3D56"/>
<path d="M297.811 226.03L282.913 225.512L282.368 241.196L297.266 241.714L297.811 226.03Z" fill="#3F3D56"/>
<path d="M329.498 215.337L316.461 222.567L324.071 236.291L337.109 229.061L329.498 215.337Z" fill="#3F3D56"/>
<path d="M247.452 225.93L259.956 234.047L268.5 220.884L255.996 212.767L247.452 225.93Z" fill="#3F3D56"/>
<path d="M232.773 154.68L214.734 154.053L214.271 167.382L232.309 168.009L232.773 154.68Z" fill="#3F3D56"/>
<path d="M356.225 172.293L374.263 172.92L374.726 159.591L356.688 158.965L356.225 172.293Z" fill="#3F3D56"/>
<path d="M130.236 488.317C128.4 488.541 126.62 489.095 124.983 489.954C122.76 491.31 121.389 493.703 120.411 496.119C117.959 502.179 117.447 508.833 117.344 515.383C117.255 520.658 117.433 526.059 119.322 530.979C119.84 532.537 120.739 533.94 121.937 535.062C122.991 535.891 124.212 536.482 125.516 536.796C128.332 537.536 131.599 537.536 133.903 535.758C136.467 533.75 137.112 530.216 137.653 527.008C138.393 522.681 139.423 518.117 142.639 515.101C145.025 512.878 148.44 511.767 150.174 509.011C152.241 505.736 151.152 501.461 149.833 497.815C148.685 494.659 147.003 488.25 143.699 486.635C140.394 485.019 133.674 487.694 130.236 488.317Z" fill="#FBBEBE"/>
<path d="M252.096 503.839C251.097 507.372 249.326 510.64 246.91 513.404C245.428 515.094 243.613 517.146 244.391 519.243C244.707 519.953 245.178 520.583 245.769 521.088C256.631 531.72 271.827 536.892 286.905 538.774C287.148 538.84 287.403 538.84 287.646 538.774C288.091 538.574 288.194 538.033 288.254 537.536C288.494 535.965 288.494 534.366 288.254 532.795C287.513 529.09 284.29 526.519 281.133 524.489C277.977 522.459 274.524 520.488 272.761 517.176C270.538 513.056 271.494 507.692 268.878 503.839C266.759 500.705 262.825 499.393 259.091 498.778C257.794 498.578 255.038 497.156 253.904 497.815C252.748 498.482 252.489 502.55 252.096 503.839Z" fill="#FBBEBE"/>
<path d="M128.754 487.931C128.757 487.566 128.624 487.213 128.382 486.939C128.14 486.666 127.806 486.491 127.443 486.449C126.718 486.375 125.985 486.469 125.302 486.724C123.603 487.185 121.868 487.502 120.115 487.672C118.033 487.872 115.907 487.865 113.884 488.413C111.861 488.961 109.883 490.169 109.06 492.118C108.66 493.231 108.479 494.411 108.527 495.592C108.485 500.141 109.028 504.675 110.142 509.085C110.162 509.261 110.221 509.431 110.316 509.581C110.411 509.732 110.539 509.858 110.691 509.952C110.95 510.055 111.261 509.952 111.52 510.07C111.748 510.206 111.919 510.419 112.002 510.67C113.254 513.486 113.543 516.598 113.877 519.68C114.37 524.22 114.995 528.744 115.751 533.254C116.196 535.884 116.744 538.648 118.478 540.663C120.374 542.886 123.383 543.842 126.28 544.234C132.4 545.049 138.579 543.82 144.625 542.56C145.778 542.445 146.862 541.959 147.715 541.174C148.267 540.482 148.532 539.604 148.456 538.722C148.315 535.699 145.536 533.535 143.017 531.876L139.55 529.542C139.308 529.408 139.1 529.221 138.942 528.994C138.778 528.648 138.719 528.261 138.772 527.882L138.994 523.437C136.691 523.473 134.44 524.134 132.483 525.349C130.526 526.564 128.935 528.287 127.88 530.335C127.398 531.29 126.946 532.409 125.946 532.78C124.709 533.246 123.331 532.202 122.916 530.95C122.627 529.657 122.665 528.312 123.027 527.037C125.057 516.161 124.583 504.98 125.82 493.985C125.897 492.751 126.276 491.555 126.924 490.502C127.524 489.672 128.643 488.946 128.754 487.931Z" fill="#3F3D56"/>
<path d="M280.08 530.105C280.592 530.95 281.384 531.587 281.859 532.461C282.333 533.335 282.325 534.61 281.473 535.106C280.97 535.328 280.41 535.385 279.873 535.269C268.994 533.919 258.781 529.3 250.584 522.021C249.223 520.871 248.017 519.549 246.998 518.087C246.042 516.605 245.234 514.864 243.604 514.256C242.63 518.48 242.133 522.799 242.123 527.134C242.123 529.986 242.515 533.247 244.849 534.899C245.785 535.48 246.812 535.898 247.887 536.136L252.977 537.574C253.875 537.913 254.846 538.007 255.793 537.848C256.393 537.685 256.926 537.307 257.541 537.196C258.211 537.124 258.889 537.211 259.52 537.448L263.913 538.729C265.4 539.108 266.854 539.603 268.263 540.211C269.515 540.804 270.678 541.582 271.9 542.241C273.951 543.27 276.079 544.134 278.265 544.827L286 547.509C288.115 548.344 290.325 548.912 292.58 549.199C294.136 549.332 295.714 549.199 297.255 549.465C298.426 549.665 299.559 550.088 300.745 550.206C302.698 550.26 304.618 549.692 306.228 548.584C306.855 548.233 307.399 547.75 307.821 547.169C308.932 545.442 307.976 543.168 306.887 541.426C304.879 538.211 302.367 535.195 299.048 533.358C297.7 532.617 296.247 532.068 294.862 531.394C290.92 529.483 287.934 526.289 284.207 524.103C280.688 522.058 278.421 527.386 280.08 530.105Z" fill="#3F3D56"/>
<path d="M171.439 218.685C167.353 221.493 162.671 223.314 157.761 224.005C155.193 224.325 152.606 224.463 150.019 224.42C139.229 224.407 128.46 223.507 117.818 221.73C122.056 217.062 126.339 212.098 127.939 205.978C128.732 202.75 128.896 199.399 128.421 196.109C127.779 191.888 126.772 187.731 125.412 183.684C129.951 183.927 134.503 183.811 139.023 183.335C141.602 183.076 147.914 180.727 150.137 182.506C152.219 184.158 150.648 190.004 150.611 192.701C150.611 192.797 150.611 192.893 150.611 192.99C150.728 197.084 151.61 201.12 153.212 204.889C156.472 212.18 163.444 218.166 171.439 218.685Z" fill="#FBBEBE"/>
<path opacity="0.1" d="M150.641 192.664C147.394 194.785 143.73 196.187 139.896 196.775C136.062 197.363 132.147 197.123 128.413 196.072C127.771 191.851 126.765 187.694 125.405 183.647C129.944 183.89 134.495 183.774 139.016 183.298C141.594 183.039 147.907 180.69 150.13 182.469C152.249 184.121 150.678 189.967 150.641 192.664Z" fill="black"/>
<path d="M135.793 195.82C150.77 195.82 162.911 183.679 162.911 168.702C162.911 153.725 150.77 141.584 135.793 141.584C120.816 141.584 108.675 153.725 108.675 168.702C108.675 183.679 120.816 195.82 135.793 195.82Z" fill="#FBBEBE"/>
<path d="M250.852 305.922C250.867 308.111 250.311 310.266 249.239 312.175C248.167 314.083 246.617 315.68 244.74 316.806C242.643 317.907 240.397 318.693 238.071 319.14C225.668 322.104 212.961 324.542 200.225 323.816C197.469 323.66 194.668 323.334 192.193 322.126C189.718 320.919 187.607 318.659 187.236 315.932C187.22 315.257 187.087 314.591 186.844 313.961C186.353 313.266 185.709 312.693 184.962 312.287C183.816 311.407 182.941 310.223 182.435 308.87C181.929 307.516 181.814 306.048 182.102 304.633C180.553 305.322 178.938 303.766 178.212 302.232C177.486 300.699 176.915 298.846 175.359 298.202C174.3 297.75 173.077 298.016 171.958 297.727C170.173 297.268 169.084 295.505 167.824 294.186C165.253 291.437 161.608 290.014 158.244 288.325C148.263 283.294 140.128 275.322 132.163 267.483C128.155 263.534 124.117 259.555 120.938 254.887C120.042 253.575 119.234 252.227 118.471 250.841C116.061 246.221 113.972 241.441 112.217 236.534C111.21 233.911 110.187 231.14 110.602 228.384C110.639 228.132 110.691 227.88 110.75 227.643C111.267 225.852 112.1 224.168 113.21 222.671C115.966 218.618 119.582 214.78 124.324 213.536C129.066 212.291 133.801 213.795 138.617 214.818C140.216 215.173 141.837 215.421 143.47 215.558C148.575 215.921 153.628 214.551 158.562 213.187L163.942 211.706C166.639 210.965 167.987 207.705 170.714 207.134C171.932 206.959 173.172 207.022 174.366 207.319C179.901 208.371 185.48 209.727 190.348 212.543C191.432 213.172 192.469 213.878 193.453 214.655C196.92 217.396 199.662 221.049 200.669 225.316C201.781 230.007 200.736 235.015 201.862 239.705C202.781 243.58 205.108 246.959 207.39 250.227L220.63 269.135C223.585 273.585 226.841 277.828 230.373 281.835C237.471 289.562 250.675 295.408 250.852 305.922Z" fill="#6C63FF"/>
<path d="M215.494 124.669C216.043 122.083 216.45 119.371 217.88 117.141C218.858 115.739 220.039 114.49 221.385 113.436C223.659 111.517 226.075 109.672 228.898 108.739C231.721 107.805 235.04 107.931 237.411 109.724C239.782 111.517 240.782 114.607 241.153 117.556C241.656 121.609 241.153 125.876 239.145 129.411C236.848 133.419 232.862 136.079 229.513 139.295C227.089 141.618 224.979 144.248 223.237 147.119C222.445 148.616 221.486 150.018 220.377 151.298C219.815 151.934 219.111 152.43 218.322 152.746C217.533 153.061 216.681 153.187 215.835 153.113C214.412 152.883 213.242 151.89 212.13 150.942C210.76 149.742 207.062 147.6 206.944 145.696C206.855 144.155 209.737 140.658 210.441 139.213C212.63 134.555 214.324 129.68 215.494 124.669Z" fill="#FBBEBE"/>
<path d="M310.799 438.793C307.391 445.083 303.657 451.211 300.619 457.687C298.848 461.473 297.315 465.37 295.344 469.052C293.195 473.068 290.55 476.802 288.305 480.774C282.652 490.784 279.503 502.076 276.591 513.197C268.446 511.977 260.609 509.211 253.503 505.047C253.022 504.765 252.562 504.469 252.118 504.15C250.218 502.789 248.629 501.038 247.457 499.016C250.147 488.843 252.911 478.499 258.386 469.512C260.172 466.548 262.217 463.844 264.054 460.954C269.382 452.582 270.478 442.016 276.561 434.177C277.142 433.387 277.456 432.431 277.456 431.45C277.456 430.469 277.142 429.514 276.561 428.724C275.857 427.812 274.738 426.945 274.946 425.819C275.102 424.997 275.961 424.256 275.628 423.485C275.472 423.115 275.094 422.915 274.798 422.648C273.76 421.692 273.894 420.062 273.805 418.662C273.575 415.113 271.449 411.993 269.359 409.096C268.943 408.41 268.39 407.815 267.737 407.348C267.188 407.014 266.536 406.866 265.988 406.525C264.047 405.31 264.188 402.48 263.254 400.383C262.039 397.619 258.979 396.212 256.971 393.967C254.415 391.114 253.763 387.135 251.044 384.638C250.769 384.369 250.475 384.121 250.162 383.897C251.51 388.084 251.644 392.551 251.74 396.96C251.999 412.068 248.221 427.709 249.991 442.72C251.384 454.626 244.064 466.511 233.654 472.461C229.653 474.743 225.281 476.269 220.94 477.818C214.427 480.122 207.936 482.5 201.55 485.168C197.035 487.035 192.589 489.048 188.213 491.206C182.803 493.832 177.537 496.746 172.438 499.934C166.17 503.921 159.902 507.973 155.449 513.923C151.144 513.804 147.202 511.219 144.476 507.884C141.749 504.55 140.03 500.475 138.467 496.504C137.081 493.058 135.718 489.502 135.614 485.79C135.633 485.391 135.764 485.006 135.992 484.678C136.22 484.35 136.536 484.094 136.903 483.938L166.667 468.163L172.231 465.2C184.419 458.731 197.045 452.752 209.233 446.291C210.055 446.536 210.715 445.602 210.959 444.809C211.204 444.016 211.374 442.994 212.145 442.638C212.53 442.453 213.034 442.46 213.323 442.134C213.511 441.843 213.585 441.492 213.53 441.149C213.138 435.222 208.885 429.835 209.737 423.989C210.1 421.5 211.382 419.047 210.826 416.58C210.433 414.883 209.218 413.512 208.559 411.905C207.077 408.311 208.559 403.984 206.958 400.465C205.895 398.15 205.171 395.695 204.81 393.174C204.043 388.153 202.509 383.28 200.26 378.726C199.178 376.423 197.768 374.289 196.074 372.391C195.178 371.428 194.17 370.568 193.318 369.568C190.732 366.5 189.776 362.411 189.043 358.454C187.709 351.289 186.82 343.858 188.45 336.76C189.013 334.337 189.872 331.936 189.835 329.454C189.798 326.172 188.354 322.341 190.636 319.97C191.581 319.122 192.729 318.532 193.97 318.259C199.216 316.695 204.676 315.984 210.107 315.295L234.965 312.042C237.811 311.664 240.722 311.301 243.234 309.886C246.605 308.026 248.843 304.581 250.214 300.995C254.578 304.181 256.208 310.116 259.69 314.228C261.387 316.236 263.484 317.858 265.343 319.703C267.617 322.098 269.701 324.667 271.575 327.387C276.761 334.507 281.948 341.679 285.652 349.667C287.586 353.816 289.083 358.143 290.624 362.448C296.692 379.393 306.584 395.478 310.688 412.994C311.696 417.276 314.311 421.144 314.719 425.523C315.178 430.168 313.03 434.658 310.799 438.793Z" fill="#3F3D56"/>
<path opacity="0.1" d="M180.619 298.061C180.01 299.187 179.694 300.448 179.7 301.728C180.256 298.987 184.027 297.468 184.272 294.756C184.383 293.504 184.153 293.563 183.383 294.223C182.212 295.238 181.701 296.987 180.619 298.061Z" fill="black"/>
<path opacity="0.1" d="M192.111 306.389C191.314 307.061 190.719 307.941 190.392 308.93C189.75 310.324 189.627 311.9 190.043 313.376C190.599 313.117 190.784 312.435 190.955 311.842C191.228 310.919 191.624 310.037 192.133 309.219C192.577 308.478 194.63 306.826 194.622 306.048C194.6 304.855 192.659 305.967 192.111 306.389Z" fill="black"/>
<path opacity="0.1" d="M193.437 214.603C191.694 216.102 189.773 217.382 187.717 218.411C182.345 221.13 176.395 222.568 170.987 225.205C168.318 226.573 165.726 228.084 163.222 229.732L147.144 239.92C145.852 240.66 144.661 241.564 143.602 242.61C141.668 244.67 141.675 248.293 139.897 250.501C138.119 252.709 135.052 253.953 132.095 254.102C129.134 254.119 126.192 253.618 123.404 252.62C121.716 252.115 120.058 251.511 118.44 250.812C116.748 250.094 115.146 249.178 113.668 248.085C110.801 245.922 108.482 242.773 108.052 239.194C107.859 236.738 108.185 234.269 109.008 231.948C109.453 230.437 110.026 228.968 110.719 227.554C111.115 226.75 111.57 225.977 112.083 225.242C115.787 220.011 122.285 217.559 128.576 216.351C131.88 215.707 135.244 215.314 138.586 214.751C140.185 215.107 141.806 215.354 143.439 215.492C148.544 215.855 153.597 214.484 158.532 213.121L163.911 211.639C166.608 210.898 167.956 207.638 170.683 207.067C171.901 206.892 173.141 206.955 174.336 207.253C179.87 208.305 185.45 209.661 190.317 212.476C191.407 213.109 192.449 213.82 193.437 214.603Z" fill="black"/>
<path d="M206.551 142.629C205.862 149.186 200.327 154.002 196.919 159.67C195.282 162.419 194.133 165.435 192.659 168.28C190.969 171.382 189.088 174.376 187.028 177.245L181.004 185.988C177.462 191.13 173.884 196.316 169.357 200.621C161.466 201.962 154.849 207.823 147.366 210.668C141.379 212.943 134.851 213.254 128.568 214.477C122.285 215.699 115.773 218.181 112.083 223.368C110.709 225.413 109.668 227.664 109 230.036C108.172 232.354 107.849 234.822 108.052 237.275C108.504 240.846 110.794 243.988 113.661 246.166C116.528 248.345 119.959 249.634 123.397 250.701C126.186 251.695 129.127 252.196 132.088 252.183C135.052 252.034 138.06 250.893 139.897 248.582C141.735 246.27 141.646 242.751 143.602 240.691C144.664 239.645 145.857 238.741 147.151 238.001L163.229 227.813C165.732 226.175 168.321 224.674 170.987 223.316C176.395 220.671 182.345 219.241 187.717 216.522C193.088 213.802 198.09 209.312 199.164 203.385C202.439 185.173 215.042 169.821 225.838 154.78C225.482 154.706 225.593 153.898 225.46 153.557C224.082 149.986 221.014 147.297 217.561 145.6C214.109 143.903 210.256 143.429 206.551 142.629Z" fill="#6C63FF"/>
<path d="M149.707 142.762C149.908 140.787 149.518 138.796 148.588 137.042C146.803 134.078 143.061 133.034 139.697 132.337C136.442 131.67 133.172 131.097 129.887 130.618C127.19 130.226 124.427 129.877 121.774 130.485C118.07 131.293 115.054 133.745 111.623 135.271C107.571 137.079 103.081 137.553 98.7535 138.554C94.4265 139.554 89.9958 141.251 87.284 144.763C85.2242 147.43 84.4018 150.838 83.7868 154.158C78.6521 181.861 84.1795 210.276 85.2316 238.431C85.6391 249.389 85.1427 261.103 78.8818 270.106L97.1161 269.624C101.784 269.505 106.8 269.261 110.453 266.379C113.683 263.845 115.21 259.762 116.595 255.895C117.684 252.849 118.781 249.745 118.922 246.514C119.211 239.898 115.454 233.4 116.699 226.887C117.61 222.027 121.144 218.1 124.931 214.906C128.717 211.713 132.925 208.979 135.985 205.067C141.453 198.154 142.498 188.707 141.816 179.927C141.409 174.704 140.475 169.48 140.927 164.257C141.268 160.352 142.505 156.321 145.062 153.276C147.936 149.823 149.455 147.66 149.707 142.762Z" fill="#3F3D56"/>
<path opacity="0.1" d="M148.589 137.042C146.833 134.123 143.188 133.071 139.846 132.374C141.623 133.006 143.143 134.204 144.173 135.783C145.107 137.536 145.496 139.527 145.292 141.503C145.04 146.393 143.521 148.556 140.617 152.016C138.061 155.062 136.823 159.085 136.483 162.997C136.031 168.22 136.964 173.444 137.372 178.668C138.053 187.448 137.009 196.894 131.548 203.807C128.481 207.69 124.272 210.476 120.493 213.647C116.715 216.818 113.166 220.767 112.254 225.628C111.032 232.14 114.788 238.638 114.477 245.255C114.336 248.485 113.232 251.59 112.143 254.635C110.765 258.503 109.231 262.578 106.001 265.112C102.296 267.994 97.3096 268.246 92.664 268.364L79.7496 268.705C79.4607 269.179 79.1643 269.654 78.8457 270.106L97.08 269.624C101.748 269.505 106.764 269.261 110.417 266.379C113.647 263.845 115.173 259.762 116.559 255.895C117.648 252.849 118.745 249.745 118.885 246.514C119.174 239.898 115.418 233.4 116.663 226.887C117.574 222.027 121.108 218.1 124.894 214.906C128.681 211.713 132.889 208.979 135.949 205.067C141.417 198.154 142.462 188.707 141.78 179.927C141.373 174.704 140.439 169.48 140.891 164.257C141.232 160.352 142.469 156.321 145.025 153.276C147.93 149.823 149.471 147.66 149.701 142.762C149.903 140.788 149.517 138.797 148.589 137.042Z" fill="black"/>
<path opacity="0.1" d="M285.587 422.574L252.119 504.187C250.219 502.826 248.631 501.075 247.459 499.053C250.149 488.88 252.912 478.536 258.388 469.549C260.173 466.585 262.218 463.881 264.056 460.991C269.383 452.619 270.48 442.053 276.563 434.214C277.144 433.424 277.458 432.468 277.458 431.487C277.458 430.506 277.144 429.551 276.563 428.761C275.859 427.849 274.74 426.982 274.947 425.856C275.103 425.034 275.963 424.293 275.629 423.522C275.474 423.152 275.096 422.952 274.799 422.685C273.762 421.729 273.895 420.099 273.806 418.699C273.577 415.15 271.45 412.03 269.361 409.133C268.944 408.447 268.392 407.852 267.738 407.385C267.19 407.051 266.538 406.903 265.99 406.562C264.048 405.347 264.189 402.517 263.256 400.42C262.04 397.657 258.98 396.249 256.973 394.004C254.416 391.151 253.764 387.172 251.045 384.675L250.815 384.097L253.423 368.353L285.587 422.574Z" fill="black"/>
<defs>
<linearGradient id="paint0_linear" x1="196.993" y1="551.881" x2="196.993" y2="106.805" gradientUnits="userSpaceOnUse">
<stop stop-color="#808080" stop-opacity="0.25"/>
<stop offset="0.54" stop-color="#808080" stop-opacity="0.12"/>
<stop offset="1" stop-color="#808080" stop-opacity="0.1"/>
</linearGradient>
</defs>
</svg>
