<svg width="22" height="26" viewBox="0 0 22 26" fill="none" xmlns="http://www.w3.org/2000/svg">
<path d="M11.0003 0C6.60197 0 2.93359 3.54298 2.93359 8.06667C2.93359 9.78765 3.45074 11.3223 4.44323 12.7603L10.3829 22.0287C10.6711 22.4792 11.33 22.4783 11.6176 22.0287L17.5831 12.7288C18.5542 11.3559 19.0669 9.7439 19.0669 8.06667C19.0669 3.61871 15.4482 0 11.0003 0ZM11.0003 11.7333C8.97856 11.7333 7.33359 10.0884 7.33359 8.06667C7.33359 6.04496 8.97856 4.4 11.0003 4.4C13.022 4.4 14.6669 6.04496 14.6669 8.06667C14.6669 10.0884 13.022 11.7333 11.0003 11.7333Z" fill="white"/>
<path d="M16.7329 16.8521L13.0403 22.6252C12.0845 24.1154 9.91022 24.1105 8.95899 22.6266L5.26035 16.8536C2.00611 17.606 0 18.9843 0 20.6314C0 23.4895 5.66759 25.0314 11 25.0314C16.3324 25.0314 22 23.4895 22 20.6314C22 18.9831 19.9911 17.6041 16.7329 16.8521Z" fill="white"/>
</svg>
