<svg width="44" height="35" viewBox="0 0 44 35" fill="none" xmlns="http://www.w3.org/2000/svg">
<path d="M43.0769 4.14346C41.475 4.84615 39.7681 5.31192 37.9885 5.53808C39.8192 4.445 41.2165 2.72731 41.8735 0.656923C40.1665 1.67462 38.2819 2.39346 36.2735 2.79462C34.6527 1.06885 32.3427 0 29.8227 0C24.9335 0 20.9973 3.96846 20.9973 8.83346C20.9973 9.53346 21.0565 10.2065 21.2019 10.8473C13.86 10.4892 7.36346 6.97039 2.99923 1.61C2.23731 2.93192 1.79038 4.445 1.79038 6.07385C1.79038 9.13231 3.36538 11.8435 5.71308 13.4131C4.29423 13.3862 2.90231 12.9742 1.72308 12.3254C1.72308 12.3523 1.72308 12.3873 1.72308 12.4223C1.72308 16.7138 4.78423 20.2785 8.79846 21.0996C8.07962 21.2962 7.29615 21.3904 6.48308 21.3904C5.91769 21.3904 5.34692 21.3581 4.81115 21.2396C5.95538 24.7369 9.20231 27.3081 13.0631 27.3915C10.0585 29.7419 6.24346 31.1581 2.11346 31.1581C1.38923 31.1581 0.694615 31.1258 0 31.0369C3.91192 33.5596 8.54808 35 13.5477 35C29.7985 35 38.6831 21.5385 38.6831 9.87C38.6831 9.47962 38.6696 9.10269 38.6508 8.72846C40.4035 7.48462 41.8762 5.93115 43.0769 4.14346Z" fill="white"/>
</svg>
