<svg width="432" height="400" viewBox="0 0 432 400" fill="none" xmlns="http://www.w3.org/2000/svg">
<path d="M203.007 140.915L259.981 155.429L275.899 212.026L234.843 254.111L177.869 239.597L161.951 183L203.007 140.915Z" fill="#EEEEFF"/>
<path d="M233.403 31.8363L290.377 46.3497L306.295 102.947L265.239 145.032L208.265 130.518L192.347 73.9207L233.403 31.8363Z" fill="#EEEEFF"/>
<path d="M316.202 109.079L373.176 123.592L389.095 180.19L348.039 222.274L291.065 207.761L275.146 151.163L316.202 109.079Z" fill="#EEEEFF"/>
<path d="M286.51 220.662L343.485 235.176L359.403 291.773L318.347 333.858L261.373 319.344L245.454 262.747L286.51 220.662Z" fill="#EEEEFF"/>
<path d="M173.315 252.499L230.289 267.012L246.207 323.61L205.151 365.694L148.177 351.181L132.259 294.583L173.315 252.499Z" fill="#EEEEFF"/>
<path d="M82.7993 174.724L139.773 189.237L155.692 245.835L114.636 287.919L57.6614 273.406L41.7433 216.808L82.7993 174.724Z" fill="#EEEEFF"/>
<path d="M120.208 63.6727L177.182 78.186L193.1 134.784L152.044 176.868L95.0698 162.355L79.1516 105.757L120.208 63.6727Z" fill="#EEEEFF"/>
</svg>
