<svg width="778" height="618" viewBox="0 0 778 618" fill="none" xmlns="http://www.w3.org/2000/svg">
<g clip-path="url(#clip0)">
<path opacity="0.1" d="M456.27 104.439C407.042 102.729 360.149 86.8526 315.379 69.479C270.608 52.1055 226.264 32.8547 178.215 23.6511C147.311 17.7308 111.964 16.8948 87.069 33.4475C63.1016 49.4075 55.3585 76.8814 51.1978 102.402C48.064 121.6 46.2233 141.8 54.8108 159.774C60.7665 172.254 71.3468 182.741 78.6565 194.734C104.115 236.321 86.1258 287.606 58.5379 328.213C45.6072 347.266 30.5848 365.453 20.6054 385.714C10.626 405.976 6.00135 429.224 14.7334 449.911C23.3969 470.431 44.0327 485.813 66.3799 496.643C111.782 518.645 165.261 524.938 217.448 528.503C332.934 536.399 449.029 532.979 564.819 529.559C607.673 528.29 650.709 527.005 692.863 520.386C716.275 516.707 740.44 510.878 757.44 496.788C779.012 478.905 784.359 448.619 769.907 426.199C745.651 388.587 678.632 379.247 661.654 338.875C652.329 316.661 661.913 291.915 675.467 271.304C704.554 227.103 753.302 188.32 755.873 137.795C757.638 103.086 734.195 68.339 697.959 51.9155C659.981 34.6407 607.3 36.8295 579.294 65.3218C550.435 94.6805 499.732 105.944 456.27 104.439Z" fill="#6C63FF"/>
<path d="M331.215 524.779L70.8677 523.509L44.9988 462.884L136.472 456.25L120.529 389.78L301.452 366.349L128.204 306.173L143.508 302.54L422.087 347.95L406.746 451.682L384.817 508.689L331.215 524.779Z" fill="#6C63FF"/>
<path d="M74.8608 498.118C74.8608 498.118 90.834 495.564 100.418 506.843C100.418 506.843 93.3897 512.376 78.2684 504.715L74.8608 498.118Z" fill="#6C63FF"/>
<path d="M73.1875 497.867C73.1875 497.867 62.9951 510.399 68.0152 524.353C68.0152 524.353 76.3213 521.032 77.2264 504.114L73.1875 497.867Z" fill="#6C63FF"/>
<path d="M64.0295 477.264C64.0295 477.264 70.4188 465.552 95.9759 481.945C95.9759 481.945 92.5683 489.819 81.2806 489.18C69.9929 488.542 67.0112 483.435 64.0295 477.264Z" fill="#6C63FF"/>
<path d="M62.3791 476.42C62.3791 476.42 49.1214 474.9 47.8359 505.224C47.8359 505.224 56.2409 506.964 62.2118 497.373C68.1827 487.782 65.7335 482.401 62.3791 476.42Z" fill="#6C63FF"/>
<path d="M54.6587 452.229C54.6587 452.229 62.1128 431.588 89.1607 446.271C89.1607 446.271 82.9844 465.21 57.4274 459.252L54.6587 452.229Z" fill="#6C63FF"/>
<path d="M46.3525 421.373C46.3525 421.373 60.4089 400.519 85.3271 419.853C85.3271 419.853 76.5951 439.431 48.4823 428.791L46.3525 421.373Z" fill="#6C63FF"/>
<path d="M43.3708 392.007C43.3708 392.007 59.77 372.847 84.4447 392.007C84.4447 392.007 68.8975 408.818 43.3708 396.901V392.007Z" fill="#6C63FF"/>
<path d="M40.8152 363.484C40.8152 363.484 57.4273 343.481 81.0676 362.42C81.0676 362.42 62.3257 380.083 40.8152 368.166V363.484Z" fill="#6C63FF"/>
<path d="M42.3062 338.161C42.3062 338.161 59.8006 312.412 81.9196 329.862C81.9196 329.862 63.1778 351.993 42.3062 343.055V338.161Z" fill="#6C63FF"/>
<path d="M46.3525 308.582C46.3525 308.582 64.8814 283.046 86.392 302.624C86.392 302.624 64.4555 324.755 46.3525 313.264V308.582Z" fill="#6C63FF"/>
<path d="M52.5289 282.142C52.5289 282.142 74.4654 258.141 93.6028 267.702C93.6028 267.702 70.746 293.192 51.5706 288.51L52.5289 282.142Z" fill="#6C63FF"/>
<path d="M60.196 257.077C60.196 257.077 85.5096 227.68 100.235 237.499C100.235 237.499 81.5848 260.299 58.4009 262.579L60.196 257.077Z" fill="#6C63FF"/>
<path d="M71.2631 228.007C71.2631 228.007 93.4202 204.006 109.606 209.965C109.606 209.965 90.6515 234.862 68.2891 235.501L71.2631 228.007Z" fill="#6C63FF"/>
<path d="M81.2807 200.814C81.2807 200.814 105.773 177.832 116.422 181.875C116.422 181.875 98.7447 207.411 80.2158 205.921L81.2807 200.814Z" fill="#6C63FF"/>
<path d="M91.0776 175.704C91.0776 175.704 112.162 148.245 123.671 150.373C123.671 150.373 110.884 174.853 91.0776 178.493V175.704Z" fill="#6C63FF"/>
<path d="M101.711 141.846C101.711 141.846 120.346 120.802 130.417 120.847C130.417 120.847 115.707 148.967 100.943 148.709L101.711 141.846Z" fill="#6C63FF"/>
<path d="M108.009 119.304L126.013 75.4678C126.013 75.4678 126.911 115.094 105.719 127.436L108.009 119.304Z" fill="#6C63FF"/>
<path d="M115.319 70.961C115.319 70.961 118.3 34.3519 116.384 31.3727C116.384 31.3727 129.253 61.8106 115.197 87.1338L115.319 70.961Z" fill="#6C63FF"/>
<path d="M53.9589 451.743C53.9589 451.743 35.2932 440.183 23.2068 468.463C23.2068 468.463 39.8189 479.483 56.1572 458.955L53.9589 451.743Z" fill="#6C63FF"/>
<path d="M45.7517 420.195C45.7517 420.195 22.8569 409.761 11.7517 439.287C11.7517 439.287 29.4363 451.446 47.8359 427.659L45.7517 420.195Z" fill="#6C63FF"/>
<path d="M42.306 393.763C42.306 393.763 25.9069 374.603 1.23218 393.763C1.23218 393.763 16.7794 410.574 42.306 398.657V393.763Z" fill="#6C63FF"/>
<path d="M40.2524 363.484C40.2524 363.484 23.6403 343.481 0 362.42C0 362.42 18.7419 380.083 40.2524 368.166V363.484Z" fill="#6C63FF"/>
<path d="M42.3062 338.891C42.3062 338.891 30.6533 310.049 5.32446 322.452C5.32446 322.452 19.0157 348.026 41.2717 343.679L42.3062 338.891Z" fill="#6C63FF"/>
<path d="M47.8205 308.438C47.8205 308.438 36.2362 279.094 10.5498 292.698C10.5498 292.698 26.2796 319.594 46.6796 312.967L47.8205 308.438Z" fill="#6C63FF"/>
<path d="M55.001 282.286C55.001 282.286 50.4372 250.115 29.1396 247.235C29.1396 247.235 33.6578 281.161 52.1334 288.085L55.001 282.286Z" fill="#6C63FF"/>
<path d="M60.736 257.138C60.736 257.138 58.9562 218.378 41.3477 217.025C41.3477 217.025 41.9409 246.445 58.7508 262.625L60.736 257.138Z" fill="#6C63FF"/>
<path d="M73.0887 226.92C73.0887 226.92 67.8404 194.689 51.0305 190.752C51.0305 190.752 53.1146 221.965 71.4229 234.832L73.0887 226.92Z" fill="#6C63FF"/>
<path d="M83.2736 201.08C83.2736 201.08 83.0986 167.504 72.8301 162.571C72.8301 162.571 66.4637 192.971 80.2995 205.367L83.2736 201.08Z" fill="#6C63FF"/>
<path d="M91.861 175.324C91.861 175.324 90.4234 140.752 79.7899 135.88C79.7899 135.88 76.1541 163.24 90.2713 177.589L91.861 175.324Z" fill="#6C63FF"/>
<path d="M103.194 144.605C103.194 144.605 103.134 116.485 95.5425 109.888C95.5425 109.888 87.9971 140.691 99.2315 150.259L103.194 144.605Z" fill="#6C63FF"/>
<path d="M107.119 117.921L99.7334 71.1206C99.7334 71.1206 89.7007 109.47 107.469 126.372L107.119 117.921Z" fill="#6C63FF"/>
<path d="M108.557 71.4018C108.557 71.4018 89.6018 39.9379 89.9898 36.4419C89.9898 36.4419 92.0054 69.4182 115.851 85.8418L108.557 71.4018Z" fill="#6C63FF"/>
<path d="M110.778 62.1071C110.778 62.1071 92.8878 17.4192 84.7947 13.8016C84.7947 13.8016 110.352 26.7823 112.269 60.8303L110.778 62.1071Z" fill="#6C63FF"/>
<path d="M100.852 148.975L99.627 148.602C114.725 99.4077 118.49 68.0426 110.238 60.1766L111.112 59.2495C119.867 67.5486 116.315 98.5718 100.852 148.975Z" fill="#444053"/>
<path d="M59.2756 264.16L57.4653 263.514C59.0703 259.007 60.7969 254.432 62.6072 249.925C78.3674 210.679 91.7848 174.169 100.388 146.14L101.962 145.38C93.3441 173.462 80.1624 211.371 64.387 250.67C62.5843 255.093 60.8653 259.646 59.2756 264.16Z" fill="#444053"/>
<path d="M97.3678 534.932C97.1244 534.666 72.655 507.131 55.5942 460.126C45.5975 432.606 40.0341 403.675 39.1114 374.413C37.94 337.834 45.6223 296.992 58.7812 259.889L60.2112 261.561C30.6684 344.834 42.4049 416.19 57.9749 459.16C74.8532 505.741 99.0488 532.971 99.2846 533.245L97.3678 534.932Z" fill="#444053"/>
<path d="M479.75 476.473C479.75 476.473 462.507 497.502 476.198 529.293L338.525 588.953L325.313 591.719L319.228 565.119L323.297 531.55V513.204L479.75 476.473Z" fill="#D5D6DB"/>
<path d="M44.9988 462.884L235.551 428.175L488.041 468.364L331.215 524.779L44.9988 462.884Z" fill="#6C63FF"/>
<path d="M44.9988 462.884L235.551 428.175L488.041 468.364L331.215 524.779L44.9988 462.884Z" fill="#6C63FF"/>
<path d="M44.9987 462.877C44.9987 462.877 27.1772 496.613 47.7141 527.773L330.287 588.953C330.287 588.953 312.747 562.079 331.192 524.779L44.9987 462.877Z" fill="#6C63FF"/>
<path opacity="0.1" d="M44.9987 462.877C44.9987 462.877 27.1772 496.613 47.7141 527.773L330.287 588.953C330.287 588.953 312.747 562.079 331.192 524.779L44.9987 462.877Z" fill="black"/>
<path opacity="0.1" d="M53.4189 474.573C53.4189 474.573 43.2341 499.258 53.4189 515.233V474.573Z" fill="black"/>
<path d="M330.287 588.953L488.041 521.693C488.041 521.693 496.865 523.593 491.16 530.053C485.455 536.513 333.33 595.413 333.33 595.413L47.7141 527.773L330.287 588.953Z" fill="#6C63FF"/>
<path opacity="0.1" d="M330.287 588.953L488.041 521.693C488.041 521.693 496.865 523.593 491.16 530.053C485.455 536.513 333.33 595.413 333.33 595.413L47.7141 527.773L330.287 588.953Z" fill="black"/>
<path opacity="0.1" d="M317.357 531.573C317.357 531.573 302.144 549.813 317.357 577.173V531.573Z" fill="black"/>
<path opacity="0.1" d="M391.006 531.265L322.771 554.011L323.011 554.732L391.247 531.986L391.006 531.265Z" fill="black"/>
<path opacity="0.1" d="M404.673 529.001L322.749 560.128L323.02 560.838L404.944 529.711L404.673 529.001Z" fill="black"/>
<path opacity="0.1" d="M417.225 528.892L323.206 567.343L323.494 568.047L417.513 529.595L417.225 528.892Z" fill="black"/>
<path opacity="0.1" d="M430.874 525.599L324.304 573.7L324.617 574.393L431.187 526.292L430.874 525.599Z" fill="black"/>
<path opacity="0.1" d="M442.341 525.615L325.147 576.798L325.452 577.494L442.645 526.312L442.341 525.615Z" fill="black"/>
<path opacity="0.1" d="M467.422 521.359L326.915 581.996L327.216 582.693L467.724 522.057L467.422 521.359Z" fill="black"/>
<path opacity="0.3" d="M115.79 466.593L249.661 438.473L331.215 454.053L221.517 489.393L115.79 466.593Z" fill="white"/>
<path d="M488.041 468.364C488.041 468.364 494.963 471.153 490.901 475.462C486.84 479.772 331.192 524.779 331.192 524.779L488.041 468.364Z" fill="#6C63FF"/>
<path d="M555.273 403.377C555.273 403.377 538.037 424.398 551.728 456.196L414.055 515.856L400.843 518.638L394.758 492.038L398.888 458.476V440.107L555.273 403.377Z" fill="#D5D6DB"/>
<path d="M120.529 389.78L311.074 355.079L563.572 395.267L406.745 451.682L120.529 389.78Z" fill="#3A3768"/>
<path d="M120.499 389.78C120.499 389.78 102.67 423.517 123.206 454.676L405.779 515.856C405.779 515.856 388.247 488.96 406.715 451.674L120.499 389.78Z" fill="#3A3768"/>
<path opacity="0.1" d="M120.499 389.78C120.499 389.78 102.67 423.517 123.206 454.676L405.779 515.856C405.779 515.856 388.247 488.96 406.715 451.674L317.357 432.348L120.499 389.78Z" fill="black"/>
<path opacity="0.1" d="M128.942 401.477C128.942 401.477 118.764 426.154 128.942 442.136V401.477Z" fill="black"/>
<path d="M405.81 515.856L563.572 448.596C563.572 448.596 572.387 450.496 566.683 456.956C560.978 463.416 408.852 522.316 408.852 522.316L123.237 454.676L405.81 515.856Z" fill="#3A3768"/>
<path opacity="0.1" d="M405.81 515.856L563.572 448.596C563.572 448.596 572.387 450.496 566.683 456.956C560.978 463.416 408.852 522.316 408.852 522.316L123.237 454.676L405.81 515.856Z" fill="black"/>
<path opacity="0.1" d="M392.879 458.476C392.879 458.476 377.667 476.716 392.879 504.076V458.476Z" fill="black"/>
<path opacity="0.1" d="M466.534 458.176L398.299 480.922L398.54 481.643L466.775 458.897L466.534 458.176Z" fill="black"/>
<path opacity="0.1" d="M480.211 455.909L398.287 487.036L398.558 487.746L480.482 456.619L480.211 455.909Z" fill="black"/>
<path opacity="0.1" d="M492.752 455.789L398.733 494.241L399.022 494.944L493.04 456.493L492.752 455.789Z" fill="black"/>
<path opacity="0.1" d="M506.41 452.498L399.84 500.599L400.153 501.292L506.723 453.191L506.41 452.498Z" fill="black"/>
<path opacity="0.1" d="M517.866 452.504L400.672 503.687L400.977 504.383L518.17 453.201L517.866 452.504Z" fill="black"/>
<path opacity="0.1" d="M542.953 448.248L402.445 508.885L402.747 509.583L543.255 448.946L542.953 448.248Z" fill="black"/>
<path opacity="0.45" d="M191.321 393.497L325.191 365.377L406.745 380.957L297.048 416.297L191.321 393.497Z" fill="white"/>
<path d="M563.571 395.267C563.571 395.267 570.486 398.057 566.431 402.358C562.377 406.66 406.745 451.674 406.745 451.674L563.571 395.267Z" fill="#3A3768"/>
<path d="M562.423 319.754C562.423 319.754 545.18 357.503 558.871 389.294L421.197 432.234L408.016 435.023L401.931 408.423L406 374.854V356.485L562.423 319.754Z" fill="#D5D6DB"/>
<path d="M127.702 306.165L318.254 271.456L570.752 311.645L413.918 368.059L127.702 306.165Z" fill="#6C63FF"/>
<path d="M127.702 306.158C127.702 306.158 109.85 339.894 130.387 371.054L412.96 432.234C412.96 432.234 395.42 405.337 413.888 368.059L127.702 306.158Z" fill="#6C63FF"/>
<path opacity="0.1" d="M127.702 306.158C127.702 306.158 109.85 339.894 130.387 371.054L412.96 432.234C412.96 432.234 395.42 405.337 413.888 368.059L127.702 306.158Z" fill="black"/>
<path opacity="0.1" d="M136.122 317.854C136.122 317.854 125.937 342.539 136.122 358.514V317.854Z" fill="black"/>
<path d="M412.99 432.234L570.744 381.694C570.744 381.694 579.568 383.594 573.863 390.054C568.158 396.514 416.033 438.694 416.033 438.694L130.417 371.054L412.99 432.234Z" fill="#6C63FF"/>
<path opacity="0.1" d="M412.99 432.234L570.744 381.694C570.744 381.694 579.568 383.594 573.863 390.054C568.158 396.514 416.033 438.694 416.033 438.694L130.417 371.054L412.99 432.234Z" fill="black"/>
<path opacity="0.1" d="M400.06 374.854C400.06 374.854 384.847 393.094 400.06 420.454V374.854Z" fill="black"/>
<path opacity="0.1" d="M473.717 374.552L405.482 397.298L405.722 398.019L473.958 375.273L473.717 374.552Z" fill="black"/>
<path opacity="0.1" d="M487.388 372.289L405.465 403.416L405.735 404.126L487.659 372.999L487.388 372.289Z" fill="black"/>
<path opacity="0.1" d="M499.922 372.173L405.904 410.624L406.192 411.327L500.21 372.876L499.922 372.173Z" fill="black"/>
<path opacity="0.1" d="M513.591 368.875L407.021 416.976L407.334 417.668L513.904 369.568L513.591 368.875Z" fill="black"/>
<path opacity="0.1" d="M525.05 368.888L407.857 420.071L408.162 420.767L525.355 369.585L525.05 368.888Z" fill="black"/>
<path opacity="0.1" d="M550.136 364.637L409.628 425.274L409.929 425.971L550.437 365.335L550.136 364.637Z" fill="black"/>
<path opacity="0.3" d="M198.493 309.874L332.364 281.754L413.918 297.334L304.221 332.674L198.493 309.874Z" fill="white"/>
<path d="M570.744 311.645C570.744 311.645 577.666 314.434 573.604 318.743C569.543 323.052 413.918 368.059 413.918 368.059L570.744 311.645Z" fill="#6C63FF"/>
<path d="M236.114 80.9398C236.114 80.9398 207.21 79.1994 210.587 99.4609C210.587 99.4609 209.91 103.041 213.158 104.667C213.158 104.667 213.211 103.147 216.125 103.671C217.164 103.85 218.222 103.901 219.274 103.823C220.692 103.726 222.04 103.172 223.115 102.243C223.115 102.243 231.246 98.8833 234.41 85.5986C234.41 85.5986 236.753 82.703 236.692 81.9582L231.794 84.0406C231.794 84.0406 233.459 87.5594 232.151 90.4854C232.151 90.4854 231.991 84.1698 231.048 84.3142C230.858 84.3142 228.515 85.5378 228.515 85.5378C228.515 85.5378 231.383 91.671 229.215 96.1245C229.215 96.1245 230.036 88.5702 227.618 85.9786L224.18 87.985C224.18 87.985 227.534 94.3158 225.26 99.4837C225.26 99.4837 225.845 91.557 223.457 88.4714L220.338 90.9034C220.338 90.9034 223.495 97.143 221.571 101.429C221.571 101.429 221.32 92.203 219.669 91.5038C219.669 91.5038 216.938 93.9054 216.528 94.8934C216.528 94.8934 218.688 99.4533 217.342 101.817C217.342 101.817 216.528 95.6685 215.82 95.6381C215.82 95.6381 213.105 99.7117 212.823 102.478C212.955 99.8991 213.76 97.3994 215.159 95.2278C213.594 95.5236 212.15 96.2714 211.006 97.3785C211.006 97.3785 211.424 94.4981 215.836 94.2473C215.836 94.2473 218.079 91.1542 218.68 90.9718C218.68 90.9718 214.291 90.5994 211.637 91.7774C211.637 91.7774 213.98 89.0642 219.479 90.2574L222.521 87.7494C222.521 87.7494 216.756 86.9894 214.307 87.833C214.307 87.833 217.129 85.4314 223.351 87.1794L226.705 85.1806C226.705 85.1806 221.784 84.1242 218.855 84.5042C218.855 84.5042 221.943 82.8398 227.686 84.641L230.074 83.5694C230.074 83.5694 226.477 82.8626 225.419 82.7486C224.362 82.6346 224.309 82.3458 224.309 82.3458C226.592 81.9711 228.935 82.2341 231.079 83.1058C231.079 83.1058 236.213 81.259 236.114 80.9398Z" fill="#6C63FF"/>
<path opacity="0.1" d="M642.745 164.22C642.745 164.22 613.841 162.48 617.219 182.742C617.219 182.742 616.542 186.321 619.789 187.948C619.789 187.948 619.843 186.428 622.756 186.952C623.796 187.126 624.853 187.177 625.905 187.104C627.31 187 628.644 186.446 629.708 185.523C629.708 185.523 637.847 182.164 641.003 168.879C641.003 168.879 643.346 165.984 643.285 165.239L638.402 167.321C638.402 167.321 640.068 170.84 638.76 173.766C638.76 173.766 638.6 167.45 637.664 167.595C637.474 167.595 635.124 168.818 635.124 168.818C635.124 168.818 637.991 174.952 635.831 179.405C635.831 179.405 636.653 171.851 634.226 169.259L630.788 171.266C630.788 171.266 634.143 177.596 631.868 182.764C631.868 182.764 632.454 174.838 630.066 171.752L626.955 174.184C626.955 174.184 630.104 180.424 628.179 184.71C628.179 184.71 627.928 175.484 626.278 174.784C626.278 174.784 623.555 177.186 623.136 178.174C623.136 178.174 625.296 182.734 623.958 185.098C623.958 185.098 623.136 178.949 622.436 178.919C622.436 178.919 619.721 182.992 619.44 185.759C619.571 183.179 620.379 180.678 621.782 178.508C620.215 178.805 618.769 179.552 617.622 180.659C617.622 180.659 618.048 177.779 622.452 177.528C622.452 177.528 624.696 174.435 625.296 174.245C625.296 174.245 620.915 173.88 618.253 175.058C618.253 175.058 620.596 172.345 626.095 173.538L629.138 171.03C629.138 171.03 623.364 170.27 620.923 171.114C620.923 171.114 623.737 168.712 629.967 170.46L633.313 168.461C633.313 168.461 628.392 167.405 625.464 167.785C625.464 167.785 628.552 166.12 634.295 167.922L636.691 166.85C636.691 166.85 633.085 166.143 632.028 166.029C630.971 165.915 630.917 165.626 630.917 165.626C633.201 165.247 635.545 165.51 637.687 166.386C637.687 166.386 642.836 164.54 642.745 164.22Z" fill="#6C63FF"/>
<path opacity="0.1" d="M284.794 206.111C284.794 206.111 272.198 180.021 256.164 192.88C256.164 192.88 252.703 194.035 252.871 197.66C252.871 197.66 254.202 196.969 255.153 199.765C255.508 200.754 255.977 201.698 256.552 202.577C257.33 203.77 258.476 204.677 259.815 205.161C259.815 205.161 266.714 210.618 279.865 206.894C279.865 206.894 283.539 207.525 284.14 207.084L279.941 203.839C279.941 203.839 277.659 207.008 274.48 207.289C274.48 207.289 279.926 204.075 279.34 203.33C279.219 203.178 277.059 201.711 277.059 201.711C277.059 201.711 273.096 207.206 268.152 207.487C268.152 207.487 275.149 204.523 276.229 201.141L272.807 199.12C272.807 199.12 268.905 205.139 263.284 205.671C263.284 205.671 270.494 202.319 272.023 198.732L268.387 197.212C268.387 197.212 264.47 203.003 259.785 203.421C259.785 203.421 267.726 198.701 267.528 196.915C267.528 196.915 264.097 195.715 263.033 195.829C263.033 195.829 260.127 199.925 257.389 199.925C257.389 199.925 262.356 196.209 262.051 195.608C262.051 195.608 257.168 195.228 254.597 196.368C256.914 195.218 259.492 194.694 262.074 194.848C261.05 193.628 259.691 192.732 258.165 192.272C258.165 192.272 260.888 191.238 263.253 194.955C263.253 194.955 267.056 195.403 267.505 195.836C267.505 195.836 265.687 191.839 263.367 190.098C263.367 190.098 266.881 190.805 268.486 196.178L272.175 197.638C272.175 197.638 270.053 192.226 268.098 190.516C268.098 190.516 271.567 191.801 273.08 198.116L276.458 200.062C276.458 200.062 274.99 195.251 273.225 192.888C273.225 192.888 276.184 194.772 277.408 200.655L279.515 202.22C279.515 202.22 278.374 198.732 277.994 197.759C277.614 196.786 277.804 196.589 277.804 196.589C279.251 198.393 280.167 200.564 280.451 202.859C280.451 202.859 284.52 206.339 284.794 206.111Z" fill="#6C63FF"/>
<path opacity="0.1" d="M576.708 127.36C576.708 127.36 564.119 101.27 548.078 114.129C548.078 114.129 544.624 115.284 544.784 118.909C544.784 118.909 546.123 118.225 547.066 121.014C547.421 122.007 547.893 122.954 548.473 123.834C549.249 125.024 550.392 125.929 551.729 126.41C551.729 126.41 558.635 131.867 571.779 128.151C571.779 128.151 575.453 128.774 576.061 128.333L571.885 125.08C571.885 125.08 569.603 128.257 566.432 128.538C566.432 128.538 571.87 125.316 571.284 124.571C571.163 124.419 569.003 122.952 569.003 122.952C569.003 122.952 565.047 128.447 560.096 128.728C560.096 128.728 567.101 125.764 568.181 122.39L564.705 120.384C564.705 120.384 560.811 126.395 555.182 126.935C555.182 126.935 562.393 123.576 563.929 119.988L560.286 118.468C560.286 118.468 556.369 124.267 551.691 124.678C551.691 124.678 559.624 119.958 559.426 118.18C559.426 118.18 556.003 116.971 554.939 117.093C554.939 117.093 552.033 121.182 549.287 121.182C549.287 121.182 554.262 117.465 553.957 116.865C553.957 116.865 549.074 116.485 546.496 117.625C548.812 116.474 551.39 115.95 553.973 116.105C552.952 114.883 551.595 113.988 550.071 113.529C550.071 113.529 552.794 112.495 555.159 116.211C555.159 116.211 558.962 116.667 559.411 117.1C559.411 117.1 557.593 113.095 555.266 111.355C555.266 111.355 558.78 112.069 560.385 117.473L564.081 118.932C564.081 118.932 561.959 113.513 560.004 111.803C560.004 111.803 563.473 113.088 564.979 119.403L568.364 121.349C568.364 121.349 566.888 116.546 565.123 114.174C565.123 114.174 568.09 116.059 569.307 121.942L571.414 123.507C571.414 123.507 570.28 120.019 569.892 119.046C569.505 118.073 569.702 117.883 569.702 117.883C571.145 119.689 572.059 121.86 572.342 124.153C572.342 124.153 576.472 127.604 576.708 127.36Z" fill="#6C63FF"/>
<path opacity="0.1" d="M616.937 256.416C616.937 256.416 604.349 230.317 588.284 243.177C588.284 243.177 584.831 244.332 584.991 247.957C584.991 247.957 586.329 247.273 587.273 250.062C587.625 251.055 588.095 252.001 588.672 252.882C589.448 254.072 590.591 254.976 591.928 255.458C591.928 255.458 598.834 260.923 611.985 257.199C611.985 257.199 615.652 257.829 616.26 257.381L612.062 254.136C612.062 254.136 609.78 257.313 606.6 257.594C606.6 257.594 612.039 254.371 611.453 253.627C611.331 253.475 609.171 252.008 609.171 252.008C609.171 252.008 605.216 257.503 600.264 257.791C600.264 257.791 607.27 254.82 608.35 251.445L604.919 249.424C604.919 249.424 601.025 255.443 595.396 255.975C595.396 255.975 602.607 252.616 604.143 249.029L600.5 247.509C600.5 247.509 596.583 253.3 591.905 253.718C591.905 253.718 599.846 248.998 599.648 247.212C599.648 247.212 596.218 246.004 595.153 246.125C595.153 246.125 592.247 250.214 589.501 250.214C589.501 250.214 594.476 246.498 594.172 245.897C594.172 245.897 589.288 245.517 586.71 246.657C589.029 245.507 591.61 244.983 594.194 245.137C593.172 243.914 591.813 243.018 590.285 242.561C590.285 242.561 593.008 241.52 595.373 245.244C595.373 245.244 599.176 245.692 599.625 246.125C599.625 246.125 597.807 242.128 595.487 240.38C595.487 240.38 599.002 241.094 600.606 246.498L604.295 247.957C604.295 247.957 602.173 242.538 600.219 240.836C600.219 240.836 603.687 242.113 605.193 248.436L608.578 250.374C608.578 250.374 607.102 245.571 605.338 243.199C605.338 243.199 608.304 245.084 609.529 250.974L611.636 252.494C611.636 252.494 610.495 249.006 610.114 248.033C609.734 247.06 609.924 246.87 609.924 246.87C611.37 248.674 612.285 250.846 612.564 253.14C612.564 253.14 616.701 256.644 616.937 256.416Z" fill="#6C63FF"/>
<path opacity="0.1" d="M153.609 595.96C163.266 595.96 171.095 595.086 171.095 594.007C171.095 592.928 163.266 592.054 153.609 592.054C143.951 592.054 136.122 592.928 136.122 594.007C136.122 595.086 143.951 595.96 153.609 595.96Z" fill="#6C63FF"/>
<path opacity="0.1" d="M38.9746 562.763C48.6323 562.763 56.4614 561.889 56.4614 560.81C56.4614 559.731 48.6323 558.857 38.9746 558.857C29.3169 558.857 21.4878 559.731 21.4878 560.81C21.4878 561.889 29.3169 562.763 38.9746 562.763Z" fill="#6C63FF"/>
<path opacity="0.1" d="M240.99 618.008C250.647 618.008 258.476 617.133 258.476 616.054C258.476 614.976 250.647 614.101 240.99 614.101C231.332 614.101 223.503 614.976 223.503 616.054C223.503 617.133 231.332 618.008 240.99 618.008Z" fill="#6C63FF"/>
<path opacity="0.1" d="M688.771 569.983C698.428 569.983 706.258 569.109 706.258 568.03C706.258 566.951 698.428 566.077 688.771 566.077C679.113 566.077 671.284 566.951 671.284 568.03C671.284 569.109 679.113 569.983 688.771 569.983Z" fill="#6C63FF"/>
<path opacity="0.1" d="M543.255 560.506C552.913 560.506 560.742 559.632 560.742 558.553C560.742 557.474 552.913 556.6 543.255 556.6C533.597 556.6 525.768 557.474 525.768 558.553C525.768 559.632 533.597 560.506 543.255 560.506Z" fill="#6C63FF"/>
<path opacity="0.1" d="M449.12 606.729C460.542 606.729 469.801 605.14 469.801 603.18C469.801 601.22 460.542 599.631 449.12 599.631C437.698 599.631 428.438 601.22 428.438 603.18C428.438 605.14 437.698 606.729 449.12 606.729Z" fill="#6C63FF"/>
<path d="M458.346 567.506C458.346 567.506 429.549 582.371 444.427 599.882C444.427 599.882 445.826 603.682 449.873 603.416C449.873 603.416 449.067 601.941 452.155 600.763C453.254 600.339 454.298 599.785 455.266 599.114C456.574 598.211 457.551 596.906 458.05 595.398C458.05 595.398 463.937 587.524 459.373 572.955C459.373 572.955 459.966 568.836 459.449 568.167L455.95 572.963C455.95 572.963 459.563 575.387 459.982 578.951C459.982 578.951 456.179 572.97 455.418 573.631C455.251 573.768 453.684 576.253 453.684 576.253C453.684 576.253 459.951 580.502 460.415 586.019C460.415 586.019 456.886 578.29 453.075 577.188L450.892 581.079C450.892 581.079 457.738 585.244 458.498 591.507C458.498 591.507 454.52 583.565 450.459 581.961L448.854 586.073C448.854 586.073 455.456 590.268 456.064 595.481C456.064 595.481 450.542 586.764 448.557 587.038C448.557 587.038 447.31 590.899 447.477 592.092C447.477 592.092 452.14 595.208 452.223 598.27C452.223 598.27 447.918 592.837 447.256 593.194C447.256 593.194 446.983 598.658 448.306 601.5C448.306 601.5 446.024 597.442 446.397 593.194C445.063 594.372 444.103 595.915 443.636 597.632C443.636 597.632 442.396 594.63 446.481 591.864C446.481 591.864 446.868 587.615 447.34 587.091C447.34 587.091 442.921 589.249 441.042 591.894C441.042 591.894 441.734 587.95 447.728 585.989L449.249 581.824C449.249 581.824 443.256 584.363 441.407 586.597C441.407 586.597 442.738 582.683 449.721 580.806L451.79 577.006C451.79 577.006 446.465 578.799 443.864 580.806C443.864 580.806 445.88 577.439 452.429 575.889L454.11 573.495C454.11 573.495 450.246 574.87 449.166 575.364C448.085 575.858 447.873 575.615 447.873 575.615C449.847 573.946 452.245 572.857 454.802 572.469C454.802 572.469 458.613 567.764 458.346 567.506Z" fill="#6C63FF"/>
<path d="M543.818 286.74C538.844 273.234 511.461 271.965 499.58 275.408C491.137 277.863 473.338 280.629 463.831 282.02L463.214 281.435C464.447 281.07 464.477 280.173 464.325 278.843C464.236 277.09 464.262 275.334 464.401 273.584C470.227 275.393 475.415 271.114 475.415 271.114C482.261 268.074 480.42 255.063 481.728 251.506C482.709 248.846 483.767 233.175 484.238 225.362H484.337L484.39 222.74C484.459 221.608 484.489 220.947 484.489 220.947C484.489 220.947 485.159 201.84 486.467 197.972C487.684 194.415 488.673 176.494 488.825 173.652C488.825 173.409 488.825 173.28 488.825 173.28L488.726 171.623C488.794 170.414 488.825 169.069 488.817 167.656C488.817 161.158 488.14 152.972 488.057 151.65C488.057 151.46 488.057 151.232 488.057 150.958C488.11 148.184 487.76 134.292 475.932 129.04C471.574 127.094 466.333 124.776 461.26 122.519C459.951 111.233 456.962 100.008 457.221 88.6386C457.221 86.9286 457.373 85.2186 457.54 83.5162C457.54 84.0102 457.487 84.5118 457.479 85.0362C457.479 86.1382 457.479 87.2478 457.479 88.3498C457.928 74.1302 463.306 59.8347 462.804 45.9191C462.758 47.2795 462.659 48.6475 462.53 50.0155C462.793 45.3087 462.299 40.5902 461.07 36.0391C460.613 34.4355 459.997 32.7787 458.681 31.7071C457.437 30.8441 456.011 30.2797 454.513 30.0579C450.914 29.1374 447.257 28.457 443.567 28.0211C443.007 26.3064 442.175 24.6925 441.103 23.2408C433.39 12.6616 421.966 2.7208 408.457 0.440809C401.68 -0.699188 393.883 0.250809 389.274 5.092C388.793 5.51728 388.34 5.9743 387.92 6.45999C385.44 9.41638 384.375 13.3 381.835 16.2488C381.668 16.4464 381.477 16.6288 381.295 16.8188C376.32 21.2648 368.57 22.192 363.04 26.1819C362.065 26.8982 361.152 27.6939 360.309 28.5607C358.081 30.767 356.083 33.1937 354.346 35.8035C351.859 39.2995 349.303 42.9399 348.512 47.1123C346.922 55.4723 352.619 63.3991 353.677 71.8122C356.034 90.6374 335.186 107.342 339.133 125.916C340.187 130.48 342.513 134.651 345.842 137.947C337.711 145.304 330.789 152.44 330.789 152.44V152.866H329.504L329.633 154.386H329.504L330.211 162.632L329.504 174.64C329.504 174.64 329.504 174.769 329.504 175.012V175.073V175.4C329.504 175.4 329.504 175.529 329.504 175.772H329.549C329.785 180.173 330.721 195.996 331.831 199.332C333.14 203.201 333.801 222.307 333.801 222.307C333.801 222.307 335.247 249.31 336.57 252.882C337.894 256.454 336.015 269.427 342.883 272.49C344.893 274.03 347.272 275.015 349.782 275.347C349.432 278.19 349.653 280.249 350.786 280.895C351.271 281.18 351.821 281.337 352.383 281.351C351.917 282.042 351.503 282.766 351.144 283.517C348.417 283.233 345.739 282.602 343.172 281.64C335.794 278.6 311.31 271.76 304.198 276.571C297.086 281.382 279.972 285.744 287.875 305.109C295.778 324.474 299.459 324.96 299.459 324.96C301.892 326.724 304.026 328.867 305.78 331.306C308.153 334.87 330.264 343.025 335.794 343.025C338.145 342.989 340.495 343.106 342.83 343.375C342.83 343.375 336.829 348.634 337.627 351.689C338.426 354.744 335.802 379.201 335.802 379.201C335.802 379.201 341.887 385.327 344.488 377.293L344.579 377.415C345.066 378.076 347.698 381.063 352.65 377.293C354.676 375.757 356.829 374.395 359.085 373.22L383.06 369.83C385.559 369.674 388.065 369.656 390.567 369.777C394.37 370.089 398.105 367.839 400.455 366.099C405.422 367.983 411.005 370.043 413.66 370.795C419.045 372.315 443.796 378.95 449.584 376.875C450.787 376.397 451.857 375.636 452.703 374.656L458.225 374.831L455.639 375.348C455.639 375.348 460.674 375.431 467.52 375.523L467.231 375.69L475.818 375.614C488.384 375.728 502.501 375.766 504.357 375.348C507.262 374.702 522.361 375.158 526.811 375.348H528.05C528.05 375.348 544.64 372.042 537.794 355.223C532.53 342.303 516.352 338.549 509.172 337.515C511.195 337.112 512.937 336.801 514.093 336.618C519.105 335.858 528.841 331.298 529.632 329.74C530.424 328.182 538.585 323.66 540.692 321.084C542.799 318.508 548.815 300.245 543.818 286.74ZM406.411 324.534L405.597 324.8L405.049 324.983L404 326.016C403.163 325.454 402.265 324.861 401.33 324.253C402.98 324.352 404.677 324.451 406.411 324.534Z" fill="url(#paint0_linear)"/>
<path d="M454.908 244.4C454.908 244.4 466.546 274.8 473.163 271.76C479.781 268.72 477.986 255.8 479.248 252.259C480.511 248.717 481.911 221.859 481.911 221.859C481.911 221.859 482.55 202.859 483.812 199.013C484.984 195.479 485.934 177.657 486.094 174.853C486.094 174.61 486.094 174.48 486.094 174.48L484.839 152.44L477.735 150.67L461.26 156.75L458.978 169.768L458.088 174.853L457.708 177.019L454.908 244.4Z" fill="#BE6F72"/>
<path opacity="0.1" d="M458.742 239.308C458.742 239.308 469.847 248.39 473.194 249.188C476.541 249.986 478.594 257.069 478.594 257.069" fill="black"/>
<path d="M363.899 245.73C363.899 245.73 352.262 276.13 345.644 273.09C339.027 270.05 340.822 257.13 339.559 253.589C338.297 250.047 336.897 223.189 336.897 223.189C336.897 223.189 336.258 204.189 334.996 200.343C333.824 196.809 332.873 178.987 332.714 176.183C332.714 175.94 332.714 175.81 332.714 175.81L333.976 153.77L341.081 152L357.556 158.08L359.838 171.098L360.728 176.183L361.108 178.349L363.899 245.73Z" fill="#BE6F72"/>
<path d="M439.681 83.045H413.705V123.5H439.681V83.045Z" fill="#3E373A"/>
<path opacity="0.1" d="M439.681 83.045H413.705V123.5H439.681V83.045Z" fill="black"/>
<path d="M359.336 276.008C359.336 276.008 350.459 285.759 353.753 287.53C357.046 289.301 378.351 322.49 378.351 322.49C378.351 322.49 448.329 331.101 461.526 318.181C474.723 305.261 474.456 282.18 474.456 282.18C474.456 282.18 463.853 284.46 462.697 283.221C461.541 281.982 455.19 276.008 455.19 276.008C455.19 276.008 365.421 270.567 359.336 276.008Z" fill="#4B4B5B"/>
<path opacity="0.02" d="M359.336 276.008C359.336 276.008 350.459 285.759 353.753 287.53C357.046 289.301 378.351 322.49 378.351 322.49C378.351 322.49 448.329 331.101 461.526 318.181C474.723 305.261 474.456 282.18 474.456 282.18C474.456 282.18 463.853 284.46 462.697 283.221C461.541 281.982 455.19 276.008 455.19 276.008C455.19 276.008 365.421 270.567 359.336 276.008Z" fill="black"/>
<path d="M485.311 152.76L462.492 171L455.593 171.501L453.06 171.684L410.518 174.8L366.402 171.577L359.837 171.098L351.471 170.49L333.976 153.77C333.976 153.77 346.359 140.516 357.206 131.571C361.48 128.037 365.519 125.179 368.463 124.054L368.965 123.88C370.816 123.158 372.469 122.007 373.787 120.52C382.352 111.697 390.27 89.923 390.27 89.923C390.27 89.923 428.051 70.4214 423.487 96.0029C418.923 121.584 440.472 115.261 440.472 115.261L447.576 118.499L450.383 119.783L457.54 123.059L473.688 130.461C486.36 136.29 485.311 152.76 485.311 152.76Z" fill="#BE6F72"/>
<path opacity="0.1" d="M408.746 110.755C427.511 110.755 442.723 95.555 442.723 76.8054C442.723 58.0558 427.511 42.8563 408.746 42.8563C389.981 42.8563 374.769 58.0558 374.769 76.8054C374.769 95.555 389.981 110.755 408.746 110.755Z" fill="black"/>
<path opacity="0.1" d="M485.364 176.943H332.714C332.714 176.7 332.714 176.57 332.714 176.57L333.976 154.53C333.976 154.53 346.359 141.276 357.206 132.331L453.045 128.531L457.502 123.834L473.65 131.236C486.33 137.058 485.311 153.527 485.311 153.527C485.311 153.527 487.045 172.611 485.364 176.943Z" fill="black"/>
<path d="M485.364 176.183H332.714C332.714 175.94 332.714 175.81 332.714 175.81L333.976 153.77C333.976 153.77 346.359 140.516 357.206 131.571L453.045 127.771L457.502 123.074L473.65 130.476C486.33 136.298 485.311 152.767 485.311 152.767C485.311 152.767 487.045 171.851 485.364 176.183Z" fill="#E7C7CA"/>
<path opacity="0.1" d="M384.276 114.38C384.276 114.38 408.358 145.038 440.434 113.749C472.509 82.4598 443.986 183.54 443.986 183.54L374.769 191.748L384.276 114.38Z" fill="black"/>
<path d="M384.276 115.9C384.276 115.9 408.358 146.558 440.434 115.269C472.509 83.9798 443.986 185.06 443.986 185.06L374.769 193.268L384.276 115.9Z" fill="#E7C7CA"/>
<path opacity="0.1" d="M450.344 121.28L452.893 160.109L455.623 173.029L457.707 182.909C457.707 182.909 463.032 258.909 461.51 262.709C459.989 266.508 462.271 269.548 462.591 271.57C462.91 273.592 462.271 278.668 462.522 280.948C462.773 283.228 462.522 284.239 456.696 283.426C450.869 282.613 442.746 281.199 442.746 281.199C442.746 281.199 422.209 282.719 415.112 280.188C408.016 277.658 394.575 277.65 394.575 277.65C394.575 277.65 374.289 278.159 367.702 277.399C361.115 276.639 357.556 285.508 353.25 282.97C348.945 280.432 358.316 255.869 361.359 248.77C364.401 241.672 357.305 223.69 357.305 223.69L366.432 173.097L368.463 161.629V125.574L368.965 125.4C370.816 124.678 372.469 123.527 373.787 122.04L376.069 158.323L447.568 160.861V120.026" fill="black"/>
<path d="M450.344 119.76L452.893 158.589L455.623 171.509L457.707 181.389C457.707 181.389 463.032 257.388 461.51 261.188C459.989 264.988 462.271 268.028 462.591 270.05C462.91 272.072 462.271 277.148 462.522 279.428C462.773 281.708 462.522 282.719 456.696 281.906C450.869 281.093 442.746 279.679 442.746 279.679C442.746 279.679 422.209 281.199 415.112 278.668C408.016 276.138 394.575 276.13 394.575 276.13C394.575 276.13 374.289 276.639 367.702 275.879C361.115 275.119 357.556 283.988 353.25 281.45C348.945 278.912 358.316 254.348 361.359 247.25C364.401 240.152 357.305 222.17 357.305 222.17L366.432 171.577L368.463 160.109V124.054L368.965 123.88C370.816 123.158 372.469 122.007 373.787 120.52L376.069 156.803L447.568 159.341V118.507" fill="#E7C7CA"/>
<path opacity="0.1" d="M458.567 38.7295C458.133 37.1411 457.533 35.4919 456.285 34.4279C455.094 33.5733 453.718 33.0109 452.269 32.7863C448.8 31.8748 445.272 31.1994 441.711 30.7647C441.203 29.0772 440.433 27.4796 439.43 26.0299C431.975 15.5116 420.946 5.59359 407.97 3.3516C401.178 2.1736 393.305 3.23 388.954 8.58038C386.566 11.5216 385.539 15.4204 383.128 18.3084C378.48 23.9171 370.091 24.6087 364.234 28.9483C361.108 31.2283 358.841 34.5343 356.628 37.7415C354.232 41.2147 351.767 44.8323 351.007 48.9819C349.485 57.2735 354.969 65.1774 355.981 73.545C358.263 92.2638 338.182 108.87 341.978 127.338C344.191 138.107 354.148 145.692 364.447 149.537C368.075 150.898 372.22 152.25 373.917 155.731C374.677 157.251 374.807 159.007 375.522 160.542C377.925 165.664 385.828 165.862 390.072 162.13C394.317 158.399 395.655 152.364 396.157 146.733C398.196 122.139 388.338 97.8421 389.487 73.1878C389.829 65.7322 391.928 57.2735 398.614 53.8991C407.613 49.3391 418.436 56.9391 428.34 55.4875C433.026 66.8809 434.021 79.4553 431.184 91.443C429.61 98.0018 426.887 104.363 426.689 111.127C426.392 121.425 431.953 130.834 436.76 139.938C437.791 141.641 438.481 143.528 438.791 145.494C438.866 147.489 438.495 149.475 437.703 151.308C434.988 158.612 430.302 165.391 429.77 173.166C429.614 174.073 429.818 175.006 430.34 175.765C430.876 176.271 431.568 176.582 432.302 176.646C440.517 178.052 447.622 170.779 451.63 163.476C456.099 155.409 458.703 146.444 459.252 137.24C460.081 121.767 454.528 106.544 454.87 91.0554C455.266 73.4462 463.23 55.7155 458.567 38.7295Z" fill="black"/>
<path d="M459.328 37.9695C458.894 36.3811 458.293 34.7319 457.046 33.6679C455.855 32.8133 454.479 32.2509 453.03 32.0263C449.56 31.1148 446.033 30.4394 442.472 30.0047C441.963 28.3171 441.194 26.7195 440.19 25.2699C432.736 14.7516 421.707 4.83358 408.731 2.59159C401.938 1.41359 394.066 2.46999 389.715 7.82037C387.327 10.7616 386.3 14.6604 383.889 17.5484C379.241 23.1571 370.851 23.8487 364.995 28.1883C361.868 30.4683 359.602 33.7743 357.388 36.9815C354.992 40.4547 352.528 44.0723 351.767 48.2219C350.246 56.5135 355.73 64.4174 356.742 72.785C359.024 91.5038 338.943 108.11 342.739 126.578C344.952 137.347 354.909 144.932 365.208 148.777C368.836 150.138 372.981 151.49 374.677 154.971C375.438 156.491 375.567 158.247 376.282 159.782C378.686 164.904 386.589 165.102 390.833 161.37C395.077 157.639 396.416 151.604 396.918 145.973C398.957 121.379 389.099 97.0821 390.247 72.4278C390.59 64.9722 392.689 56.5134 399.375 53.139C408.373 48.5791 419.197 56.179 429.1 54.7275C433.787 66.1209 434.782 78.6953 431.945 90.683C430.371 97.2417 427.648 103.603 427.45 110.367C427.153 120.665 432.713 130.074 437.52 139.178C438.552 140.881 439.242 142.768 439.551 144.734C439.627 146.729 439.255 148.715 438.464 150.548C435.748 157.852 431.063 164.631 430.53 172.406C430.374 173.313 430.579 174.246 431.101 175.005C431.637 175.511 432.328 175.822 433.063 175.886C441.278 177.292 448.382 170.019 452.391 162.716C456.86 154.649 459.464 145.684 460.012 136.48C460.841 121.007 455.289 105.784 455.631 90.2954C456.027 72.6862 463.99 54.9555 459.328 37.9695Z" fill="#3E373A"/>
<path d="M442.525 374.474L472.699 375.439L468.372 353.08L445.256 355.276L442.525 374.474Z" fill="#C3C7D9"/>
<path d="M536.022 321.479C533.991 324.01 526.133 328.57 525.373 330.09C524.612 331.61 515.234 336.17 510.411 336.93C505.589 337.69 490.384 340.988 487.592 342.759C485.592 344.036 469.535 348.079 458.985 350.321C456.128 350.997 453.236 351.517 450.322 351.879C445.758 352.13 395.815 335.159 395.815 335.159L405.445 325.279L405.977 325.097C408.7 324.177 421.281 319.929 428.264 317.907C436.128 315.627 445.256 306.256 445.256 306.256C445.256 306.256 458.689 301.696 460.469 301.187C462.248 300.678 455.905 283.456 455.905 283.456C455.905 283.456 485.06 279.413 496.469 275.986C507.878 272.558 534.249 273.827 539.064 287.256C543.879 300.686 538.083 318.948 536.022 321.479Z" fill="#4B4B5B"/>
<path d="M403.163 364.29C403.163 364.29 397.336 370.37 391.502 369.868C385.668 369.367 365.268 371.388 365.268 371.388C361.571 372.862 358.11 374.866 354.992 377.339C350.223 381.093 347.69 378.099 347.219 377.461L347.135 377.339C344.594 385.327 338.768 379.239 338.768 379.239C338.768 379.239 341.301 354.919 340.525 351.879C339.749 348.839 345.538 343.618 345.538 343.618L352.383 341.878L369.726 337.439L394.575 346.05L403.163 364.29Z" fill="#E7C7CA"/>
<path opacity="0.1" d="M352.353 341.878L347.219 377.461L347.135 377.339C344.594 385.327 338.768 379.239 338.768 379.239C338.768 379.239 341.301 354.919 340.525 351.879C339.749 348.839 345.538 343.618 345.538 343.618L352.353 341.878Z" fill="black"/>
<path opacity="0.1" d="M388.24 240.661C388.24 240.661 401.672 245.221 413.34 240.661H388.24Z" fill="black"/>
<path opacity="0.1" d="M434.098 249.279C434.098 249.279 439.673 252.061 443.986 249.279H434.098Z" fill="black"/>
<path opacity="0.1" d="M434.098 255.876C434.098 255.876 443.476 257.13 445.256 254.599L434.098 255.876Z" fill="black"/>
<path opacity="0.1" d="M431.055 270.05C431.055 270.05 448.671 267.77 453.045 264.73L431.055 270.05Z" fill="black"/>
<path opacity="0.1" d="M377.302 264.73C377.302 264.73 387.19 270.301 394.545 270.05L377.302 264.73Z" fill="black"/>
<path opacity="0.1" d="M458.978 350.321C456.12 350.997 453.228 351.517 450.314 351.879C445.75 352.13 395.808 335.159 395.808 335.159L405.437 325.279L405.97 325.097C407.491 326.168 408.738 327.088 409.628 327.787C413.819 331.086 417.866 326.776 419.387 326.776C420.908 326.776 434.09 337.667 434.09 337.667C434.09 337.667 446.26 340.456 448.291 342.987C450.322 345.518 457.418 345.016 458.681 346.787C459.061 347.334 459.107 348.68 458.978 350.321Z" fill="black"/>
<path d="M365.268 284.49C365.268 284.49 352.961 285.197 345.865 282.21C338.768 279.223 315.189 272.33 308.343 277.171C301.497 282.012 285.015 286.291 292.621 305.55C300.227 324.808 303.779 325.31 303.779 325.31C306.133 327.073 308.187 329.203 309.864 331.618C312.146 335.167 333.444 343.268 338.768 343.268C344.093 343.268 353.471 343.268 366.653 352.388C379.834 361.508 391.753 362.527 391.753 362.527C391.753 362.527 408.487 369.367 413.698 370.887C418.908 372.407 442.715 378.988 448.298 376.967C453.881 374.945 457.426 362.268 457.426 362.268C457.426 362.268 459.959 350.868 458.689 349.098C457.418 347.327 450.322 347.828 448.298 345.298C446.275 342.767 434.098 339.978 434.098 339.978C434.098 339.978 420.946 329.079 419.425 329.079C417.904 329.079 413.857 333.381 409.666 330.09C401.318 323.912 392.546 318.325 383.417 313.37C373.787 308.301 365.268 284.49 365.268 284.49Z" fill="#4B4B5B"/>
<path opacity="0.1" d="M340.525 291.839C342.717 291.392 344.982 291.456 347.144 292.027C349.306 292.598 351.308 293.66 352.992 295.13C359.077 300.199 379.553 310.376 379.553 310.376" fill="black"/>
<path opacity="0.1" d="M492.666 291.52C492.666 291.52 465.534 295.624 460.469 301.195L492.666 291.52Z" fill="black"/>
<path d="M523.851 375.439H522.657C518.367 375.287 503.832 374.831 501.033 375.439C497.739 376.199 454.125 375.439 454.125 375.439L462.651 373.668C462.651 373.668 459.487 362.587 461.495 361.668C461.495 361.668 450.086 354.159 458.689 349.09C467.291 344.021 476.563 346.156 476.563 346.156L498.158 338.845L502.303 337.439C502.303 337.439 526.643 338.708 533.23 355.428C539.817 372.148 523.851 375.439 523.851 375.439Z" fill="#E7C7CA"/>
<path opacity="0.1" d="M523.852 375.439H522.657C529.739 369.602 545.758 351.833 498.158 338.883L502.303 337.477C502.303 337.477 526.643 338.746 533.23 355.466C539.817 372.186 523.852 375.439 523.852 375.439Z" fill="black"/>
<path d="M479.104 355.74C479.839 355.74 480.435 355.144 480.435 354.41C480.435 353.675 479.839 353.08 479.104 353.08C478.369 353.08 477.773 353.675 477.773 354.41C477.773 355.144 478.369 355.74 479.104 355.74Z" fill="#4B4B5B"/>
<path d="M471.368 357.936C472.103 357.936 472.699 357.341 472.699 356.606C472.699 355.872 472.103 355.276 471.368 355.276C470.633 355.276 470.037 355.872 470.037 356.606C470.037 357.341 470.633 357.936 471.368 357.936Z" fill="#4B4B5B"/>
<g opacity="0.1">
<path opacity="0.1" d="M433.679 75.5514C433.974 67.192 432.486 58.8656 429.313 51.125C419.425 52.5994 408.594 44.9767 399.588 49.5366C392.925 52.911 390.833 61.3698 390.46 68.8254C390.369 70.7938 390.354 72.7622 390.392 74.7306C390.392 74.0314 390.392 73.3246 390.46 72.6254C390.81 65.1698 392.902 56.711 399.588 53.3366C408.594 48.7766 419.41 56.3766 429.313 54.925C432 61.4816 433.479 68.4693 433.679 75.5514Z" fill="black"/>
<path opacity="0.1" d="M357.053 74.1606C357.184 72.5046 357.151 70.8397 356.955 69.1902C356.148 62.5022 352.49 56.1106 351.828 49.5898C350.976 57.4558 355.989 65.0102 356.955 72.9902C357.053 73.4006 357.053 73.7654 357.053 74.1606Z" fill="black"/>
<path opacity="0.1" d="M397.131 142.363C396.659 148.002 395.328 154.029 391.046 157.768C386.764 161.507 378.876 161.302 376.495 156.18C375.735 154.66 375.621 152.889 374.883 151.369C373.194 147.888 369.041 146.535 365.413 145.175C355.106 141.322 345.165 133.775 342.952 122.975C342.754 121.997 342.619 121.007 342.548 120.011C342.361 122.274 342.497 124.551 342.952 126.775C345.165 137.544 355.122 145.122 365.413 148.975C369.041 150.335 373.194 151.688 374.883 155.169C375.643 156.689 375.773 158.444 376.495 159.98C378.891 165.102 386.794 165.3 391.046 161.568C395.298 157.836 396.621 151.802 397.131 146.163C397.363 143.195 397.441 140.217 397.367 137.24C397.367 138.966 397.268 140.668 397.131 142.363Z" fill="black"/>
<path opacity="0.1" d="M455.882 86.693C455.882 87.795 455.882 88.8894 455.882 89.9838C456.308 75.8478 461.495 61.6358 460.986 47.7963C460.59 60.5946 456.171 73.6818 455.882 86.693Z" fill="black"/>
<path opacity="0.1" d="M439.559 143.875C439.746 142.973 439.805 142.05 439.734 141.132C439.427 139.165 438.737 137.277 437.703 135.576C433.306 127.216 428.294 118.658 427.701 109.379C427.701 109.774 427.647 110.139 427.64 110.565C427.335 120.855 432.896 130.271 437.703 139.376C438.52 140.786 439.144 142.299 439.559 143.875Z" fill="black"/>
<path opacity="0.1" d="M460.256 132.878C459.688 142.086 457.065 151.05 452.581 159.113C448.565 166.417 441.468 173.69 433.246 172.284C432.509 172.22 431.816 171.907 431.283 171.395C431.129 171.221 431.008 171.02 430.926 170.802C430.834 171.395 430.758 171.995 430.713 172.603C430.556 173.508 430.76 174.439 431.283 175.195C431.816 175.707 432.509 176.02 433.246 176.084C441.468 177.49 448.565 170.217 452.581 162.913C457.065 154.85 459.688 145.886 460.256 136.678C460.347 134.9 460.354 133.129 460.301 131.358C460.286 131.867 460.286 132.369 460.256 132.878Z" fill="black"/>
</g>
<path opacity="0.1" d="M461.495 361.668C461.495 361.668 480.747 369.739 493.442 351.879" stroke="black" stroke-miterlimit="10"/>
<path opacity="0.1" d="M465.283 375.773C465.283 375.773 481.005 365.559 501.033 375.439" stroke="black" stroke-miterlimit="10"/>
<path opacity="0.1" d="M360.043 373.455C360.043 373.455 366.645 358.575 384.277 369.921" stroke="black" stroke-miterlimit="10"/>
<path opacity="0.1" d="M338.639 153.39L352.102 141.23C352.102 141.23 404.304 137.81 406.464 155.541C406.464 155.541 424.97 134.52 463.891 139.201L480.359 152.304L434.843 172.261L390.613 187.59L358.035 173.021L338.639 153.39Z" fill="black"/>
<path d="M338.639 154.15L352.102 141.99C352.102 141.99 404.304 138.57 406.464 156.301C406.464 156.301 424.97 135.28 463.891 139.961L480.359 153.064L434.843 173.021L390.613 188.35L358.035 173.781L338.639 154.15Z" fill="#D5D6DB"/>
<path opacity="0.1" d="M332.683 155.67L338.639 226.859L401.771 230.029L399.033 159.144L398.979 157.95L332.683 155.67Z" fill="black"/>
<path d="M332.683 154.15L338.639 225.339L401.771 228.509L399.033 157.624L398.979 156.43L332.683 154.15Z" fill="#6C63FF"/>
<path opacity="0.1" d="M483.249 154.15L418.125 163.909V235.417L481.766 226.229L483.249 154.15Z" fill="black"/>
<path d="M483.249 152.63L418.125 162.389V233.897L481.766 224.709L483.249 152.63Z" fill="#6C63FF"/>
<path opacity="0.3" d="M467.892 170.08L432.713 173.986L433.481 185.964L467.869 182.21L467.892 170.08Z" fill="white"/>
<path d="M342.062 263.461L345.644 273.09C345.644 273.09 350.969 277.65 356.795 275.37C362.621 273.09 367.702 271.958 370.235 269.738C372.768 267.519 376.32 256.37 376.32 256.37C376.32 256.37 379.872 244.21 383.417 241.17C386.962 238.13 396.348 196.247 383.417 200.343C370.486 204.439 360.598 242.439 360.598 242.439C360.598 242.439 358.316 245.221 355.023 245.479C351.729 245.738 345.135 244.97 343.864 247.759C342.594 250.549 338.259 257.89 342.062 263.461Z" fill="#BE6F72"/>
<path opacity="0.1" d="M418.124 163.901C414.79 164.652 411.326 164.613 408.01 163.787C404.693 162.96 401.616 161.37 399.025 159.144L401.771 230.021C401.771 230.021 408.236 237.013 418.124 235.417V163.901Z" fill="black"/>
<path d="M418.124 162.381C414.79 163.132 411.326 163.093 408.01 162.267C404.693 161.44 401.616 159.85 399.025 157.624L401.771 228.501C401.771 228.501 408.236 235.493 418.124 233.897V162.381Z" fill="#6C63FF"/>
<path opacity="0.1" d="M418.124 162.381C414.79 163.132 411.326 163.093 408.01 162.267C404.693 161.44 401.616 159.85 399.025 157.624L401.771 228.501C401.771 228.501 408.236 235.493 418.124 233.897V162.381Z" fill="black"/>
<path opacity="0.1" d="M419.646 154.394C419.646 154.394 446.138 146.3 453.045 147.44L419.646 154.394Z" fill="black"/>
<path opacity="0.1" d="M390.012 150.86C390.012 150.86 364.333 144.78 360.043 146.505L390.012 150.86Z" fill="black"/>
<path opacity="0.1" d="M436.349 155.404C436.349 155.404 454.064 148.914 460.469 152L436.349 155.404Z" fill="black"/>
<path opacity="0.1" d="M427.427 318.219C430.172 316.159 433.094 314.346 436.159 312.8C440.723 310.604 449.089 304.904 449.089 304.904" fill="black"/>
<path opacity="0.1" d="M360.043 240.661C360.043 240.661 348.93 249.743 345.591 250.541C342.252 251.339 340.19 258.422 340.19 258.422" fill="black"/>
<path d="M476.715 262.108L473.171 271.76C473.171 271.76 467.847 276.32 462.013 274.04C456.179 271.76 451.113 270.628 448.572 268.409C446.032 266.189 442.487 255.04 442.487 255.04C442.487 255.04 438.943 242.88 435.391 239.84C431.838 236.8 422.46 194.917 435.391 199.013C448.321 203.109 458.209 241.109 458.209 241.109C458.209 241.109 460.491 243.891 463.785 244.149C467.078 244.408 473.673 243.64 474.943 246.429C476.213 249.219 480.519 256.56 476.715 262.108Z" fill="#BE6F72"/>
<path opacity="0.1" d="M470.501 244.355C470.501 244.355 477.765 249.021 477.735 254.599L470.501 244.355Z" fill="black"/>
<path d="M408.868 109.09C427.633 109.09 442.845 93.8906 442.845 75.141C442.845 56.3914 427.633 41.1919 408.868 41.1919C390.102 41.1919 374.89 56.3914 374.89 75.141C374.89 93.8906 390.102 109.09 408.868 109.09Z" fill="#BE6F72"/>
<path d="M387.532 66.0286C391.654 65.3826 395.267 62.9886 399.207 61.613C408.023 58.5198 417.774 60.6402 426.697 63.4294C430.119 64.501 433.595 65.7094 437.186 65.7094C440.776 65.7094 444.586 64.2426 446.42 61.1494C448.108 58.307 447.781 54.6135 446.359 51.6267C444.936 48.6399 442.556 46.2383 440.152 43.9735C432.241 36.5103 422.429 29.5335 411.575 30.2935C407.209 30.6051 403.033 32.1631 399.017 33.8883C393.96 36.0657 389.038 38.5426 384.276 41.3059C380.618 43.4263 373.841 46.2611 371.734 50.1371C366.942 58.8694 380.078 67.199 387.532 66.0286Z" fill="#3E373A"/>
<path opacity="0.1" d="M446.42 57.9574C444.587 61.0506 440.776 62.5174 437.186 62.5174C433.596 62.5174 430.119 61.3546 426.689 60.283C417.767 57.4938 408.023 55.3659 399.2 58.4666C395.268 59.8422 391.647 62.2666 387.524 62.8746C381.515 63.817 371.84 58.5882 370.791 51.9383C369.612 59.6218 380.831 66.2034 387.524 65.1546C391.647 64.5086 395.268 62.1146 399.2 60.7466C408.023 57.6458 417.767 59.7738 426.689 62.563C430.119 63.6346 433.588 64.843 437.186 64.7974C440.783 64.7518 444.587 63.3382 446.42 60.2374C447.37 58.5506 447.744 56.6002 447.485 54.6819C447.366 55.8368 447.003 56.9533 446.42 57.9574Z" fill="black"/>
<path d="M722.155 469.838C722.155 469.838 726.665 475.728 720.07 484.628C713.476 493.528 708.045 501.036 710.236 506.584C710.236 506.584 720.185 490.062 728.278 489.826C736.371 489.591 731.046 479.772 722.155 469.838Z" fill="#6C63FF"/>
<path opacity="0.1" d="M722.155 469.838C722.548 470.407 722.857 471.029 723.075 471.685C730.97 480.957 735.184 489.614 727.586 489.826C720.512 490.032 712.031 502.67 710 505.855C710.065 506.112 710.144 506.366 710.236 506.615C710.236 506.615 720.185 490.092 728.278 489.857C736.371 489.621 731.047 479.772 722.155 469.838Z" fill="black"/>
<path d="M730.522 477.347C730.522 479.422 730.286 481.102 730.004 481.102C729.723 481.102 729.479 479.422 729.479 477.347C729.479 475.272 729.769 476.253 730.058 476.253C730.347 476.253 730.522 475.272 730.522 477.347Z" fill="#FFD037"/>
<path d="M733.404 479.825C731.586 480.813 729.997 481.413 729.86 481.162C729.723 480.912 731.084 479.901 732.902 478.882C734.72 477.864 734.005 478.609 734.142 478.882C734.279 479.156 735.23 478.829 733.404 479.825Z" fill="#FFD037"/>
<path d="M698.317 469.838C698.317 469.838 693.806 475.728 700.401 484.628C706.995 493.528 712.426 501.036 710.228 506.584C710.228 506.584 700.287 490.062 692.186 489.826C684.085 489.591 689.448 479.772 698.317 469.838Z" fill="#6C63FF"/>
<path opacity="0.1" d="M698.317 469.838C697.924 470.407 697.614 471.029 697.396 471.685C689.501 480.957 685.287 489.614 692.886 489.826C699.952 490.032 708.441 502.67 710.471 505.855C710.408 506.113 710.326 506.367 710.228 506.615C710.228 506.615 700.287 490.092 692.186 489.857C684.085 489.621 689.448 479.772 698.317 469.838Z" fill="black"/>
<path d="M689.935 477.347C689.935 479.422 690.163 481.102 690.452 481.102C690.741 481.102 690.977 479.422 690.977 477.347C690.977 475.272 690.68 476.253 690.399 476.253C690.117 476.253 689.935 475.272 689.935 477.347Z" fill="#FFD037"/>
<path d="M687.059 479.825C688.877 480.813 690.467 481.413 690.604 481.162C690.741 480.912 689.379 479.901 687.561 478.882C685.743 477.864 686.458 478.609 686.322 478.882C686.185 479.156 685.234 478.829 687.059 479.825Z" fill="#FFD037"/>
<path opacity="0.1" d="M710.236 551.667C736.281 551.667 757.395 548.432 757.395 544.44C757.395 540.448 736.281 537.212 710.236 537.212C684.191 537.212 663.077 540.448 663.077 544.44C663.077 548.432 684.191 551.667 710.236 551.667Z" fill="#6C63FF"/>
<path d="M734.507 498.642L734.279 500.482L733.96 503.081L733.83 504.168L733.511 506.767L733.374 507.854L733.062 510.445L729.449 540.009C729.13 542.646 724.817 544.706 719.607 544.706H700.857C695.647 544.706 691.342 542.646 691.015 540.009L687.402 510.445L687.082 507.854L686.953 506.767L686.633 504.168L686.497 503.081L686.185 500.482L685.957 498.642C685.782 497.122 688.109 495.891 691.06 495.891H729.411C732.355 495.891 734.69 497.145 734.507 498.642Z" fill="#65617D"/>
<path d="M734.279 500.482L733.967 503.081H686.504L686.185 500.482H734.279Z" fill="#9D9CB5"/>
<path d="M733.83 504.168L733.518 506.767H686.953L686.633 504.168H733.83Z" fill="#9D9CB5"/>
<path d="M733.382 507.853L733.062 510.453H687.402L687.09 507.853H733.382Z" fill="#9D9CB5"/>
</g>
<defs>
<linearGradient id="paint0_linear" x1="415.789" y1="381.458" x2="415.789" y2="7.66074e-06" gradientUnits="userSpaceOnUse">
<stop stop-color="#808080" stop-opacity="0.25"/>
<stop offset="0.54" stop-color="#808080" stop-opacity="0.12"/>
<stop offset="1" stop-color="#808080" stop-opacity="0.1"/>
</linearGradient>
<clipPath id="clip0">
<rect width="778" height="618" fill="white"/>
</clipPath>
</defs>
</svg>
