<svg width="506" height="337" viewBox="0 0 506 337" fill="none" xmlns="http://www.w3.org/2000/svg">
<path d="M412.958 16.9941H412.957C388.225 16.9941 368.176 39.2444 368.176 66.6915V101.563H378.901L385.11 88.643L383.558 101.563H452.494L458.139 89.8175L456.728 101.563H464.489V74.1826C464.489 42.5983 441.418 16.9941 412.958 16.9941Z" fill="#2F2E41"/>
<path d="M391.341 79.67C391.341 79.67 405.319 112.283 386.682 118.806L405.319 180.306L437 178.442L445.387 157.942L443.523 127.192L440.728 106.693C440.728 106.693 421.159 111.352 423.023 76.8745L391.341 79.67Z" fill="#FFB8B8"/>
<path d="M383.887 117.875C383.887 117.875 353.137 115.079 355.933 137.443C358.728 159.806 361.523 164.465 361.523 164.465L364.319 198.011L347.546 208.26H331.705C331.705 208.26 283.251 219.442 307.478 231.556C331.705 243.669 340.092 222.238 340.092 222.238C340.092 222.238 384.819 222.238 387.614 214.783C390.41 207.329 383.887 117.875 383.887 117.875Z" fill="#FFB8B8"/>
<path d="M443.523 108.556C443.523 108.556 472.409 98.3065 474.273 120.67C476.136 143.034 476.136 144.897 476.136 144.897L481.727 176.579C481.727 176.579 492.909 204.533 492.909 212.92C492.909 221.306 501.295 247.397 501.295 247.397C501.295 247.397 512.477 283.737 500.364 282.806C488.25 281.874 486.386 243.669 486.386 243.669L461.227 193.351L453.773 162.602L443.523 108.556Z" fill="#FFB8B8"/>
<path d="M388.546 114.147H381.092L380.16 153.284C380.16 153.284 368.046 170.056 382.955 184.965L386.682 209.192L454.705 206.397L459.364 181.238C459.364 181.238 468.682 160.738 455.637 142.102L443.523 103.897H437C437 103.897 452.108 159.6 420.228 160.738C394.137 161.67 388.546 114.147 388.546 114.147Z" fill="#6C63FF"/>
<path d="M421.867 336.251C421.986 324.401 422.09 317.284 422.09 317.284C422.09 317.284 421.386 324.401 420.193 336.251H347.01C366.348 275.32 384.082 225.244 384.8 223.233C384.804 223.211 384.811 223.189 384.82 223.169L387.078 215.646V215.642L388.034 212.452V212.437L389.044 209.095L390.411 204.534L450.976 202.672L452.669 206.48L458.433 219.44C458.935 219.584 459.409 219.808 459.84 220.103C470.205 226.893 483.145 276.632 494.941 336.251L421.867 336.251Z" fill="#2F2E41"/>
<path d="M457.5 195.215L383.887 198.01C383.887 198.01 380.527 223.169 383.887 223.169C384.819 223.169 461.227 229.692 460.295 218.51C459.364 207.328 457.5 195.215 457.5 195.215Z" fill="#2F2E41"/>
<path d="M405.743 90.3424C420.203 90.3424 431.925 78.6204 431.925 64.1606C431.925 49.7008 420.203 37.9788 405.743 37.9788C391.284 37.9788 379.562 49.7008 379.562 64.1606C379.562 78.6204 391.284 90.3424 405.743 90.3424Z" fill="#FFB8B8"/>
<path d="M425.688 30.684C421.192 24.8946 414.56 21.2275 407.157 21.2275H406.278C389.326 21.2275 375.585 36.5666 375.585 55.4882V55.4883H381.265L382.182 48.5062L383.527 55.4883H417.214L420.037 49.5813L419.331 55.4883H425.958C429.051 70.8466 424.608 86.2049 412.628 101.563H423.918L429.562 89.7491L428.151 101.563H449.671L453.905 74.3907C453.905 54.0411 442.081 36.785 425.688 30.684Z" fill="#2F2E41"/>
<path d="M431.875 33.5453C441.138 33.5453 448.648 26.0359 448.648 16.7726C448.648 7.50937 441.138 0 431.875 0C422.612 0 415.102 7.50937 415.102 16.7726C415.102 26.0359 422.612 33.5453 431.875 33.5453Z" fill="#2F2E41"/>
<path d="M285.324 173.419C297.951 173.419 308.188 163.183 308.188 150.555C308.188 137.927 297.951 127.691 285.324 127.691C272.696 127.691 262.459 137.927 262.459 150.555C262.459 163.183 272.696 173.419 285.324 173.419Z" fill="#6C63FF"/>
<path d="M121.436 132.676C121.428 133.331 121.26 133.975 120.947 134.55C120.633 135.126 120.184 135.616 119.638 135.977L119.487 136.071H51.7559L52.0283 135.241C52.0753 135.094 57.0334 120.705 78.9832 123.484C81.0535 122.776 101.255 116.18 113.348 123.59C118.714 126.879 121.436 129.936 121.436 132.676Z" fill="#F2F2F2"/>
<path d="M229.594 249.736C236.412 249.882 241.835 254.822 241.835 254.822C241.835 254.822 236.205 259.525 229.388 259.379C222.57 259.233 217.147 254.292 217.147 254.292C217.147 254.292 222.777 249.589 229.594 249.736Z" fill="#6C63FF"/>
<path d="M195.321 226.465C201.48 229.391 208.543 227.406 208.543 227.406C208.543 227.406 205.619 220.678 199.46 217.752C193.301 214.826 186.239 216.81 186.239 216.81C186.239 216.81 189.162 223.539 195.321 226.465Z" fill="#6C63FF"/>
<path d="M195.947 223.557C202.738 222.936 208.681 227.236 208.681 227.236C208.681 227.236 203.616 232.542 196.825 233.163C190.035 233.783 184.091 229.483 184.091 229.483C184.091 229.483 189.157 224.177 195.947 223.557Z" fill="#3F3D56"/>
<path d="M220.839 224.733C220.188 231.52 224.462 237.483 224.462 237.483C224.462 237.483 229.79 232.441 230.441 225.653C231.092 218.866 226.819 212.903 226.819 212.903C226.819 212.903 221.49 217.945 220.839 224.733Z" fill="#3F3D56"/>
<path d="M252.819 266.361C249.257 272.176 250.483 279.409 250.483 279.409C250.483 279.409 257.483 277.214 261.045 271.399C264.606 265.584 263.381 258.352 263.381 258.352C263.381 258.352 256.381 260.546 252.819 266.361Z" fill="#3F3D56"/>
<path d="M242.486 329.582L243.005 329.231C241.175 326.576 240.176 323.437 240.135 320.213C240.15 315.497 242.466 311.135 244.706 306.916C245.122 306.133 245.537 305.353 245.935 304.573C247.609 301.392 248.943 298.044 249.914 294.584C253.389 281.67 249.968 266.435 240.763 253.828C233.46 243.828 222.574 235.083 207.483 227.094L207.19 227.648C222.195 235.591 233.011 244.276 240.257 254.198C249.351 266.652 252.736 281.689 249.309 294.421C248.349 297.839 247.031 301.146 245.378 304.288C244.98 305.065 244.567 305.842 244.153 306.623C241.877 310.909 239.524 315.34 239.509 320.212C239.55 323.561 240.586 326.823 242.486 329.582Z" fill="#3F3D56"/>
<path d="M177.736 227.917C181.023 227.917 183.687 225.253 183.687 221.966C183.687 218.679 181.023 216.015 177.736 216.015C174.45 216.015 171.785 218.679 171.785 221.966C171.785 225.253 174.45 227.917 177.736 227.917Z" fill="#3F3D56"/>
<path d="M327.617 336.613H0L5.52824 329.657L86.64 227.61L90.3736 222.911L123.887 180.747L163.809 130.521L215.185 195.158L327.617 336.613Z" fill="#3F3D56"/>
<path d="M217.681 196.334C215.57 197.586 213.367 198.675 211.09 199.591C199.485 204.203 186.579 204.331 174.885 199.948C161.057 194.699 149.565 183.319 134.925 181.224C130.445 180.584 125.92 180.864 121.391 181.135L163.495 128.162L217.681 196.334Z" fill="#F2F2F2"/>
<path d="M233.252 128.306C234.368 131.756 233.627 135.509 232.718 139.02C231.809 142.53 230.728 146.121 231.193 149.717C232.196 157.488 239.806 162.472 246.869 165.865C253.932 169.257 261.879 172.778 264.991 179.969C266.713 183.946 266.632 188.433 267.302 192.715C268.756 201.754 273.564 209.913 280.766 215.566C274.769 215.424 269.397 211.777 265.151 207.539C260.906 203.3 257.384 198.341 252.816 194.453C246.659 189.213 238.969 186.212 231.742 182.589C224.514 178.966 217.312 174.308 213.571 167.14C209.746 159.813 210.17 150.854 212.847 143.035C214.836 137.227 218.493 128.216 223.202 124.07C226.909 120.807 231.85 123.968 233.252 128.306Z" fill="#F2F2F2"/>
<path d="M420.05 290.867H204.248V336.596H420.05V290.867Z" fill="#F2F2F2"/>
<path d="M197.357 295.879L220.848 246.704H408.461L426.001 295.879H197.357Z" fill="#3F3D56"/>
<path d="M343 249.837H255.928V278.652H343V249.837Z" fill="#F2F2F2"/>
<path d="M261.565 226.346L247.784 255.161H351.143L343 226.346H261.565Z" fill="#3F3D56"/>
<path d="M332.351 299.95H263.601V336.596H332.351V299.95Z" fill="#CCCCCC"/>
<path d="M249.35 301.203H212.705V336.596H249.35V301.203Z" fill="#CCCCCC"/>
<path d="M363.202 303.396H344.253V336.596H363.202V303.396Z" fill="#3F3D56"/>
<path d="M392.957 305.275H383.717V313.888H392.957V305.275Z" fill="#6C63FF"/>
<path d="M405.329 305.275H396.089V313.888H405.329V305.275Z" fill="#6C63FF"/>
<path d="M392.957 317.02H383.717V325.947H392.957V317.02Z" fill="#6C63FF"/>
<path d="M405.329 317.02H396.089V325.947H405.329V317.02Z" fill="#6C63FF"/>
<path d="M271.146 257.722H263.915V264.463H271.146V257.722Z" fill="#3F3D56"/>
<path d="M280.828 257.722H273.597V264.463H280.828V257.722Z" fill="#3F3D56"/>
<path d="M271.146 266.914H263.915V273.899H271.146V266.914Z" fill="#3F3D56"/>
<path d="M280.828 266.914H273.597V273.899H280.828V266.914Z" fill="#3F3D56"/>
<path d="M325.331 257.722H318.1V264.463H325.331V257.722Z" fill="#3F3D56"/>
<path d="M335.013 257.722H327.782V264.463H335.013V257.722Z" fill="#3F3D56"/>
<path d="M325.331 266.914H318.1V273.899H325.331V266.914Z" fill="#3F3D56"/>
<path d="M335.013 266.914H327.782V273.899H335.013V266.914Z" fill="#3F3D56"/>
<path d="M298.395 257.722H291.164V264.463H298.395V257.722Z" fill="#3F3D56"/>
<path d="M308.077 257.722H300.846V264.463H308.077V257.722Z" fill="#3F3D56"/>
<path d="M298.395 266.914H291.164V273.899H298.395V266.914Z" fill="#3F3D56"/>
<path d="M308.077 266.914H300.846V273.899H308.077V266.914Z" fill="#3F3D56"/>
<path d="M353.034 306.759H348.481V311.003H353.034V306.759Z" fill="#F2F2F2"/>
<path d="M359.13 306.759H354.577V311.003H359.13V306.759Z" fill="#F2F2F2"/>
<path d="M353.034 312.547H348.481V316.945H353.034V312.547Z" fill="#F2F2F2"/>
<path d="M359.13 312.547H354.577V316.945H359.13V312.547Z" fill="#F2F2F2"/>
<path d="M360.696 323.597C361.388 323.597 361.949 323.037 361.949 322.345C361.949 321.653 361.388 321.092 360.696 321.092C360.005 321.092 359.444 321.653 359.444 322.345C359.444 323.037 360.005 323.597 360.696 323.597Z" fill="#F2F2F2"/>
<path d="M285.168 218.834H274.832V221.318H276.899V228.544H283.101V221.318H285.168V218.834Z" fill="#F2F2F2"/>
<path d="M263.997 325.943C262.216 332.525 256.117 336.602 256.117 336.602C256.117 336.602 252.905 330.007 254.686 323.424C256.467 316.842 262.566 312.766 262.566 312.766C262.566 312.766 265.778 319.361 263.997 325.943Z" fill="#6C63FF"/>
<path d="M247.798 325.943C249.579 332.525 255.678 336.602 255.678 336.602C255.678 336.602 258.89 330.007 257.11 323.424C255.329 316.842 249.23 312.766 249.23 312.766C249.23 312.766 246.018 319.361 247.798 325.943Z" fill="#6C63FF"/>
<path d="M250.415 324.528C255.301 329.285 255.898 336.596 255.898 336.596C255.898 336.596 248.573 336.196 243.687 331.44C238.801 326.684 238.204 319.372 238.204 319.372C238.204 319.372 245.529 319.772 250.415 324.528Z" fill="#3F3D56"/>
<path d="M261.381 324.528C256.495 329.285 255.898 336.596 255.898 336.596C255.898 336.596 263.223 336.196 268.109 331.44C272.995 326.684 273.592 319.372 273.592 319.372C273.592 319.372 266.267 319.772 261.381 324.528Z" fill="#3F3D56"/>
<path d="M332.931 158.122C332.924 158.777 332.756 159.421 332.442 159.996C332.129 160.572 331.68 161.062 331.134 161.424L330.983 161.517H263.252L263.524 160.687C263.571 160.54 268.529 146.151 290.479 148.93C292.549 148.222 312.751 141.626 324.844 149.036C330.21 152.325 332.931 155.382 332.931 158.122Z" fill="#F2F2F2"/>
<path d="M124.437 237.722C124.429 238.377 124.261 239.02 123.948 239.596C123.634 240.171 123.185 240.661 122.639 241.023L122.489 241.117H54.7571L55.0296 240.287C55.0766 240.14 60.0347 225.751 81.9844 228.529C84.0547 227.821 104.257 221.225 116.35 228.635C121.715 231.924 124.437 234.981 124.437 237.722Z" fill="#F2F2F2"/>
</svg>
