<svg width="484" height="256" viewBox="0 0 484 256" fill="none" xmlns="http://www.w3.org/2000/svg">
<path d="M47.7175 47.6689H37.8549C36.8744 47.6678 35.9343 47.2777 35.241 46.5844C34.5476 45.891 34.1576 44.951 34.1565 43.9704V3.69845C34.1576 2.7179 34.5476 1.77781 35.241 1.08446C35.9343 0.391103 36.8744 0.00110506 37.8549 0H47.7175C48.698 0.00110506 49.6381 0.391103 50.3315 1.08446C51.0248 1.77781 51.4148 2.7179 51.4159 3.69845V43.9704C51.4148 44.951 51.0248 45.891 50.3315 46.5844C49.6381 47.2777 48.698 47.6678 47.7175 47.6689Z" fill="#F2F2F2"/>
<path d="M51.0049 7.80786H34.5674V11.0954H51.0049V7.80786Z" fill="#CCCCCC"/>
<path d="M51.0049 33.2861H34.5674V36.5736H51.0049V33.2861Z" fill="#CCCCCC"/>
<path d="M72.3737 47.6689H62.5112C61.5306 47.6678 60.5906 47.2777 59.8972 46.5844C59.2039 45.891 58.8138 44.951 58.8127 43.9704V3.69845C58.8138 2.7179 59.2039 1.77781 59.8972 1.08446C60.5906 0.391103 61.5306 0.00110506 62.5112 0H72.3737C73.3543 0.00110506 74.2943 0.391103 74.9877 1.08446C75.6811 1.77781 76.0711 2.7179 76.0722 3.69845V43.9704C76.0711 44.951 75.6811 45.891 74.9877 46.5844C74.2943 47.2777 73.3543 47.6678 72.3737 47.6689Z" fill="#F2F2F2"/>
<path d="M75.6612 7.80786H59.2236V11.0954H75.6612V7.80786Z" fill="#CCCCCC"/>
<path d="M75.6612 33.2861H59.2236V36.5736H75.6612V33.2861Z" fill="#CCCCCC"/>
<path d="M97.0301 47.6689H87.1676C86.187 47.6678 85.247 47.2777 84.5536 46.5844C83.8602 45.891 83.4702 44.951 83.4691 43.9704V3.69845C83.4702 2.7179 83.8602 1.77781 84.5536 1.08446C85.247 0.391103 86.187 0.00110506 87.1676 0H97.0301C98.0106 0.00110506 98.9507 0.391103 99.6441 1.08446C100.337 1.77781 100.727 2.7179 100.729 3.69845V43.9704C100.727 44.951 100.337 45.891 99.6441 46.5844C98.9507 47.2777 98.0106 47.6678 97.0301 47.6689Z" fill="#F2F2F2"/>
<path d="M100.318 7.80786H83.88V11.0954H100.318V7.80786Z" fill="#CCCCCC"/>
<path d="M100.318 33.2861H83.88V36.5736H100.318V33.2861Z" fill="#CCCCCC"/>
<path d="M235.057 48.9016H0.821877C0.603902 48.9016 0.394866 48.815 0.240734 48.6608C0.0866023 48.5067 0 48.2977 0 48.0797C0 47.8617 0.0866023 47.6527 0.240734 47.4985C0.394866 47.3444 0.603902 47.2578 0.821877 47.2578H235.057C235.275 47.2578 235.484 47.3444 235.638 47.4985C235.792 47.6527 235.879 47.8617 235.879 48.0797C235.879 48.2977 235.792 48.5067 235.638 48.6608C235.484 48.815 235.275 48.9016 235.057 48.9016Z" fill="#CCCCCC"/>
<path d="M221.185 177.922C221.185 171.567 197.267 166.416 167.763 166.416C138.259 166.416 114.341 171.567 114.341 177.922C114.341 181.995 124.174 185.57 138.997 187.615V250.658C138.997 252.075 139.56 253.434 140.562 254.435C141.564 255.437 142.923 256 144.34 256C145.757 256 147.115 255.437 148.117 254.435C149.119 253.434 149.682 252.075 149.682 250.658V188.751C155.33 189.188 161.416 189.428 167.763 189.428C174.111 189.428 180.197 189.188 185.844 188.751V250.658C185.844 252.075 186.407 253.434 187.409 254.435C188.411 255.437 189.77 256 191.187 256C192.604 256 193.962 255.437 194.964 254.435C195.966 253.434 196.529 252.075 196.529 250.658V187.615C211.352 185.57 221.185 181.995 221.185 177.922Z" fill="#CCCCCC"/>
<path d="M210.906 245.664H220.982L225.776 206.799H210.905L210.906 245.664Z" fill="#A0616A"/>
<path d="M240.415 255.019L208.747 255.02L208.747 242.785L228.179 242.784C231.424 242.784 234.536 244.073 236.831 246.368C239.125 248.662 240.415 251.774 240.415 255.019L240.415 255.019Z" fill="#2F2E41"/>
<path d="M226.635 240.041L236.249 237.024L229.187 198.506L214.998 202.958L226.635 240.041Z" fill="#A0616A"/>
<path d="M257.591 240.132L227.376 249.614L223.713 237.94L242.254 232.121C245.35 231.15 248.705 231.448 251.581 232.95C254.458 234.452 256.619 237.036 257.591 240.132Z" fill="#2F2E41"/>
<path d="M219.894 222.152L201.462 173.768C197.326 174.739 162.647 182.412 151.032 170.046C147.052 165.807 146.275 159.666 148.725 151.794L155.503 143.275L155.714 143.287C158.277 143.421 218.534 146.799 222.665 164.975C226.148 180.298 232.508 208.867 234.374 217.259C234.564 218.128 234.434 219.037 234.01 219.819C233.585 220.601 232.894 221.204 232.062 221.519L224.649 224.298C224.236 224.454 223.798 224.534 223.357 224.534C222.607 224.534 221.874 224.306 221.256 223.881C220.637 223.456 220.163 222.853 219.894 222.152Z" fill="#2F2E41"/>
<path d="M209.21 227.905L190.777 179.521C186.642 180.492 151.963 188.165 140.348 175.799C136.367 171.56 135.591 165.42 138.04 157.547L144.819 149.029L145.029 149.04C147.592 149.175 207.85 152.552 211.98 170.728C215.463 186.052 221.824 214.621 223.69 223.012C223.879 223.881 223.75 224.79 223.325 225.572C222.901 226.354 222.209 226.957 221.377 227.272L213.964 230.052C213.551 230.207 213.114 230.287 212.672 230.287C211.922 230.287 211.189 230.059 210.571 229.634C209.953 229.209 209.478 228.606 209.21 227.905Z" fill="#2F2E41"/>
<path d="M234.119 111.92C233.847 112.285 233.604 112.67 233.392 113.072L192.857 117.343L187.022 109.343L173.797 116.571L185.258 135.984L234.971 123.309C236.225 124.532 237.822 125.344 239.549 125.637C241.276 125.93 243.051 125.691 244.639 124.95C246.226 124.21 247.551 123.004 248.436 121.492C249.321 119.981 249.726 118.236 249.595 116.489C249.464 114.742 248.805 113.077 247.705 111.714C246.604 110.351 245.115 109.355 243.435 108.859C241.755 108.363 239.964 108.39 238.3 108.937C236.636 109.484 235.177 110.524 234.119 111.92V111.92Z" fill="#A0616A"/>
<path d="M137.779 160.101C137.225 159.701 136.791 159.156 136.528 158.525C136.264 157.894 136.18 157.203 136.285 156.527C138.572 141.452 135.94 119.856 133.33 104.393C132.796 101.256 133.004 98.0373 133.937 94.9948C134.871 91.9524 136.504 89.1708 138.706 86.8729C140.907 84.5751 143.617 82.8248 146.617 81.7624C149.617 80.7 152.824 80.3549 155.981 80.7548C158.728 81.1177 161.449 81.6541 164.128 82.3608C168.578 83.4815 172.515 86.083 175.29 89.7377C178.066 93.3924 179.515 97.8826 179.4 102.47C179.01 117.391 182.039 136.008 183.36 143.319C183.45 143.821 183.436 144.336 183.318 144.833C183.2 145.329 182.981 145.796 182.675 146.204C182.374 146.608 181.993 146.944 181.555 147.192C181.117 147.44 180.632 147.593 180.131 147.642C165.495 149.136 149.711 156.274 141.606 160.395C141.085 160.664 140.507 160.805 139.921 160.807C139.151 160.804 138.401 160.557 137.779 160.101Z" fill="#6C63FF"/>
<path d="M177.288 121.217C176.835 121.04 176.423 120.774 176.074 120.436C175.725 120.098 175.446 119.693 175.255 119.247L167.092 100.391C166.598 99.2518 166.333 98.0263 166.313 96.7847C166.292 95.543 166.517 94.3095 166.974 93.1546C167.43 91.9998 168.11 90.9462 168.974 90.0542C169.838 89.1621 170.869 88.4491 172.009 87.9558C173.148 87.4625 174.374 87.1987 175.616 87.1794C176.857 87.16 178.091 87.3856 179.245 87.8431C180.4 88.3007 181.453 88.9812 182.344 89.8459C183.235 90.7106 183.947 91.7425 184.44 92.8826L192.602 111.738C192.991 112.639 193.006 113.656 192.645 114.568C192.284 115.479 191.577 116.211 190.678 116.601L180.118 121.172C179.673 121.367 179.193 121.471 178.707 121.478C178.222 121.486 177.739 121.397 177.288 121.217H177.288Z" fill="#6C63FF"/>
<path d="M195.491 110.276C195.218 110.641 194.975 111.026 194.764 111.428L154.228 115.699L148.393 107.699L135.169 114.927L146.629 134.341L196.343 121.665C197.597 122.888 199.194 123.7 200.921 123.993C202.648 124.286 204.423 124.047 206.01 123.306C207.598 122.566 208.922 121.36 209.808 119.849C210.693 118.337 211.097 116.592 210.967 114.845C210.836 113.098 210.177 111.433 209.076 110.07C207.976 108.707 206.487 107.711 204.807 107.215C203.127 106.719 201.336 106.747 199.672 107.293C198.007 107.84 196.549 108.881 195.491 110.276V110.276Z" fill="#A0616A"/>
<path d="M138.66 122.039C138.207 121.861 137.795 121.596 137.446 121.258C137.097 120.919 136.818 120.515 136.626 120.069L128.464 101.213C127.97 100.074 127.705 98.8481 127.685 97.6064C127.664 96.3648 127.889 95.1312 128.345 93.9764C128.802 92.8215 129.482 91.768 130.346 90.876C131.21 89.9839 132.241 89.2709 133.38 88.7776C134.52 88.2843 135.746 88.0205 136.988 88.0011C138.229 87.9818 139.463 88.2074 140.617 88.6649C141.771 89.1225 142.824 89.803 143.716 90.6677C144.607 91.5324 145.319 92.5643 145.812 93.7044L153.974 112.56C154.362 113.46 154.378 114.478 154.017 115.39C153.656 116.301 152.949 117.033 152.049 117.423L141.49 121.994C141.045 122.188 140.565 122.293 140.079 122.3C139.593 122.308 139.111 122.219 138.66 122.039H138.66Z" fill="#6C63FF"/>
<path d="M154.479 74.3403C165.627 74.3403 174.665 65.3027 174.665 54.1542C174.665 43.0057 165.627 33.968 154.479 33.968C143.33 33.968 134.292 43.0057 134.292 54.1542C134.292 65.3027 143.33 74.3403 154.479 74.3403Z" fill="#A0616A"/>
<path d="M140.046 68.0083C139.959 67.7549 139.932 67.4851 139.966 67.2195C139.999 66.9539 140.094 66.6995 140.241 66.4758C140.388 66.2522 140.585 66.0652 140.815 65.9293C141.046 65.7933 141.305 65.7119 141.572 65.6914C142.118 65.7212 142.653 65.8614 143.145 66.1036C143.636 66.3459 144.072 66.6852 144.429 67.1009C145.159 67.9432 146.01 68.6735 146.953 69.2683C147.929 69.7605 149.254 69.6904 149.81 68.752C150.333 67.8707 149.975 66.6907 149.658 65.6671C148.853 63.0629 148.403 60.3619 148.319 57.6373C148.228 54.5961 148.657 51.4223 150.34 49.0503C152.513 45.989 156.399 44.8268 160.076 44.9111C163.753 44.9953 167.37 46.1304 171.013 46.848C172.27 47.0957 173.748 47.2223 174.589 46.2478C175.483 45.2116 175.155 43.5344 174.775 42.1353C173.788 38.5047 172.74 34.7511 170.447 31.8189C167.968 28.7721 164.426 26.7781 160.535 26.2383C156.799 25.7755 153.007 26.206 149.47 27.4944C143.708 29.3106 138.638 32.8429 134.937 37.6188C131.123 42.6978 129.474 49.0806 130.353 55.3715C131.211 60.8506 134.114 65.8007 138.478 69.2239L140.046 68.0083Z" fill="#2F2E41"/>
<path d="M62.9706 116.605C63.986 105.67 66.7905 94.9751 71.272 84.9486C72.5211 82.1583 73.8958 79.4295 75.3963 76.7621C75.4715 76.6226 75.4897 76.4593 75.4468 76.3067C75.404 76.1541 75.3036 76.0241 75.1667 75.9441C75.0299 75.8641 74.8674 75.8405 74.7134 75.878C74.5594 75.9156 74.426 76.0115 74.3414 76.1455C68.8847 85.8608 65.062 96.407 63.026 107.362C62.4596 110.422 62.0339 113.502 61.7489 116.605C61.6765 117.388 62.8987 117.383 62.9706 116.605Z" fill="#3F3D56"/>
<path d="M78.3553 78.7213C82.6286 78.7213 86.0928 75.2571 86.0928 70.9838C86.0928 66.7105 82.6286 63.2463 78.3553 63.2463C74.082 63.2463 70.6178 66.7105 70.6178 70.9838C70.6178 75.2571 74.082 78.7213 78.3553 78.7213Z" fill="#6C63FF"/>
<path d="M63.7621 116.81C64.4208 109.716 66.2402 102.778 69.1476 96.2733C69.9579 94.4631 70.8498 92.6928 71.8232 90.9623C71.872 90.8718 71.8838 90.7659 71.856 90.6669C71.8282 90.5679 71.7631 90.4835 71.6743 90.4317C71.5855 90.3798 71.4801 90.3644 71.3802 90.3887C71.2803 90.4131 71.1938 90.4753 71.1388 90.5623C67.5989 96.8651 65.1188 103.707 63.798 110.814C63.4306 112.799 63.1544 114.797 62.9695 116.81C62.9226 117.318 63.7154 117.315 63.7621 116.81Z" fill="#3F3D56"/>
<path d="M73.7429 92.2334C76.5152 92.2334 78.7626 89.986 78.7626 87.2138C78.7626 84.4415 76.5152 82.1941 73.7429 82.1941C70.9706 82.1941 68.7233 84.4415 68.7233 87.2138C68.7233 89.986 70.9706 92.2334 73.7429 92.2334Z" fill="#6C63FF"/>
<path d="M62.7617 116.337C58.9177 110.338 56.085 103.748 54.3766 96.8311C53.9022 94.9054 53.5165 92.961 53.2197 90.9978C53.2025 90.8964 53.1467 90.8057 53.0639 90.7447C52.9811 90.6838 52.8778 90.6573 52.7759 90.671C52.674 90.6847 52.5814 90.7374 52.5176 90.8181C52.4538 90.8987 52.4239 91.001 52.4341 91.1033C53.5195 98.2503 55.7721 105.17 59.102 111.587C60.033 113.377 61.0446 115.123 62.1368 116.824C62.412 117.253 63.0352 116.763 62.7617 116.337Z" fill="#3F3D56"/>
<path d="M52.4277 91.8811C55.2 91.8811 57.4474 89.6337 57.4474 86.8614C57.4474 84.0892 55.2 81.8418 52.4277 81.8418C49.6555 81.8418 47.4081 84.0892 47.4081 86.8614C47.4081 89.6337 49.6555 91.8811 52.4277 91.8811Z" fill="#6C63FF"/>
<path d="M47.3517 120.778V110.915C47.3528 109.935 47.7428 108.995 48.4362 108.301C49.1295 107.608 50.0696 107.218 51.0501 107.217H74.0627C75.0432 107.218 75.9833 107.608 76.6767 108.301C77.37 108.995 77.76 109.935 77.7611 110.915V120.778C77.76 121.758 77.37 122.698 76.6767 123.392C75.9833 124.085 75.0432 124.475 74.0627 124.476H51.0501C50.0696 124.475 49.1295 124.085 48.4362 123.392C47.7428 122.698 47.3528 121.758 47.3517 120.778Z" fill="#CCCCCC"/>
<path d="M253.649 117.925H188.721C187.132 117.925 185.844 119.213 185.844 120.801C185.844 122.39 187.132 123.678 188.721 123.678H253.649C255.238 123.678 256.526 122.39 256.526 120.801C256.526 119.213 255.238 117.925 253.649 117.925Z" fill="#CCCCCC"/>
<path d="M297.209 123.678H224.062C222.645 123.676 221.287 123.113 220.286 122.111C219.284 121.11 218.721 119.752 218.719 118.336V78.0636C218.721 76.6473 219.284 75.2894 220.286 74.2879C221.287 73.2864 222.645 72.723 224.062 72.7214H297.209C298.625 72.723 299.983 73.2864 300.984 74.2879C301.986 75.2894 302.549 76.6473 302.551 78.0636V118.336C302.549 119.752 301.986 121.11 300.984 122.111C299.983 123.113 298.625 123.676 297.209 123.678Z" fill="#CCCCCC"/>
<path d="M260.635 103.131C263.359 103.131 265.567 100.923 265.567 98.1996C265.567 95.4761 263.359 93.2683 260.635 93.2683C257.912 93.2683 255.704 95.4761 255.704 98.1996C255.704 100.923 257.912 103.131 260.635 103.131Z" fill="white"/>
<path d="M483.364 177.922C483.364 171.567 459.446 166.416 429.942 166.416C400.438 166.416 376.52 171.567 376.52 177.922C376.52 181.995 386.353 185.57 401.176 187.615V250.658C401.176 252.075 401.739 253.434 402.741 254.435C403.743 255.437 405.102 256 406.519 256C407.935 256 409.294 255.437 410.296 254.435C411.298 253.434 411.861 252.075 411.861 250.658V188.751C417.509 189.188 423.595 189.428 429.942 189.428C436.289 189.428 442.375 189.188 448.023 188.751V250.658C448.023 252.075 448.586 253.434 449.588 254.435C450.59 255.437 451.949 256 453.366 256C454.782 256 456.141 255.437 457.143 254.435C458.145 253.434 458.708 252.075 458.708 250.658V187.615C473.531 185.57 483.364 181.995 483.364 177.922Z" fill="#CCCCCC"/>
<path d="M435.849 72.6045C448.559 72.6045 458.862 62.3014 458.862 49.5919C458.862 36.8824 448.559 26.5793 435.849 26.5793C423.14 26.5793 412.837 36.8824 412.837 49.5919C412.837 62.3014 423.14 72.6045 435.849 72.6045Z" fill="#2F2E41"/>
<path d="M378.58 246.486H368.504L363.711 207.621H378.582L378.58 246.486Z" fill="#FFB8B8"/>
<path d="M361.307 243.606H380.739V255.842H349.072C349.072 254.235 349.388 252.644 350.003 251.159C350.618 249.675 351.519 248.326 352.655 247.19C353.792 246.054 355.14 245.153 356.625 244.538C358.109 243.923 359.7 243.606 361.307 243.606Z" fill="#2F2E41"/>
<path d="M362.851 240.862L353.238 237.845L360.299 199.328L374.488 203.78L362.851 240.862Z" fill="#FFB8B8"/>
<path d="M347.233 232.943L365.773 238.762L362.11 250.436L331.895 240.954C332.377 239.421 333.155 237.998 334.186 236.765C335.217 235.533 336.481 234.516 337.905 233.772C339.329 233.028 340.886 232.572 342.486 232.43C344.087 232.288 345.7 232.462 347.233 232.943Z" fill="#2F2E41"/>
<path d="M366.13 225.356C365.688 225.356 365.251 225.276 364.838 225.121L357.425 222.341C356.593 222.026 355.901 221.423 355.477 220.641C355.052 219.859 354.923 218.95 355.112 218.081C356.978 209.689 363.339 181.12 366.822 165.797C370.952 147.621 431.21 144.243 433.773 144.109L433.983 144.097L440.762 152.616C443.211 160.488 442.435 166.629 438.454 170.868C426.839 183.234 392.16 175.561 388.025 174.589L369.592 222.974C369.324 223.675 368.849 224.278 368.231 224.703C367.612 225.128 366.88 225.356 366.13 225.356Z" fill="#2F2E41"/>
<path d="M376.814 231.109C376.373 231.109 375.935 231.029 375.522 230.874L368.109 228.094C367.277 227.779 366.586 227.176 366.161 226.394C365.737 225.612 365.607 224.703 365.796 223.834C367.663 215.443 374.023 186.874 377.506 171.55C381.636 153.374 441.894 149.997 444.457 149.862L444.668 149.851L451.446 158.369C453.895 166.242 453.119 172.382 449.139 176.621C437.524 188.987 402.845 181.314 398.709 180.343L380.277 228.727C380.008 229.428 379.533 230.031 378.915 230.456C378.297 230.881 377.564 231.109 376.814 231.109Z" fill="#2F2E41"/>
<path d="M355.367 112.742C355.64 113.106 355.883 113.491 356.095 113.894L396.63 118.165L402.465 110.164L415.689 117.392L404.229 136.806L354.515 124.131C353.261 125.354 351.664 126.166 349.938 126.459C348.211 126.752 346.435 126.512 344.848 125.772C343.26 125.032 341.936 123.826 341.05 122.314C340.165 120.803 339.761 119.058 339.891 117.311C340.022 115.564 340.681 113.898 341.782 112.535C342.882 111.172 344.371 110.177 346.051 109.681C347.731 109.185 349.522 109.212 351.187 109.759C352.851 110.306 354.309 111.346 355.367 112.742Z" fill="#FFB8B8"/>
<path d="M449.565 161.629C448.979 161.627 448.402 161.486 447.881 161.217C439.775 157.096 423.992 149.958 409.356 148.464C408.855 148.415 408.37 148.262 407.931 148.014C407.493 147.766 407.112 147.43 406.812 147.026C406.505 146.618 406.286 146.151 406.168 145.655C406.05 145.158 406.036 144.643 406.126 144.141C407.447 136.83 410.477 118.213 410.086 103.292C409.971 98.7047 411.421 94.2144 414.196 90.5597C416.972 86.9051 420.908 84.3035 425.358 83.1829C428.038 82.4761 430.759 81.9397 433.506 81.5768C436.663 81.1769 439.87 81.522 442.87 82.5844C445.87 83.6469 448.579 85.3971 450.781 87.695C452.982 89.9928 454.616 92.7744 455.549 95.8169C456.482 98.8593 456.69 102.078 456.156 105.215C453.546 120.678 450.915 142.274 453.202 157.349C453.307 158.025 453.223 158.716 452.959 159.347C452.695 159.978 452.262 160.524 451.707 160.923C451.086 161.379 450.336 161.626 449.565 161.629Z" fill="#6C63FF"/>
<path d="M410.837 122.301C410.331 122.3 409.832 122.196 409.368 121.994L398.809 117.423C397.91 117.033 397.202 116.301 396.841 115.39C396.48 114.478 396.496 113.46 396.884 112.56L405.047 93.7044C405.539 92.5643 406.251 91.5324 407.142 90.6677C408.034 89.803 409.087 89.1225 410.241 88.6649C411.396 88.2074 412.629 87.9818 413.871 88.0011C415.112 88.0205 416.338 88.2843 417.478 88.7776C418.617 89.2709 419.649 89.9839 420.513 90.876C421.377 91.768 422.056 92.8215 422.513 93.9764C422.969 95.1312 423.194 96.3648 423.174 97.6064C423.153 98.8481 422.888 100.074 422.394 101.213L414.232 120.069C413.945 120.731 413.47 121.295 412.867 121.691C412.264 122.088 411.558 122.3 410.837 122.301Z" fill="#6C63FF"/>
<path d="M435.008 75.1621C446.156 75.1621 455.194 66.1244 455.194 54.9759C455.194 43.8274 446.156 34.7898 435.008 34.7898C423.859 34.7898 414.822 43.8274 414.822 54.9759C414.822 66.1244 423.859 75.1621 435.008 75.1621Z" fill="#FFB8B8"/>
<path d="M414.458 45.0584C424.02 50.8952 434.799 54.447 445.958 55.4374L442.637 51.459C445.055 52.3529 447.599 52.858 450.175 52.9557C452.747 52.9156 455.443 51.9251 456.903 49.8065C457.554 48.7534 457.941 47.5583 458.03 46.3233C458.12 45.0883 457.909 43.85 457.417 42.7139C456.405 40.448 454.83 38.4788 452.842 36.9936C449.318 34.206 445.159 32.3335 440.736 31.543C436.313 30.7525 431.763 31.0686 427.492 32.463C424.562 33.3386 421.938 35.0218 419.92 37.3198C418.006 39.6805 414.322 41.7839 415.302 44.6605L414.458 45.0584Z" fill="#2F2E41"/>
<path d="M438.402 28.7681C432.035 22.3118 424.331 17.3296 415.831 14.1723C410.375 12.1509 404.436 10.902 398.732 12.05C393.027 13.1979 387.633 17.144 386.042 22.7408C384.74 27.3173 386.084 32.2448 388.103 36.5528C390.123 40.8609 392.819 44.8558 394.452 49.3247C396.118 53.8845 396.62 58.7882 395.91 63.5908C395.2 68.3934 393.303 72.9427 390.389 76.8258C387.475 80.7089 383.638 83.8028 379.225 85.8267C374.812 87.8505 369.964 88.7402 365.12 88.415C370.725 89.1665 375.891 91.8003 381.369 93.2023C386.848 94.6043 393.313 94.5092 397.385 90.5845C401.692 86.432 401.778 79.6805 401.57 73.7011L400.641 47.0353C400.483 42.5023 400.348 37.824 401.983 33.5931C403.618 29.3622 407.503 25.6573 412.039 25.6958C415.476 25.725 418.519 27.8074 421.275 29.8611C424.032 31.9147 426.95 34.1058 430.374 34.4113C433.798 34.7168 437.708 32.1828 437.451 28.7547" fill="#2F2E41"/>
<path d="M344.571 97.8748L391.051 98.972L397.784 148.659L354.86 149.623L344.571 97.8748Z" fill="#E6E6E6"/>
<path d="M393.995 111.098C394.268 111.462 394.511 111.848 394.723 112.25L435.258 116.521L441.093 108.521L454.317 115.749L442.857 135.162L393.144 122.487C391.889 123.71 390.293 124.522 388.566 124.815C386.839 125.108 385.063 124.869 383.476 124.128C381.888 123.388 380.564 122.182 379.679 120.67C378.793 119.159 378.389 117.414 378.52 115.667C378.65 113.92 379.31 112.255 380.41 110.892C381.51 109.529 382.999 108.533 384.679 108.037C386.359 107.541 388.151 107.568 389.815 108.115C391.479 108.662 392.937 109.702 393.995 111.098V111.098Z" fill="#FFB8B8"/>
<path d="M449.465 123.122C448.96 123.122 448.46 123.017 447.996 122.816L437.437 118.245C436.538 117.854 435.83 117.123 435.469 116.211C435.109 115.3 435.124 114.282 435.512 113.382L443.675 94.5261C444.167 93.3861 444.879 92.3542 445.771 91.4895C446.662 90.6248 447.715 89.9442 448.869 89.4867C450.024 89.0291 451.257 88.8036 452.499 88.8229C453.741 88.8423 454.966 89.1061 456.106 89.5994C457.246 90.0927 458.277 90.8057 459.141 91.6977C460.005 92.5898 460.684 93.6433 461.141 94.7982C461.598 95.953 461.822 97.1865 461.802 98.4282C461.781 99.6699 461.517 100.895 461.022 102.035L452.86 120.89C452.573 121.553 452.099 122.116 451.495 122.513C450.892 122.909 450.187 123.121 449.465 123.122Z" fill="#6C63FF"/>
<path d="M353.918 122.856H26.8113C25.3945 122.856 24.0357 123.419 23.0338 124.421C22.032 125.423 21.4691 126.781 21.4691 128.198C21.4691 129.615 22.032 130.974 23.0338 131.976C24.0357 132.978 25.3945 133.54 26.8113 133.54H36.2629V249.836C36.2629 251.253 36.8257 252.612 37.8276 253.613C38.8295 254.615 40.1883 255.178 41.6051 255.178C43.0219 255.178 44.3807 254.615 45.3826 253.613C46.3845 252.612 46.9473 251.253 46.9473 249.836V143.806L106.838 252.357C107.548 253.581 108.715 254.474 110.082 254.839C111.449 255.203 112.905 255.011 114.131 254.303C115.356 253.596 116.251 252.431 116.618 251.065C116.986 249.698 116.796 248.242 116.091 247.015L53.4842 133.54H339.535V133.61L276.967 247.015C276.258 248.242 276.066 249.7 276.433 251.069C276.8 252.437 277.695 253.604 278.922 254.313C280.149 255.021 281.607 255.213 282.976 254.846C284.344 254.48 285.511 253.584 286.219 252.357L339.535 155.723V249.836C339.535 251.253 340.098 252.612 341.1 253.613C342.102 254.615 343.461 255.178 344.878 255.178C346.295 255.178 347.653 254.615 348.655 253.613C349.657 252.612 350.22 251.253 350.22 249.836V136.357L351.774 133.54H353.918C355.335 133.54 356.694 132.978 357.696 131.976C358.698 130.974 359.261 129.615 359.261 128.198C359.261 126.781 358.698 125.423 357.696 124.421C356.694 123.419 355.335 122.856 353.918 122.856Z" fill="#3F3D56"/>
</svg>
