<svg width="351" height="275" viewBox="0 0 351 275" fill="none" xmlns="http://www.w3.org/2000/svg">
<path d="M196.445 188.531C195.534 189.382 194.439 190.012 193.246 190.37C192.052 190.728 190.791 190.805 189.562 190.595C188.334 190.385 187.17 189.894 186.163 189.159C185.156 188.425 184.332 187.468 183.756 186.362L176.281 172.01L179.255 165.566L195.28 175.822C196.317 176.486 197.189 177.378 197.828 178.43C198.468 179.482 198.859 180.666 198.971 181.892C199.084 183.118 198.915 184.353 198.477 185.504C198.039 186.654 197.344 187.69 196.445 188.531Z" fill="#FFB8B8"/>
<path d="M174.022 174.068L112.745 142.242C112.463 142.095 112.214 141.89 112.017 141.64C111.82 141.39 111.679 141.1 111.602 140.791L98.3094 87.2184C97.5381 84.1099 97.9546 80.8254 99.4773 78.0078C101 75.1901 103.519 73.0421 106.542 71.9841L109.745 70.8633C110.458 70.6134 111.216 70.5127 111.97 70.5675C112.725 70.6222 113.46 70.8312 114.13 71.1816C114.8 71.5319 115.392 72.0161 115.867 72.6041C116.343 73.1922 116.693 73.8717 116.895 74.6004L129.997 121.766C130.119 122.208 130.374 122.601 130.727 122.893L180.654 164.261C181.084 164.618 181.366 165.123 181.444 165.677C181.522 166.23 181.39 166.793 181.074 167.255L176.908 173.344C176.598 173.796 176.134 174.12 175.602 174.253C175.071 174.386 174.509 174.321 174.022 174.068Z" fill="#6C63FF"/>
<path d="M56.828 229.506L30.5582 223.063L32.0452 208.193L58.315 220.089L56.828 229.506Z" fill="#FFB8B8"/>
<path d="M133.655 90.7225C103.935 75.076 72.8251 67.2185 39.48 71.8875C49.5314 54.8525 56.9967 39.1029 56.4976 27.3125C56.1714 19.6088 59.4062 12.1306 65.6024 7.54125C70.4597 3.94021 76.3467 1.99741 82.3932 2H82.3933C87.7926 -0.407522 93.91 -0.650735 99.4833 1.32053C104.31 3.02495 107.953 6.91078 109.907 11.6423C111.047 14.4041 113.501 16.8236 117.061 18.955C120.358 20.8629 123.045 23.6698 124.807 27.0477C127.152 31.7148 127.313 36.4128 124.24 41.1569C135.748 53.2465 135.78 71.4132 133.655 90.7225Z" fill="#2F2E41"/>
<path d="M127.028 253.121C125.056 255.487 122.395 257.179 119.415 257.96C116.436 258.741 113.286 258.572 110.407 257.477C88.5513 259.498 70.8395 244.115 51.8714 229.506L56.3323 217.61L19.1581 191.341L35.0191 181.428L69.2194 168.541L126.765 233.874C129.098 236.523 130.407 239.919 130.455 243.449C130.504 246.978 129.288 250.409 127.028 253.121Z" fill="#2F2E41"/>
<path d="M91.524 51.5655C103.021 51.5655 112.342 42.2452 112.342 30.748C112.342 19.2508 103.021 9.93042 91.524 9.93042C80.0268 9.93042 70.7064 19.2508 70.7064 30.748C70.7064 42.2452 80.0268 51.5655 91.524 51.5655Z" fill="#FFB8B8"/>
<path d="M101.437 75.8527L77.1498 78.331C78.4529 64.1307 78.966 51.0271 77.1498 41.1567H101.437C96.8244 56.8718 97.2291 68.073 101.437 75.8527Z" fill="#FFB8B8"/>
<path d="M70.7063 153.671L31.0538 132.358C45.3546 115.779 51.4022 89.899 54.2164 60.3745C54.6923 55.3818 58.5112 55.552 63.5193 55.2832C68.8054 54.9994 74.001 52.2012 78.6368 55.0353L92.0196 69.905L98.4631 62.9658L111.124 68.3921C112.422 68.9481 113.473 69.9562 114.083 71.2289C114.694 72.5017 114.821 73.9527 114.442 75.3124C114.207 99.1943 111.314 120.183 98.9587 130.871L88.55 141.775L70.7063 153.671Z" fill="#6C63FF"/>
<path opacity="0.2" d="M86.5674 238.428C86.5674 238.428 67.654 220.794 54.8062 221.68L86.5674 238.428Z" fill="black"/>
<path d="M56.1324 223.549L51.6448 250.223L36.7057 249.837L42.7016 221.824L56.1324 223.549Z" fill="#FFB8B8"/>
<path d="M66.6904 274.072C65.7402 274.1 64.7922 273.963 63.8891 273.666L39.7809 271.64C37.2518 270.416 35.2668 268.297 34.2099 265.694C33.153 263.09 33.0995 260.187 34.0597 257.547L36.7538 248.093C41.7566 250.717 46.9616 250.344 51.8714 246.358L73.1872 261.296C74.0143 262.506 74.5006 263.916 74.5952 265.379C74.6898 266.842 74.3891 268.303 73.7247 269.609C73.0604 270.916 72.0567 272.019 70.8191 272.804C69.5815 273.59 68.1554 274.027 66.6904 274.072Z" fill="#2F2E41"/>
<path d="M6.93588 238.212C6.90708 237.262 7.04439 236.314 7.34159 235.411L9.36793 211.302C10.5919 208.773 12.7107 206.788 15.314 205.731C17.9174 204.674 20.8202 204.621 23.4608 205.581L32.9143 208.275C30.2907 213.278 30.6636 218.483 34.6491 223.393L19.7113 244.709C18.5013 245.536 17.0911 246.022 15.6285 246.117C14.1659 246.211 12.7048 245.911 11.3983 245.246C10.0919 244.582 8.98826 243.578 8.20312 242.341C7.41799 241.103 6.98027 239.677 6.93588 238.212Z" fill="#2F2E41"/>
<path d="M57.3237 225.045L39.9757 224.054L40.4713 193.819L28.6756 194.5C11.3653 195.498 -2.6979 180.125 0.440735 163.073C0.505362 162.722 0.576464 162.37 0.654038 162.017C2.49258 154.005 7.28586 146.98 14.0767 142.347L32.0452 129.879L46.6671 136.075L58.2525 129.855C61.4467 128.502 64.9367 127.998 68.3832 128.393C71.8297 128.787 75.1155 130.067 77.9211 132.107C81.5293 134.732 84.1622 138.482 85.4049 142.767C86.6477 147.052 86.4298 151.628 84.7855 155.776L57.3237 225.045Z" fill="#2F2E41"/>
<path opacity="0.2" d="M47.4104 168.541C47.4104 168.541 39.4799 184.402 40.4713 193.819L47.4104 168.541Z" fill="black"/>
<path opacity="0.2" d="M76.9021 88.9878L81.2445 108.914L107.633 131.614L84.3369 107.823L76.9021 88.9878Z" fill="black"/>
<path opacity="0.2" d="M52.6149 98.4053L60.5454 130.623L83.8412 139.049L62.0323 128.145L52.6149 98.4053Z" fill="black"/>
<path d="M116.555 31.9874C101.212 24.9285 83.8654 22.9159 68.476 30.5004L70.4586 12.6568L104.163 7.20459L116.555 31.9874Z" fill="#2F2E41"/>
<path d="M138.859 174.736C138.202 174.737 137.572 174.998 137.108 175.463C136.643 175.927 136.382 176.557 136.381 177.214V269.406C136.382 270.063 136.643 270.693 137.108 271.158C137.572 271.623 138.202 271.884 138.859 271.885H348.522C349.179 271.884 349.809 271.623 350.273 271.158C350.738 270.693 350.999 270.063 351 269.406V177.214C350.999 176.557 350.738 175.927 350.273 175.463C349.809 174.998 349.179 174.737 348.522 174.736H138.859Z" fill="#E6E6E6"/>
<path d="M141.337 176.967C140.615 176.968 139.922 177.255 139.411 177.766C138.9 178.277 138.612 178.97 138.611 179.693V266.928C138.612 267.651 138.9 268.344 139.411 268.855C139.922 269.366 140.615 269.654 141.337 269.655H346.043C346.766 269.654 347.459 269.366 347.97 268.855C348.481 268.344 348.769 267.651 348.769 266.928V179.693C348.769 178.97 348.481 178.277 347.97 177.766C347.459 177.255 346.766 176.968 346.043 176.967H141.337Z" fill="white"/>
<path d="M145.888 173.661C144.977 174.513 143.882 175.142 142.689 175.5C141.495 175.859 140.234 175.936 139.005 175.726C137.777 175.516 136.613 175.024 135.606 174.29C134.599 173.556 133.775 172.598 133.199 171.493L125.724 157.141L128.698 150.697L144.723 160.953C145.76 161.617 146.632 162.508 147.271 163.56C147.911 164.612 148.302 165.796 148.414 167.022C148.527 168.248 148.358 169.484 147.92 170.634C147.482 171.785 146.787 172.82 145.888 173.661Z" fill="#FFB8B8"/>
<path d="M123.465 159.199L62.1882 127.373C61.9056 127.226 61.6575 127.021 61.4603 126.77C61.2632 126.52 61.1216 126.231 61.0449 125.922L47.7524 72.349C46.9811 69.2405 47.3976 65.9561 48.9203 63.1384C50.443 60.3207 52.9623 58.1727 55.9853 57.1147L59.1876 55.9939C59.9015 55.744 60.659 55.6433 61.4134 55.6981C62.1677 55.7528 62.9028 55.9618 63.5731 56.3122C64.2435 56.6625 64.8347 57.1467 65.3103 57.7348C65.786 58.3228 66.1358 59.0023 66.3383 59.731L79.4399 106.897C79.5625 107.338 79.8173 107.732 80.1701 108.024L130.097 149.392C130.527 149.748 130.809 150.253 130.887 150.807C130.965 151.361 130.833 151.924 130.517 152.386L126.351 158.475C126.041 158.927 125.577 159.25 125.045 159.384C124.514 159.517 123.952 159.451 123.465 159.199Z" fill="#6C63FF"/>
<path d="M176.44 220.052C184.445 220.052 190.934 213.562 190.934 205.557C190.934 197.552 184.445 191.063 176.44 191.063C168.435 191.063 161.945 197.552 161.945 205.557C161.945 213.562 168.435 220.052 176.44 220.052Z" fill="#6C63FF"/>
<path d="M209.915 195.894C209.275 195.895 208.662 196.15 208.21 196.603C207.757 197.056 207.503 197.67 207.503 198.31C207.503 198.95 207.757 199.564 208.21 200.017C208.662 200.47 209.275 200.725 209.915 200.726H323.801C324.442 200.726 325.057 200.471 325.51 200.018C325.963 199.565 326.217 198.95 326.217 198.31C326.217 197.669 325.963 197.055 325.51 196.602C325.057 196.149 324.442 195.894 323.801 195.894H209.915Z" fill="#E6E6E6"/>
<path d="M209.916 210.389C209.275 210.389 208.66 210.643 208.207 211.096C207.754 211.549 207.5 212.164 207.5 212.804C207.5 213.445 207.754 214.06 208.207 214.513C208.66 214.966 209.275 215.22 209.916 215.22H258.921C259.239 215.221 259.553 215.158 259.846 215.037C260.14 214.916 260.407 214.738 260.631 214.514C260.856 214.289 261.034 214.023 261.156 213.73C261.278 213.436 261.34 213.122 261.34 212.804C261.34 212.487 261.278 212.172 261.156 211.879C261.034 211.586 260.856 211.319 260.631 211.095C260.407 210.871 260.14 210.693 259.846 210.572C259.553 210.45 259.239 210.388 258.921 210.389H209.916Z" fill="#E6E6E6"/>
<path d="M165.322 233.561C163.485 233.561 161.989 234.645 161.989 235.977C161.989 237.309 163.485 238.393 165.322 238.393H322.45C324.287 238.393 325.783 237.309 325.783 235.977C325.783 234.645 324.287 233.561 322.45 233.561H165.322Z" fill="#E6E6E6"/>
<path d="M165.322 248.056C163.485 248.056 161.989 249.14 161.989 250.471C161.989 251.803 163.485 252.887 165.322 252.887H322.45C324.287 252.887 325.783 251.803 325.783 250.471C325.783 249.14 324.287 248.056 322.45 248.056H165.322Z" fill="#E6E6E6"/>
</svg>
