<svg width="434" height="355" viewBox="0 0 434 355" fill="none" xmlns="http://www.w3.org/2000/svg">
<path d="M264 267V353H49.3537C24.8977 353 5 333.71 5 310C5 286.29 24.8977 267 49.3537 267H264Z" fill="#F2F2F2"/>
<path d="M269 351.715C269 352.586 268.652 353.422 268.034 354.038C267.416 354.653 266.578 355 265.703 355H45.163C33.185 355 21.6976 350.259 13.2279 341.82C4.75824 333.381 0 321.935 0 310C0 298.065 4.75824 286.619 13.2279 278.18C21.6976 269.741 33.185 265 45.163 265H265.703C266.578 265 267.416 265.346 268.034 265.962C268.653 266.578 269 267.414 269 268.285C269 269.156 268.653 269.991 268.034 270.607C267.416 271.223 266.578 271.569 265.703 271.569H45.163C34.9336 271.569 25.1232 275.618 17.89 282.825C10.6567 290.033 6.59314 299.808 6.59314 310C6.59314 320.192 10.6567 329.967 17.89 337.175C25.1232 344.382 34.9336 348.431 45.163 348.431H265.703C266.578 348.431 267.416 348.777 268.034 349.393C268.652 350.009 269 350.844 269 351.715Z" fill="#6C63FF"/>
<path d="M264.338 287H32.6619C32.4864 287 32.318 286.895 32.1939 286.707C32.0697 286.52 32 286.265 32 286C32 285.735 32.0697 285.48 32.1939 285.293C32.318 285.105 32.4864 285 32.6619 285H264.338C264.514 285 264.682 285.105 264.806 285.293C264.93 285.48 265 285.735 265 286C265 286.265 264.93 286.52 264.806 286.707C264.682 286.895 264.514 287 264.338 287Z" fill="#CCCCCC"/>
<path d="M264.338 303H32.6619C32.4864 303 32.318 302.895 32.1939 302.707C32.0697 302.52 32 302.265 32 302C32 301.735 32.0697 301.48 32.1939 301.293C32.318 301.105 32.4864 301 32.6619 301H264.338C264.514 301 264.682 301.105 264.806 301.293C264.93 301.48 265 301.735 265 302C265 302.265 264.93 302.52 264.806 302.707C264.682 302.895 264.514 303 264.338 303Z" fill="#CCCCCC"/>
<path d="M264.338 318H32.6619C32.4864 318 32.318 317.947 32.1939 317.854C32.0697 317.76 32 317.633 32 317.5C32 317.367 32.0697 317.24 32.1939 317.146C32.318 317.053 32.4864 317 32.6619 317H264.338C264.514 317 264.682 317.053 264.806 317.146C264.93 317.24 265 317.367 265 317.5C265 317.633 264.93 317.76 264.806 317.854C264.682 317.947 264.514 318 264.338 318Z" fill="#CCCCCC"/>
<path d="M430 283.114L376.193 350L208.885 214.977C189.823 199.593 186.383 172.073 201.217 153.633C216.051 135.193 243.63 132.707 262.693 148.091L430 283.114Z" fill="#F2F2F2"/>
<path d="M380.616 352.769C380.066 353.451 379.268 353.887 378.397 353.981C377.526 354.075 376.653 353.819 375.971 353.269L203.864 214.539C194.516 207.004 188.544 196.063 187.26 184.123C185.976 172.183 189.486 160.222 197.018 150.871C204.549 141.519 215.486 135.544 227.421 134.26C239.356 132.975 251.313 136.487 260.661 144.022L432.768 282.752C433.106 283.024 433.387 283.36 433.595 283.741C433.803 284.122 433.934 284.54 433.981 284.972C434.027 285.404 433.989 285.84 433.866 286.257C433.744 286.674 433.541 287.062 433.269 287.4C432.996 287.738 432.66 288.02 432.279 288.228C431.898 288.436 431.48 288.567 431.049 288.613C430.617 288.659 430.181 288.62 429.764 288.497C429.348 288.375 428.96 288.172 428.622 287.899L256.515 149.169C252.562 145.98 248.021 143.602 243.149 142.17C238.278 140.738 233.172 140.28 228.124 140.822C223.075 141.364 218.183 142.896 213.726 145.33C209.27 147.764 205.337 151.053 202.151 155.008C198.965 158.964 196.59 163.508 195.16 168.382C193.73 173.256 193.274 178.364 193.818 183.414C194.363 188.464 195.896 193.358 198.331 197.815C200.766 202.272 204.055 206.206 208.01 209.392L380.117 348.122C380.799 348.672 381.234 349.471 381.328 350.342C381.422 351.213 381.166 352.086 380.616 352.769Z" fill="#CCCCCC"/>
<path d="M417.926 298.853L238.246 153.18C238.178 153.125 238.122 153.058 238.081 152.981C238.039 152.905 238.013 152.821 238.004 152.734C237.995 152.648 238.002 152.56 238.027 152.477C238.051 152.393 238.092 152.315 238.146 152.247C238.2 152.179 238.267 152.123 238.343 152.081C238.419 152.039 238.503 152.013 238.589 152.004C238.675 151.994 238.762 152.002 238.845 152.027C238.928 152.051 239.006 152.092 239.073 152.147L418.754 297.82C418.821 297.874 418.877 297.942 418.919 298.018C418.961 298.095 418.987 298.179 418.996 298.265C419.005 298.352 418.998 298.44 418.973 298.523C418.949 298.607 418.908 298.685 418.854 298.753C418.8 298.821 418.733 298.877 418.657 298.919C418.58 298.961 418.497 298.987 418.411 298.996C418.325 299.006 418.238 298.998 418.154 298.973C418.071 298.948 417.994 298.907 417.926 298.853V298.853Z" fill="#CCCCCC"/>
<path d="M407.926 310.854L228.245 166.171C228.109 166.062 228.022 165.902 228.004 165.729C227.985 165.555 228.036 165.381 228.146 165.245C228.256 165.11 228.415 165.023 228.588 165.004C228.762 164.985 228.936 165.036 229.072 165.145L408.754 309.828C408.821 309.882 408.877 309.949 408.919 310.025C408.961 310.101 408.987 310.184 408.996 310.27C409.006 310.356 408.998 310.443 408.973 310.527C408.949 310.61 408.908 310.687 408.854 310.755C408.8 310.822 408.733 310.878 408.657 310.92C408.581 310.961 408.497 310.987 408.411 310.996C408.325 311.005 408.238 310.998 408.154 310.973C408.071 310.949 407.994 310.908 407.926 310.854Z" fill="#CCCCCC"/>
<path d="M397.927 322.854L218.246 178.172C218.11 178.062 218.022 177.903 218.004 177.729C217.985 177.556 218.036 177.382 218.146 177.245C218.256 177.109 218.415 177.022 218.589 177.004C218.763 176.985 218.937 177.036 219.073 177.146L398.754 321.828C398.822 321.882 398.878 321.949 398.919 322.025C398.961 322.101 398.987 322.185 398.996 322.271C399.005 322.357 398.998 322.444 398.973 322.527C398.949 322.61 398.908 322.687 398.854 322.755C398.8 322.822 398.733 322.878 398.657 322.919C398.581 322.961 398.497 322.987 398.411 322.996C398.325 323.005 398.238 322.998 398.155 322.973C398.072 322.949 397.995 322.908 397.927 322.854V322.854Z" fill="#CCCCCC"/>
<path d="M387.926 335.853L208.246 190.18C208.178 190.125 208.122 190.058 208.081 189.981C208.039 189.905 208.013 189.821 208.004 189.734C207.995 189.648 208.002 189.56 208.027 189.477C208.051 189.393 208.092 189.315 208.146 189.247C208.2 189.179 208.267 189.123 208.343 189.081C208.419 189.039 208.503 189.013 208.589 189.004C208.675 188.994 208.762 189.002 208.845 189.027C208.928 189.051 209.006 189.092 209.073 189.147L388.754 334.82C388.821 334.874 388.877 334.942 388.919 335.018C388.961 335.095 388.987 335.179 388.996 335.265C389.005 335.352 388.998 335.44 388.973 335.523C388.949 335.607 388.908 335.685 388.854 335.753C388.8 335.821 388.733 335.877 388.657 335.919C388.58 335.961 388.497 335.987 388.411 335.996C388.325 336.006 388.238 335.998 388.154 335.973C388.071 335.948 387.994 335.907 387.926 335.853Z" fill="#CCCCCC"/>
<path d="M173.997 258L166.545 257.999L163 229L174 229.001L173.997 258Z" fill="#FFB8B8"/>
<path d="M161.273 256H176V265H152C152 263.818 152.24 262.648 152.706 261.556C153.172 260.464 153.855 259.472 154.716 258.636C155.577 257.8 156.599 257.137 157.724 256.685C158.849 256.233 160.055 256 161.273 256Z" fill="#2F2E41"/>
<path d="M96.9974 258L89.5445 257.999L86 229L97 229.001L96.9974 258Z" fill="#FFB8B8"/>
<path d="M84.2727 256H99V265H75C75 263.818 75.2398 262.648 75.7058 261.556C76.1718 260.464 76.8549 259.472 77.7159 258.636C78.577 257.8 79.5992 257.137 80.7242 256.685C81.8492 256.233 83.055 256 84.2727 256Z" fill="#2F2E41"/>
<path d="M122 41.6281V38.3223C122 32.6673 124.265 27.2439 128.297 23.2452C132.329 19.2465 137.798 17 143.5 17H143.5C149.202 17 154.671 19.2465 158.703 23.2452C162.735 27.2439 165 32.6673 165 38.3223V41.6281C165 45.705 163.367 49.6149 160.46 52.4977C157.553 55.3805 153.611 57 149.5 57H137.5C135.465 57 133.449 56.6024 131.568 55.8299C129.688 55.0574 127.979 53.9251 126.54 52.4977C125.101 51.0703 123.959 49.3757 123.18 47.5107C122.401 45.6457 122 43.6468 122 41.6281Z" fill="#2F2E41"/>
<path d="M143.5 59C152.613 59 160 51.6127 160 42.5C160 33.3873 152.613 26 143.5 26C134.387 26 127 33.3873 127 42.5C127 51.6127 134.387 59 143.5 59Z" fill="#FFB8B8"/>
<path d="M54.9826 97.7618C55.6414 97.1139 56.4286 96.6243 57.2887 96.3275C58.1488 96.0307 59.0609 95.934 59.9608 96.0441C60.8607 96.1542 61.7265 96.4684 62.4972 96.9648C63.2678 97.4611 63.9246 98.1273 64.4213 98.9166L78.3377 96.1748L82 104.577L62.2952 108.161C60.9669 108.943 59.4095 109.189 57.9183 108.854C56.427 108.519 55.1055 107.626 54.2041 106.345C53.3028 105.063 52.8842 103.481 53.0276 101.899C53.1711 100.317 53.8667 98.8452 54.9826 97.7618V97.7618Z" fill="#FFB8B8"/>
<path d="M130.619 68.8096L130.801 69.0842L108.03 84.0535L69.6058 96.2974C69.0965 96.4607 68.6596 96.7951 68.3695 97.2437C68.0795 97.6923 67.9542 98.2273 68.015 98.7577L68.8532 105.962C68.8904 106.281 68.9939 106.589 69.1572 106.865C69.3205 107.142 69.5399 107.381 69.8013 107.568C70.0627 107.756 70.3605 107.886 70.6754 107.952C70.9903 108.017 71.3155 108.016 71.63 107.949L107.792 100.214C109.543 99.8416 111.197 99.1145 112.654 98.0778L138.236 79.9147C139.164 79.2527 139.904 78.3625 140.384 77.3305C140.865 76.2986 141.07 75.1602 140.979 74.0259C140.885 72.8901 140.497 71.7982 139.852 70.8576C139.207 69.9171 138.327 69.1603 137.301 68.6617C136.274 68.163 135.134 67.9398 133.994 68.0139C132.855 68.088 131.754 68.4569 130.801 69.0842L130.619 68.8096Z" fill="#CCCCCC"/>
<path d="M166.721 250C166.144 250 165.579 249.831 165.095 249.515C164.612 249.198 164.231 248.747 163.999 248.216L129.522 162.701C129.441 162.516 129.306 162.36 129.134 162.253C128.963 162.147 128.763 162.097 128.562 162.108C128.36 162.119 128.168 162.192 128.009 162.317C127.85 162.442 127.733 162.612 127.674 162.806L99.5461 246.058C99.4273 246.445 99.2309 246.804 98.9688 247.112C98.7068 247.421 98.3847 247.672 98.0223 247.851C97.6599 248.03 97.2649 248.132 96.8615 248.152C96.4582 248.172 96.0551 248.109 95.6769 247.967L86.2446 244.416C85.7327 244.225 85.2835 243.895 84.9471 243.464C84.6106 243.032 84.4001 242.515 84.3389 241.97C80.0955 204.864 117.099 111.202 117.474 110.261L117.577 110L151.309 117.49L151.379 117.567C164.837 132.304 175.899 225.257 177.98 243.741C178.058 244.409 177.906 245.083 177.551 245.653C177.196 246.222 176.658 246.654 176.026 246.875L167.7 249.831C167.385 249.943 167.054 250 166.721 250Z" fill="#2F2E41"/>
<path d="M137.734 120C129.655 120 120.648 118.377 117.876 111.678L117.812 111.525L117.898 111.382C120.087 107.764 122.979 101.593 121.424 100.434C118.362 98.153 116.876 94.3999 117.008 89.2792C117.294 78.1631 124.812 68.2937 135.714 64.7205H135.714C138.757 63.7392 141.854 62.9358 144.989 62.3143C147.274 61.8496 149.633 61.9007 151.897 62.464C154.16 63.0272 156.272 64.0885 158.08 65.5718C159.911 67.0648 161.391 68.9478 162.414 71.0855C163.436 73.2233 163.976 75.5628 163.995 77.9359C164.109 89.8154 162.294 106.361 152.998 117.72C152.562 118.247 151.956 118.603 151.285 118.723C146.813 119.539 142.279 119.966 137.734 120Z" fill="#CCCCCC"/>
<path d="M134.238 119.939C134.688 118.304 135.756 116.915 137.211 116.074C138.666 115.233 140.389 115.007 142.007 115.447C142.337 115.54 142.659 115.661 142.97 115.808L153.604 106L161 111.05L145.792 124.688C145.106 125.943 144.025 126.929 142.721 127.489C141.418 128.05 139.967 128.152 138.599 127.78C137.803 127.559 137.057 127.181 136.406 126.666C135.755 126.151 135.211 125.511 134.805 124.782C134.4 124.053 134.141 123.249 134.044 122.418C133.946 121.587 134.012 120.744 134.238 119.939Z" fill="#FFB8B8"/>
<path d="M152.214 120C151.521 120 150.85 119.763 150.314 119.328L146.104 115.917C145.753 115.632 145.471 115.273 145.28 114.865C145.089 114.458 144.993 114.013 145 113.563C145.007 113.114 145.117 112.672 145.32 112.271C145.524 111.869 145.817 111.519 146.176 111.245L163.835 97.8174C164.044 97.6574 164.182 97.4221 164.217 97.1624C164.253 96.9028 164.183 96.6397 164.024 96.4304L153.125 82.1441C151.859 80.4899 151.224 78.4447 151.332 76.3708C151.441 74.2968 152.286 72.3278 153.718 70.8123C155.226 69.1973 157.292 68.2034 159.504 68.0279C161.717 67.8525 163.916 68.5082 165.664 69.865L165.733 69.9371L177.114 86.0946C178.345 87.0513 179.336 88.2772 180.01 89.6764C180.684 91.0756 181.022 92.6103 180.999 94.1607C180.976 95.7111 180.591 97.2351 179.876 98.6139C179.16 99.9926 178.133 101.189 176.874 102.109L154.003 119.416C153.485 119.795 152.858 120 152.214 120Z" fill="#CCCCCC"/>
<path d="M129 37.649V29.4173L143.333 23L157 29.4173V37.649C157 38.0073 156.861 38.3509 156.614 38.6043C156.367 38.8577 156.032 39 155.682 39H130.318C129.968 39 129.633 38.8577 129.386 38.6043C129.139 38.3509 129 38.0073 129 37.649Z" fill="#2F2E41"/>
<path d="M142.53 18.5088C140.423 11.7165 144.849 3.9322 151.392 1.24363C157.936 -1.44494 165.764 0.434453 171.285 4.87637C176.807 9.31829 180.232 15.9715 182.047 22.8488C183.862 29.7262 184.207 36.8977 184.542 44.0058C192.581 45.4927 198.05 55.0942 195.265 62.8322C192.48 70.5702 182.172 74.4144 175.053 70.37C167.934 66.3255 165.872 55.4536 171.01 49.0523C173.441 46.0234 174.799 42.2643 174.869 38.3705C174.939 34.4766 173.717 30.6706 171.396 27.5553C169.075 24.4399 165.788 22.1933 162.056 21.1712C158.324 20.1491 154.36 20.41 150.792 21.9125C146.829 23.5809 141.858 19.246 142.53 18.5088Z" fill="#2F2E41"/>
<path d="M52.5 67C42.9228 66.9364 33.4652 64.8415 24.7385 60.8505C24.219 60.6164 23.7781 60.2345 23.4694 59.7513C23.1607 59.2682 22.9976 58.7047 23 58.1295V33.9836C23.0009 33.1926 23.312 32.4342 23.865 31.8748C24.4181 31.3155 25.1679 31.0009 25.95 31H79.05C79.8321 31.0009 80.5819 31.3155 81.135 31.8749C81.688 32.4342 81.9991 33.1926 82 33.9836V58.1295C82.0024 58.7047 81.8393 59.2682 81.5306 59.7514C81.222 60.2345 80.781 60.6164 80.2615 60.8506C71.5348 64.8415 62.0772 66.9364 52.5 67Z" fill="#6C63FF"/>
<path d="M52.2826 47C51.887 47.0003 51.4953 46.9213 51.1305 46.7674L8.81227 28.8402C8.26655 28.6091 7.80229 28.2191 7.47936 27.7205C7.15644 27.2219 6.98965 26.6377 7.0005 26.0431C7.01135 25.4485 7.19936 24.8707 7.54026 24.3844C7.88117 23.898 8.35933 23.5254 8.91313 23.3145L51.2319 7.19446C51.9135 6.93363 52.6672 6.93524 53.3477 7.19898L95.0994 23.3189C95.65 23.5316 96.125 23.9043 96.4635 24.3895C96.802 24.8747 96.9886 25.4502 96.9995 26.0425C97.0104 26.6348 96.8451 27.2169 96.5247 27.7143C96.2043 28.2117 95.7433 28.6018 95.2009 28.8347L53.4487 46.7616C53.08 46.9193 52.6833 47.0004 52.2826 47Z" fill="#6C63FF"/>
<path d="M28 62C30.2091 62 32 60.2091 32 58C32 55.7909 30.2091 54 28 54C25.7909 54 24 55.7909 24 58C24 60.2091 25.7909 62 28 62Z" fill="#3F3D56"/>
<path opacity="0.2" d="M95.4059 27.0617L53.8141 44.2574C53.4898 44.3915 53.141 44.461 52.7883 44.4618C52.4357 44.4626 52.0865 44.3948 51.7615 44.2622L9.60604 27.0668C9.07663 26.856 8.63495 26.4806 8.3508 26C8.16491 26.3117 8.04974 26.658 8.01289 27.016C7.97605 27.3739 8.01839 27.7354 8.13711 28.0764C8.25583 28.4173 8.4482 28.7299 8.70146 28.9935C8.95472 29.257 9.26307 29.4655 9.60604 29.605L51.7615 46.8004C52.0865 46.9329 52.4357 47.0008 52.7883 47C53.141 46.9992 53.4898 46.9297 53.8141 46.7956L95.4059 29.5999C95.7471 29.4592 96.0536 29.2501 96.3051 28.9864C96.5566 28.7228 96.7474 28.4105 96.8649 28.0703C96.9824 27.7301 97.024 27.3697 96.9868 27.0128C96.9496 26.6559 96.8346 26.3107 96.6493 26C96.3672 26.4767 95.9301 26.85 95.4059 27.0617Z" fill="black"/>
<path d="M27.6667 58C27.8436 58 28.0132 57.9305 28.1382 57.8067C28.2632 57.6829 28.3335 57.515 28.3335 57.3399V35.2516L50.3233 27.3202C50.5001 27.3228 50.6707 27.2558 50.7976 27.1338C50.9245 27.0119 50.9973 26.845 50.9999 26.6699C51.0026 26.4949 50.9348 26.3259 50.8117 26.2003C50.6885 26.0747 50.5199 26.0026 50.3431 26L28.3533 33.9313C28.1764 33.9273 28.0004 33.9589 27.8362 34.0242C27.6719 34.0894 27.5227 34.187 27.3977 34.311C27.2713 34.4336 27.171 34.5799 27.1027 34.7415C27.0344 34.903 26.9995 35.0765 27 35.2516V57.3399C27 57.515 27.0703 57.6829 27.1953 57.8066C27.3203 57.9304 27.4899 58 27.6667 58Z" fill="#3F3D56"/>
</svg>
