<svg width="561" height="544" viewBox="0 0 561 544" fill="none" xmlns="http://www.w3.org/2000/svg">
<g opacity="0.5">
<path opacity="0.5" d="M343.222 -9.39059e-05L47.6248 134.836L233.926 543.26L529.524 408.424L343.222 -9.39059e-05Z" fill="url(#paint0_linear)"/>
</g>
<path d="M340.83 4.72407L52.7539 136.129L234.938 535.527L523.014 404.121L340.83 4.72407Z" fill="white"/>
<path d="M263.816 27.108L120.906 92.2964L136.696 126.914L279.607 61.7254L263.816 27.108Z" fill="url(#paint1_linear)"/>
<path d="M176.925 25.8698C165.894 30.9033 161.127 44.1398 166.281 55.4365C171.435 66.7332 184.557 71.811 195.588 66.7776C206.618 61.7442 211.385 48.5076 206.231 37.2109C201.077 25.9142 187.955 20.8364 176.925 25.8698ZM191.638 58.1244C189.317 59.2504 186.713 59.6591 184.159 59.2983C181.605 58.9374 179.216 57.8234 177.297 56.0986C175.379 54.3737 174.019 52.1162 173.389 49.6144C172.76 47.1126 172.891 44.48 173.765 42.0528C174.639 39.6257 176.216 37.5141 178.296 35.9877C180.376 34.4614 182.863 33.5895 185.441 33.4835C188.018 33.3776 190.569 34.0422 192.767 35.3927C194.965 36.7431 196.711 38.718 197.781 41.0652C198.498 42.5891 198.908 44.2393 198.988 45.9217C199.067 47.6041 198.815 49.2856 198.244 50.8703C197.674 52.455 196.797 53.9118 195.663 55.1576C194.53 56.4033 193.162 57.4136 191.638 58.1307V58.1244Z" fill="url(#paint2_linear)"/>
<path d="M262.318 27.8203L122.418 91.6353L137.514 124.73L277.414 60.915L262.318 27.8203Z" fill="#6C63FF"/>
<path d="M177.609 27.3783C173.741 29.1423 170.482 32.0138 168.246 35.6299C166.009 39.2459 164.895 43.444 165.045 47.6932C165.194 51.9423 166.6 56.0518 169.085 59.5018C171.57 62.9518 175.023 65.5873 179.006 67.0752C182.989 68.563 187.323 68.8363 191.462 67.8605C195.6 66.8847 199.356 64.7036 202.255 61.5931C205.153 58.4825 207.064 54.5823 207.746 50.3855C208.428 46.1887 207.85 41.884 206.086 38.0157C203.72 32.8292 199.391 28.7949 194.05 26.8001C188.71 24.8052 182.796 25.0132 177.609 27.3783ZM191.676 58.2192C189.445 59.2364 186.962 59.5692 184.542 59.1755C182.122 58.7818 179.872 57.6793 178.078 56.0074C176.285 54.3354 175.027 52.1692 174.464 49.7824C173.901 47.3957 174.059 44.8957 174.917 42.5985C175.775 40.3013 177.294 38.31 179.284 36.8764C181.273 35.4429 183.643 34.6314 186.094 34.5446C188.545 34.4578 190.966 35.0996 193.052 36.3888C195.138 37.6781 196.795 39.5568 197.813 41.7876C199.177 44.7795 199.297 48.1907 198.146 51.2709C196.995 54.3512 194.668 56.8482 191.676 58.2128V58.2192Z" fill="#6C63FF"/>
<path d="M157.481 166.506L95.8018 194.641L123.937 256.32L185.616 228.185L157.481 166.506Z" fill="url(#paint3_linear)"/>
<path d="M213.445 288.639L151.766 316.774L179.901 378.453L241.58 350.318L213.445 288.639Z" fill="url(#paint4_linear)"/>
<path d="M156.249 169.792L99.0857 195.867L125.161 253.03L182.324 226.955L156.249 169.792Z" fill="#69F0AE"/>
<path d="M211.488 290.886L154.325 316.96L180.4 374.123L237.563 348.049L211.488 290.886Z" fill="#6C63FF"/>
<path d="M280.259 134.544L201.906 170.285L204.4 175.753L282.753 140.012L280.259 134.544Z" fill="#E0E0E0"/>
<path d="M335.025 119.472L205.651 178.485L208.145 183.953L337.519 124.939L335.025 119.472Z" fill="#E0E0E0"/>
<path d="M329.647 131.829L209.386 186.686L211.88 192.153L332.141 137.296L329.647 131.829Z" fill="#E0E0E0"/>
<path d="M335.501 255.644L257.148 291.384L259.642 296.852L337.995 261.111L335.501 255.644Z" fill="#E0E0E0"/>
<path d="M390.264 240.566L260.891 299.58L263.385 305.047L392.759 246.034L390.264 240.566Z" fill="#E0E0E0"/>
<path d="M384.889 252.928L264.628 307.785L267.122 313.253L387.383 258.396L384.889 252.928Z" fill="#E0E0E0"/>
<path d="M126.178 213.92L140.898 218.7L145.741 190.37L152.905 192.328L144.848 227.353L122.647 217.622L126.178 213.92Z" fill="url(#paint5_linear)"/>
<path d="M128.055 213.546L140.854 217.698L145.063 193.063L151.288 194.769L144.283 225.223L124.98 216.766L128.055 213.546Z" fill="white"/>
<path d="M183.638 335.395L196.437 339.547L200.647 314.912L206.872 316.617L199.867 347.072L180.564 338.615L183.638 335.395Z" fill="white"/>
<path d="M429.368 338.252L246.592 421.625L274.382 482.549L457.159 399.176L429.368 338.252Z" fill="#E0E0E0"/>
<path d="M402.871 386.807C395.847 384.803 388.659 385.184 386.421 393.216C385.666 395.923 385.578 400.126 382.674 401.52C378.402 403.574 373.248 399.466 369.539 397.793C362.629 394.674 355.536 396.797 351.535 403.352C349.507 406.674 348.638 410.497 347.947 414.281C347.649 415.923 347.611 417.952 346.92 419.499C345.596 422.459 341.45 422.193 338.73 422.079C338.134 422.079 337.526 422.009 336.917 421.946C339.067 418.983 340.141 415.376 339.96 411.72C339.782 405.717 335.884 399.149 329.069 399.885C322.964 400.519 318.666 406.414 319.351 412.379C319.934 417.451 323.237 421.381 327.471 423.79C325.392 424.709 323.173 425.426 321.208 426.377C320.29 426.821 319.399 427.318 318.539 427.866C312.599 425.001 304.796 424.462 299.451 427.385C296.865 428.798 298.754 433.001 301.353 431.575C305.423 429.35 309.911 429.908 314.165 431.321L314.52 431.448C314.1 431.987 313.728 432.562 313.411 433.166C311.008 437.832 313.411 445.211 319.256 445.718C327.497 446.422 327.883 435.531 323.408 431.195C323.218 431.011 323.027 430.833 322.825 430.662C324.676 429.768 326.679 429.096 328.448 428.342C329.989 427.689 331.455 426.873 332.822 425.908L333.139 425.99C339.434 427.416 349.26 427.86 351.523 420.234C353.463 413.616 353.646 399.561 364.106 400.861C368.373 401.387 371.872 404.664 375.929 405.85C379.562 406.934 383.765 406.978 386.744 404.303C389.204 402.097 389.755 398.839 390.51 395.796C390.896 394.224 391.277 392.347 392.557 391.225C394.871 389.203 398.694 390.395 401.274 391.13C404.095 391.929 405.731 387.618 402.871 386.807ZM321.094 440.431C319.706 441.807 318.235 440.716 317.493 439.277C316.593 437.528 316.98 435.803 318.127 434.263C318.315 434.011 318.516 433.77 318.729 433.54C321.474 435.315 323.718 437.857 321.119 440.431H321.094ZM325.963 406.199C328.815 403.549 332.79 404.132 334.489 407.771C336.188 411.41 335.44 416.544 333.056 419.752C332.74 420.173 332.39 420.567 332.01 420.931C330.349 420.376 328.813 419.499 327.49 418.351C324.118 415.308 322.21 409.685 325.988 406.18L325.963 406.199Z" fill="#6C63FF"/>
<path d="M440.888 140.542L389.717 160.492C380.094 159.776 359.846 157.164 339.751 147.687C317.379 137.138 291.749 137.163 270.018 148.213C219.937 149.411 192.374 142.996 177.666 136.922L181.546 128.96L129.678 108.738L0 50.6187V288.826L45.3834 309.048L69.7264 250.65L123.186 275.374L133.449 249.294L168.55 275.342L170.94 277.352L167.65 280.768C164.634 283.954 162.952 288.175 162.952 292.563C162.952 296.95 164.634 301.171 167.65 304.357C169.11 305.9 170.869 307.13 172.82 307.97C174.771 308.81 176.873 309.243 178.998 309.243C181.122 309.243 183.224 308.81 185.175 307.97C187.126 307.13 188.885 305.9 190.345 304.357L188.545 306.259C185.528 309.445 183.847 313.666 183.847 318.053C183.847 322.441 185.528 326.662 188.545 329.848C190.005 331.391 191.764 332.62 193.715 333.46C195.666 334.3 197.768 334.733 199.892 334.733C202.016 334.733 204.118 334.3 206.069 333.46C208.02 332.62 209.78 331.391 211.24 329.848L221.636 319.039L214.498 326.456C211.481 329.642 209.8 333.863 209.8 338.25C209.8 342.638 211.481 346.859 214.498 350.045C215.958 351.588 217.717 352.817 219.668 353.657C221.619 354.497 223.721 354.931 225.845 354.931C227.97 354.931 230.072 354.497 232.023 353.657C233.974 352.817 235.733 351.588 237.193 350.045L247.456 339.376L243.139 343.864C241.03 346.09 239.855 349.039 239.855 352.105C239.855 355.171 241.03 358.121 243.139 360.346C244.159 361.424 245.387 362.282 246.75 362.868C248.112 363.455 249.58 363.757 251.063 363.757C252.547 363.757 254.014 363.455 255.377 362.868C256.739 362.282 257.968 361.424 258.987 360.346L265.834 353.233C277.593 361.823 287.109 368.093 291.768 369.716C311.186 376.448 311.186 362.964 311.186 362.964C337.12 376.442 350.09 349.487 350.09 349.487C382.51 362.964 382.51 329.264 382.51 329.264C390.611 334.881 396.456 332.307 400.539 327.363C406.098 320.656 406.777 311.191 402.96 303.596L433.947 274.962L447.348 302.36L500.808 277.637L525.151 331.604L561 315.597V79.8811L440.888 140.542Z" fill="url(#paint6_linear)"/>
<path d="M432.28 265.281L375.847 315.438L331.959 233.927L432.28 208.848V265.281Z" fill="#BE7C5E"/>
<path d="M162.667 133.606C162.667 133.606 180.779 158.685 288.066 152.415L350.768 246.466L392.786 293.738C399.385 301.168 399.759 312.433 393.28 319.964C389.343 324.535 383.682 326.937 375.847 321.707C375.847 321.707 375.847 353.055 344.499 340.516C344.499 340.516 331.96 365.595 306.881 353.055C306.881 353.055 306.881 365.595 288.072 359.325C269.263 353.055 168.937 271.551 168.937 271.551L125.05 240.202L162.667 133.606Z" fill="#FDA57D"/>
<path d="M388.386 164.961C388.386 164.961 361.292 164.961 334.502 152.796C310.14 141.746 281.771 143.154 259.292 157.658C240.971 169.481 225.097 189.057 225.395 221.388C225.395 221.388 249.776 246.466 275.552 196.309H294.361C294.361 196.309 312.472 259.012 363.333 252.729C414.194 246.447 426.035 240.19 426.035 240.19L388.386 164.961Z" fill="#BE7C5E"/>
<path d="M223.778 288.767L221.743 286.732C216.245 281.233 207.33 281.233 201.832 286.732L187.259 301.305C181.76 306.803 181.76 315.718 187.259 321.216L189.294 323.251C194.792 328.75 203.707 328.75 209.205 323.251L223.778 308.678C229.277 303.18 229.277 294.265 223.778 288.767Z" fill="#BE7C5E"/>
<path d="M203.57 265.08L201.535 263.045C196.036 257.547 187.121 257.547 181.623 263.045L167.05 277.618C161.552 283.117 161.552 292.031 167.05 297.53L169.085 299.565C174.584 305.063 183.498 305.063 188.997 299.565L203.57 284.992C209.068 279.494 209.068 270.579 203.57 265.08Z" fill="#BE7C5E"/>
<path d="M251.989 304.436L249.954 302.401C244.455 296.902 235.541 296.902 230.042 302.401L212.336 320.107C206.838 325.605 206.838 334.52 212.336 340.019L214.371 342.054C219.87 347.552 228.784 347.552 234.283 342.054L251.989 324.347C257.487 318.849 257.487 309.934 251.989 304.436Z" fill="#BE7C5E"/>
<path d="M266.837 326.251L265.416 324.83C261.577 320.991 255.351 320.991 251.511 324.83L240.336 336.006C236.497 339.845 236.497 346.071 240.336 349.911L241.757 351.332C245.597 355.171 251.822 355.171 255.662 351.332L266.837 340.156C270.677 336.317 270.677 330.091 266.837 326.251Z" fill="#BE7C5E"/>
<path d="M494.976 277.82L438.549 302.898L382.117 164.961L432.28 146.152L494.976 277.82Z" fill="white"/>
<path d="M68.6233 246.472L125.05 271.551L181.483 133.613L131.319 114.798L68.6233 246.472Z" fill="white"/>
<path d="M5.9209 58.3711L131.319 114.798L49.8145 302.899L5.9209 284.09V58.3711Z" fill="#333333"/>
<path d="M557.678 89.7192L432.28 146.152L513.791 334.247L557.678 315.438V89.7192Z" fill="#4D8AF0"/>
<defs>
<linearGradient id="paint0_linear" x1="381.728" y1="475.84" x2="195.426" y2="67.4166" gradientUnits="userSpaceOnUse">
<stop stop-color="#808080" stop-opacity="0.25"/>
<stop offset="0.54" stop-color="#808080" stop-opacity="0.12"/>
<stop offset="1" stop-color="#808080" stop-opacity="0.1"/>
</linearGradient>
<linearGradient id="paint1_linear" x1="90177.5" y1="-34594.5" x2="89229.8" y2="-36672.3" gradientUnits="userSpaceOnUse">
<stop stop-color="#808080" stop-opacity="0.25"/>
<stop offset="0.54" stop-color="#808080" stop-opacity="0.12"/>
<stop offset="1" stop-color="#808080" stop-opacity="0.1"/>
</linearGradient>
<linearGradient id="paint2_linear" x1="26649.2" y1="-6873.14" x2="25330.4" y2="-9764.37" gradientUnits="userSpaceOnUse">
<stop stop-color="#808080" stop-opacity="0.25"/>
<stop offset="0.54" stop-color="#808080" stop-opacity="0.12"/>
<stop offset="1" stop-color="#808080" stop-opacity="0.1"/>
</linearGradient>
<linearGradient id="paint3_linear" x1="36525.3" y1="8211.29" x2="33516.8" y2="1615.94" gradientUnits="userSpaceOnUse">
<stop stop-color="#808080" stop-opacity="0.25"/>
<stop offset="0.54" stop-color="#808080" stop-opacity="0.12"/>
<stop offset="1" stop-color="#808080" stop-opacity="0.1"/>
</linearGradient>
<linearGradient id="paint4_linear" x1="42611.4" y1="21360.1" x2="39602.7" y2="14764.1" gradientUnits="userSpaceOnUse">
<stop stop-color="#808080" stop-opacity="0.25"/>
<stop offset="0.54" stop-color="#808080" stop-opacity="0.12"/>
<stop offset="1" stop-color="#808080" stop-opacity="0.1"/>
</linearGradient>
<linearGradient id="paint5_linear" x1="16763.6" y1="4921.76" x2="15958" y2="3155.55" gradientUnits="userSpaceOnUse">
<stop stop-color="#808080" stop-opacity="0.25"/>
<stop offset="0.54" stop-color="#808080" stop-opacity="0.12"/>
<stop offset="1" stop-color="#808080" stop-opacity="0.1"/>
</linearGradient>
<linearGradient id="paint6_linear" x1="336387" y1="194918" x2="336387" y2="32399" gradientUnits="userSpaceOnUse">
<stop stop-color="#808080" stop-opacity="0.25"/>
<stop offset="0.54" stop-color="#808080" stop-opacity="0.12"/>
<stop offset="1" stop-color="#808080" stop-opacity="0.1"/>
</linearGradient>
</defs>
</svg>
